<svg width="23" height="23" viewBox="0 0 23 23" fill="none" xmlns="http://www.w3.org/2000/svg">
<path d="M1.4375 20.8438V2.15626C1.4375 1.75929 1.75928 1.43751 2.15625 1.43751H12.9375V4.31251C12.9375 5.10642 13.5811 5.75001 14.375 5.75001H17.25V7.90626H18.6875V5.03126C18.6886 4.84021 18.6136 4.65657 18.4791 4.52095L14.1666 0.208449C14.0309 0.0739079 13.8473 -0.00106666 13.6562 1.14685e-05H2.15625C0.965371 1.14685e-05 0 0.965428 0 2.15626V20.8438C0 22.0346 0.965371 23 2.15625 23H9.34375V21.5625H2.15625C1.75932 21.5625 1.4375 21.2407 1.4375 20.8438Z" fill="black"/>
<path fill-rule="evenodd" clip-rule="evenodd" d="M10.0625 16.5312C10.0625 12.9587 12.9587 10.0625 16.5312 10.0625C20.1038 10.0625 23 12.9587 23 16.5312C23 20.1038 20.1038 23 16.5312 23C12.9587 23 10.0625 20.1038 10.0625 16.5312ZM11.5 16.5312C11.5 19.3099 13.7526 21.5625 16.5312 21.5625C19.3099 21.5625 21.5625 19.3099 21.5625 16.5312C21.5625 13.7526 19.3099 11.5 16.5312 11.5C13.7526 11.5 11.5 13.7526 11.5 16.5312Z" fill="black"/>
<path d="M17.25 13.6562H15.8125V15.8125H13.6562V17.25H15.8125V19.4062H17.25V17.25H19.4062V15.8125H17.25V13.6562Z" fill="black"/>
</svg>
