<svg width="23" height="24" viewBox="0 0 23 24" fill="none" xmlns="http://www.w3.org/2000/svg">
<path fill-rule="evenodd" clip-rule="evenodd" d="M11.0741 22.787C11.216 22.787 11.287 22.716 11.287 22.5741C11.287 22.4321 11.216 22.3611 11.0741 22.3611C10.5505 22.3611 10.1002 22.1726 9.72309 21.7954C9.34597 21.4183 9.15741 20.968 9.15741 20.4444C9.15741 20.3025 9.08642 20.2315 8.94444 20.2315C8.80247 20.2315 8.73148 20.3025 8.73148 20.4444C8.73148 21.0922 8.95997 21.6446 9.41695 22.1016C9.87394 22.5585 10.4263 22.787 11.0741 22.787ZM2.42245 18.7407H19.7257C17.3653 16.0787 16.1852 12.3874 16.1852 7.66667C16.1852 7.21412 16.0787 6.74827 15.8657 6.2691C15.6528 5.78993 15.3466 5.33295 14.9473 4.89815C14.548 4.46335 14.009 4.10619 13.3301 3.82668C12.6513 3.54716 11.8993 3.40741 11.0741 3.40741C10.2488 3.40741 9.49682 3.54716 8.818 3.82668C8.13918 4.10619 7.60012 4.46335 7.20081 4.89815C6.8015 5.33295 6.49537 5.78993 6.28241 6.2691C6.06944 6.74827 5.96296 7.21412 5.96296 7.66667C5.96296 12.3874 4.78281 16.0787 2.42245 18.7407ZM22.1481 18.7407C22.1481 19.2022 21.9796 19.6015 21.6424 19.9387C21.3052 20.2759 20.9059 20.4444 20.4444 20.4444H14.4815C14.4815 21.385 14.1487 22.1881 13.4832 22.8536C12.8177 23.5191 12.0147 23.8519 11.0741 23.8519C10.1335 23.8519 9.33044 23.5191 8.66493 22.8536C7.99942 22.1881 7.66667 21.385 7.66667 20.4444H1.7037C1.24228 20.4444 0.84298 20.2759 0.505787 19.9387C0.168594 19.6015 0 19.2022 0 18.7407C0.443675 18.3681 0.847413 17.9776 1.21123 17.5694C1.57504 17.1613 1.95216 16.6311 2.34259 15.9789C2.73303 15.3267 3.06356 14.6235 3.3342 13.8692C3.60484 13.115 3.82668 12.201 3.99971 11.1273C4.17274 10.0536 4.25926 8.90008 4.25926 7.66667C4.25926 6.31789 4.77835 5.06453 5.81655 3.90654C6.85475 2.74855 8.21681 2.04533 9.90278 1.79688C9.83179 1.62828 9.7963 1.45525 9.7963 1.27778C9.7963 0.922837 9.92052 0.621144 10.169 0.372685C10.4174 0.124226 10.7191 0 11.0741 0C11.429 0 11.7307 0.124226 11.9792 0.372685C12.2276 0.621144 12.3519 0.922837 12.3519 1.27778C12.3519 1.45525 12.3164 1.62828 12.2454 1.79688C13.9313 2.04533 15.2934 2.74855 16.3316 3.90654C17.3698 5.06453 17.8889 6.31789 17.8889 7.66667C17.8889 8.90008 17.9754 10.0536 18.1484 11.1273C18.3215 12.201 18.5433 13.115 18.8139 13.8692C19.0846 14.6235 19.4151 15.3267 19.8056 15.9789C20.196 16.6311 20.5731 17.1613 20.9369 17.5694C21.3007 17.9776 21.7045 18.3681 22.1481 18.7407Z" fill="#ABAFB3"/>
</svg>
