<?xml version="1.0" encoding="UTF-8"?>
<svg width="14px" height="19px" viewBox="0 0 14 19" version="1.1" xmlns="http://www.w3.org/2000/svg" xmlns:xlink="http://www.w3.org/1999/xlink">
    <!-- Generator: Sketch 54.1 (76490) - https://sketchapp.com -->
    <title>Group 4 Copy 2</title>
    <desc>Created with Sketch.</desc>
    <defs>
        <linearGradient x1="80.9258895%" y1="7.06015827%" x2="19.9377552%" y2="86.6621607%" id="linearGradient-1">
            <stop stop-color="#FAC400" offset="0%"></stop>
            <stop stop-color="#F56A09" offset="100%"></stop>
        </linearGradient>
        <linearGradient x1="96.0102003%" y1="45.7141259%" x2="5.27469282%" y2="53.6592917%" id="linearGradient-2">
            <stop stop-color="#FAC400" offset="0%"></stop>
            <stop stop-color="#F56A09" offset="100%"></stop>
        </linearGradient>
    </defs>
    <g id="Page-1" stroke="none" stroke-width="1" fill="none" fill-rule="evenodd">
        <g id="Group-4-Copy-2" transform="translate(0.104177, 0.000000)">
            <path d="M1.09641938,17.7003954 C1.09641938,17.9224494 1.27641863,18.1024487 1.49847266,18.1024487 L11.7039919,18.1024487 C11.926046,18.1024487 12.1060452,17.9224494 12.1060452,17.7003954 L12.1060452,4.67360798 L1.09641938,4.67360798 L1.09641938,17.7003954 L1.09641938,17.7003954 Z M8.86278196,6.89050963 L10.3704817,6.89050963 L10.3704817,15.655854 L8.86278196,15.655854 L8.86278196,6.89050963 Z M5.84738241,6.89050963 L7.35508219,6.89050963 L7.35508219,15.655854 L5.84738241,15.655854 L5.84738241,6.89050963 Z M2.83198285,6.89050963 L4.33968263,6.89050963 L4.33968263,15.655854 L2.83198285,15.655854 L2.83198285,6.89050963 Z" id="Shape" fill="url(#linearGradient-1)"></path>
            <path d="M9.99003883,1.84765592 L9.99003883,0.402053274 C9.99003883,0.179999251 9.81003958,2.44249065e-14 9.58798556,2.44249065e-14 L3.61447904,2.44249065e-14 C3.39242501,2.44249065e-14 3.21242576,0.179999251 3.21242576,0.402053274 L3.21242576,1.84765592 L3.21242576,2.09893922 L3.21242576,2.35022252 L0.402053274,2.35022252 C0.179999251,2.35022252 -1.83852933e-13,2.53022177 -1.83852933e-13,2.75227579 L-1.83852933e-13,3.76898811 C-1.83852933e-13,3.99102203 0.179999251,4.17104138 0.402053274,4.17104138 L1.09641938,4.17104138 L12.1060452,4.17104138 L12.8004113,4.17104138 C13.0224653,4.17104138 13.2024646,3.99102203 13.2024646,3.76898811 L13.2024646,2.75227579 C13.2024646,2.53022177 13.0224653,2.35022252 12.8004113,2.35022252 L9.99003883,2.35022252 L9.99003883,2.09893922 L9.99003883,1.84765592 Z M8.48233905,2.26756036 L4.72012554,2.26756036 L4.72012554,2.09891912 L4.72012554,1.84763582 L4.72012554,1.50769978 L8.48233905,1.50769978 L8.48233905,1.84765592 L8.48233905,2.09893922 L8.48233905,2.26756036 Z" id="Shape" fill="url(#linearGradient-2)"></path>
        </g>
    </g>
</svg>