<svg width="16" height="18" viewBox="0 0 16 18" fill="none" xmlns="http://www.w3.org/2000/svg">
<g clip-path="url(#clip0)">
<path d="M15.7307 12.3029C15.5514 12.101 15.3333 12 15.077 12H10.6154L9.30768 13.4711C8.93586 13.8749 8.49999 14.0769 8 14.0769C7.50011 14.0769 7.0641 13.8751 6.69232 13.4711L5.39425 12H0.923065C0.666703 12 0.448768 12.1011 0.269227 12.3029C0.08972 12.5048 0 12.75 0 13.0386V16.5C0 16.7885 0.08972 17.0337 0.269227 17.2356C0.448735 17.4374 0.66667 17.5383 0.923065 17.5383H15.0771C15.3334 17.5383 15.5515 17.4374 15.7308 17.2356C15.9103 17.0337 16 16.7885 16 16.5V13.0386C16 12.75 15.9103 12.5048 15.7307 12.3029ZM12.1252 15.9483C12.0032 16.0853 11.8589 16.1538 11.6923 16.1538C11.5256 16.1538 11.3815 16.0853 11.2596 15.9483C11.1379 15.8113 11.077 15.6491 11.077 15.4617C11.077 15.2742 11.1379 15.1117 11.2596 14.9749C11.3815 14.8377 11.5256 14.7691 11.6923 14.7691C11.8589 14.7691 12.0032 14.8377 12.1252 14.9749C12.2468 15.1117 12.3077 15.2741 12.3077 15.4617C12.3077 15.649 12.2468 15.8113 12.1252 15.9483ZM14.5865 15.9483C14.4648 16.0853 14.3205 16.1538 14.1538 16.1538C13.9872 16.1538 13.843 16.0853 13.7212 15.9483C13.5995 15.8113 13.5386 15.6491 13.5386 15.4617C13.5386 15.2742 13.5995 15.1117 13.7212 14.9749C13.843 14.8377 13.9872 14.7691 14.1538 14.7691C14.3205 14.7691 14.4648 14.8377 14.5865 14.9749C14.7084 15.1117 14.7693 15.2741 14.7693 15.4617C14.7693 15.649 14.7085 15.8113 14.5865 15.9483Z" fill="#2196F3"/>
<path d="M7.50032 11.5639C7.61577 11.7008 7.75998 11.7693 7.93299 11.7693C8.10613 11.7693 8.25017 11.7008 8.36566 11.5639L12.6734 6.71769C12.8721 6.50858 12.917 6.25613 12.808 5.96044C12.6992 5.67927 12.5101 5.53867 12.2407 5.53852H9.77912V0.692338C9.77912 0.504865 9.71812 0.342589 9.59654 0.205583C9.47463 0.0685404 9.33045 0 9.16387 0H6.7021C6.53552 0 6.39128 0.0685404 6.26943 0.205583C6.14768 0.342589 6.08675 0.504828 6.08675 0.692338V5.53855H3.62521C3.35585 5.53855 3.16685 5.67931 3.05786 5.96048C2.94894 6.25605 2.99377 6.50862 3.19254 6.71772L7.50032 11.5639Z" fill="#8DC940"/>
</g>
<defs>
<clipPath id="clip0">
<rect width="16" height="18" fill="white"/>
</clipPath>
</defs>
</svg>
