<svg width="40" height="80" viewBox="0 0 40 80" fill="none" xmlns="http://www.w3.org/2000/svg">
<path d="M20 40C8.95373 40 0 31.0463 0 20C0 8.95372 8.95373 -2.17557e-06 20 -2.17557e-06C31.0463 -2.17557e-06 40 8.95503 40 20C40 31.045 31.0463 40 20 40ZM30.6687 23.9012L21.0975 14.33C20.7975 14.03 20.3875 13.9375 19.9988 14.005C19.6112 13.9362 19.2 14.03 18.9 14.33L9.32876 23.9012C8.84 24.39 8.84 25.18 9.32876 25.6688C9.81752 26.1575 10.6088 26.1575 11.0962 25.6688L20 16.7675L28.9012 25.6688C29.39 26.1575 30.1812 26.1575 30.6687 25.6688C31.1575 25.1812 31.1575 24.39 30.6687 23.9012Z" fill="#B5B5B5"/>
<path d="M20 80C8.95373 80 0 71.0463 0 60C0 48.9537 8.95373 40 20 40C31.0463 40 40 48.955 40 60C40 71.045 31.0463 80 20 80ZM30.6687 63.9012L21.0975 54.33C20.7975 54.03 20.3875 53.9375 19.9988 54.005C19.6112 53.9362 19.2 54.03 18.9 54.33L9.32876 63.9012C8.84 64.39 8.84 65.18 9.32876 65.6688C9.81752 66.1575 10.6088 66.1575 11.0962 65.6688L20 56.7675L28.9012 65.6688C29.39 66.1575 30.1812 66.1575 30.6687 65.6688C31.1575 65.1812 31.1575 64.39 30.6687 63.9012Z" fill="#576B73"/>
</svg>
