<?xml version="1.0" encoding="UTF-8"?>
<svg width="15px" height="20px" viewBox="0 0 15 20" version="1.1" xmlns="http://www.w3.org/2000/svg" xmlns:xlink="http://www.w3.org/1999/xlink">
    <!-- Generator: Sketch 54.1 (76490) - https://sketchapp.com -->
    <title>lock</title>
    <desc>Created with Sketch.</desc>
    <g id="Page-1" stroke="none" stroke-width="1" fill="none" fill-rule="evenodd">
        <g id="lock" fill="#222222" fill-rule="nonzero">
            <path d="M6.29813542,13.3790065 L6.04404557,15.6638893 C6.03147135,15.7775482 6.06802344,15.8916224 6.14433724,15.9769987 C6.22065104,16.0623372 6.33000521,16.1111237 6.44445703,16.1111237 L8.05558073,16.1111237 C8.17003255,16.1111237 8.27938672,16.0623372 8.35570052,15.9769987 C8.43201432,15.8916602 8.46860417,15.7775859 8.45599219,15.6638893 L8.20190234,13.3790065 C8.61451042,13.0788867 8.8611237,12.604125 8.8611237,12.0833333 C8.8611237,11.194793 8.13857813,10.4722096 7.25,10.4722096 C6.36142187,10.4722096 5.6388763,11.194793 5.6388763,12.0833333 C5.6388763,12.604125 5.88552734,13.0788867 6.29813542,13.3790065 Z M7.25,11.2777904 C7.6940625,11.2777904 8.05554297,11.6392708 8.05554297,12.0833333 C8.05554297,12.3921003 7.88010807,12.6686198 7.59769792,12.8055013 C7.44389974,12.8802292 7.35384115,13.0430898 7.37272135,13.2125964 L7.60558984,15.305543 L6.89444792,15.305543 L7.12731641,13.2125964 C7.14619661,13.0430521 7.05613802,12.8802292 6.90233984,12.8055013 C6.61992969,12.6686198 6.44449479,12.3921003 6.44449479,12.0833333 C6.44445703,11.6392708 6.8059375,11.2777904 7.25,11.2777904 Z" id="Shape"></path>
            <path d="M14.0972096,7.25 L12.8888763,7.25 L12.8888763,5.6388763 C12.8888763,2.52957031 10.3593438,0 7.25,0 C4.14065625,0 1.6111237,2.52957031 1.6111237,5.6388763 L1.6111237,7.25 L0.402790365,7.25 C0.180154948,7.25 0,7.43015495 0,7.65279036 L0,17.7222474 C0,18.6107878 0.722545573,19.3333333 1.6111237,19.3333333 L12.8889141,19.3333333 C13.7774544,19.3333333 14.5,18.6107878 14.5,17.7222096 L14.5,7.65279036 C14.5,7.43015495 14.3198451,7.25 14.0972096,7.25 Z M2.41666667,5.6388763 C2.41666667,2.97363281 4.58475651,0.805542969 7.25,0.805542969 C9.91524349,0.805542969 12.0833333,2.97363281 12.0833333,5.6388763 L12.0833333,7.25 L11.2777904,7.25 L11.2777904,5.6388763 C11.2777904,3.41807292 9.47080339,1.61108594 7.25,1.61108594 C5.02919661,1.61108594 3.22220964,3.41811068 3.22220964,5.6388763 L3.22220964,7.25 L2.41666667,7.25 L2.41666667,5.6388763 Z M10.4722096,5.6388763 L10.4722096,7.25 L4.02779036,7.25 L4.02779036,5.6388763 C4.02779036,3.86217318 5.47329687,2.41666667 7.25,2.41666667 C9.02670312,2.41666667 10.4722096,3.86217318 10.4722096,5.6388763 Z M13.694457,17.7222096 C13.694457,18.1662721 13.3329766,18.5277526 12.8889141,18.5277526 L1.6111237,18.5277526 C1.1670612,18.5277526 0.805580729,18.1662721 0.805580729,17.7222096 L0.805580729,8.05554297 L13.694457,8.05554297 L13.694457,17.7222096 L13.694457,17.7222096 Z" id="Shape"></path>
        </g>
    </g>
</svg>