<svg width="126" height="36" viewBox="0 0 126 36" fill="none" xmlns="http://www.w3.org/2000/svg">
<rect opacity="0.01" width="126" height="36" fill="white"/>
<path fill-rule="evenodd" clip-rule="evenodd" d="M14.2438 23.13V27.6383H1V8.33444H6.67209V23.13H14.2438Z" fill="url(#paint0_linear)"/>
<path fill-rule="evenodd" clip-rule="evenodd" d="M24.8388 8C30.8052 8 34.5643 11.826 34.5643 17.993C34.5643 24.1601 30.8052 27.9727 24.8388 27.9727C18.8591 27.9727 15.1133 24.1601 15.1133 17.993C15.1133 11.826 18.8724 8 24.8388 8ZM24.8388 12.5216C22.471 12.5216 20.8925 14.6487 20.8925 17.993C20.8925 21.3241 22.4576 23.4511 24.8388 23.4511C27.22 23.4511 28.7852 21.3241 28.7852 17.993C28.7852 14.6487 27.2067 12.5216 24.8388 12.5216Z" fill="url(#paint1_linear)"/>
<path fill-rule="evenodd" clip-rule="evenodd" d="M48.3833 27.6383H41.0257L35.1663 8.33444H41.4206L44.7848 22.2605H44.8918L48.256 8.33444H54.2427L48.3833 27.6383Z" fill="url(#paint2_linear)"/>
<path fill-rule="evenodd" clip-rule="evenodd" d="M65.2005 23.7989H59.4198L58.4165 27.6383H52.6374L58.9383 8.33444H60.7346L62.1714 13.3096L60.4499 19.799H64.0454L65.2005 23.7989ZM66.046 8.33444H66.0551L67.3558 12.3192L66.046 8.33444ZM72.0964 26.843L72.356 27.6383H71.884L72.0964 26.843Z" fill="url(#paint3_linear)"/>
<path d="M72.9799 27.6383H67.4052L61.8305 8.33444H66.8679L69.8845 19.799L73.7156 8.33444H78.1035L81.5304 19.799L84.9512 8.33444H89.9887L84.1903 27.6383H78.8393L75.9304 16.5908L72.9799 27.6383Z" fill="#8DC940"/>
<path d="M105.754 23.13V27.6383H92.1355V8.33444H105.754V12.8427H97.8076V15.9597H105.259V20.0264H97.8076V23.13H105.754Z" fill="#8DC940"/>
<path d="M118.208 27.6383H108.403V8.33444H117.887C121.834 8.33444 124.148 10.1404 124.148 13.1504C124.148 15.371 122.462 17.0432 120.228 17.3242V17.4312C122.837 17.4981 125.018 19.4646 125.018 22.0197C125.018 25.4042 122.342 27.6383 118.208 27.6383ZM114.075 12.2273V16.0667H116.269C117.727 16.0667 118.636 15.3042 118.636 14.1403C118.636 12.9497 117.78 12.2273 116.349 12.2273H114.075ZM114.075 23.7454H116.496C118.249 23.7454 119.252 22.9561 119.252 21.498C119.252 20.1201 118.235 19.3174 116.536 19.3174H114.075V23.7454Z" fill="#8DC940"/>
<defs>
<linearGradient id="paint0_linear" x1="7.6219" y1="15.6854" x2="7.6219" y2="27.6383" gradientUnits="userSpaceOnUse">
<stop stop-color="#42A5F5"/>
<stop offset="1" stop-color="#2196F3"/>
</linearGradient>
<linearGradient id="paint1_linear" x1="24.8388" y1="15.6057" x2="24.8388" y2="27.9727" gradientUnits="userSpaceOnUse">
<stop stop-color="#42A5F5"/>
<stop offset="1" stop-color="#2196F3"/>
</linearGradient>
<linearGradient id="paint2_linear" x1="44.7045" y1="15.6854" x2="44.7045" y2="27.6383" gradientUnits="userSpaceOnUse">
<stop stop-color="#42A5F5"/>
<stop offset="1" stop-color="#2196F3"/>
</linearGradient>
<linearGradient id="paint3_linear" x1="62.4967" y1="15.6854" x2="62.4967" y2="27.6383" gradientUnits="userSpaceOnUse">
<stop stop-color="#42A5F5"/>
<stop offset="1" stop-color="#2196F3"/>
</linearGradient>
</defs>
</svg>
