<?xml version="1.0" encoding="UTF-8"?>
<svg width="25px" height="20px" viewBox="0 0 25 20" version="1.1" xmlns="http://www.w3.org/2000/svg" xmlns:xlink="http://www.w3.org/1999/xlink">
    <!-- Generator: Sketch 54.1 (76490) - https://sketchapp.com -->
    <title>Fill 1 Copy 9</title>
    <desc>Created with Sketch.</desc>
    <g id="Page-1" stroke="none" stroke-width="1" fill="none" fill-rule="evenodd">
        <path d="M7.6041667,4.06249938 C8.09027876,4.54861436 8.33333333,5.13888641 8.33333275,5.83333275 C8.33333333,6.52778259 8.09027876,7.11805464 7.6041667,7.6041667 C7.11805173,8.09027876 6.52777967,8.33333333 5.83333275,8.33333275 C5.13888641,8.33333333 4.54861436,8.09027876 4.06249938,7.6041667 C3.57638732,7.11805464 3.33333275,6.52778259 3.33333275,5.83333275 C3.33333275,5.13888641 3.57638732,4.54861436 4.06249938,4.06249938 C4.54861436,3.57638732 5.13888641,3.33333275 5.83333275,3.33333275 C6.52777967,3.33333275 7.11805173,3.57638732 7.6041667,4.06249938 Z M21.6666643,10.8333336 L21.6666643,16.6666667 L3.33333275,16.6666667 L3.33333275,14.1666664 L7.50000087,10.0000012 L9.58333202,12.0833323 L16.2500004,5.41666681 L21.6666643,10.8333336 Z M22.9166659,1.66666783 L2.08333319,1.66666783 C1.97048532,1.66666783 1.87283007,1.70789783 1.79036454,1.79036366 C1.70789871,1.87282949 1.66666667,1.97048532 1.66666667,2.08333406 L1.66666667,17.9166662 C1.66666667,18.0295141 1.70789871,18.1271693 1.79036454,18.2096349 C1.87283007,18.2921007 1.97048532,18.3333328 2.08333319,18.3333328 L22.9166659,18.3333328 C23.0295147,18.3333328 23.1271676,18.2921007 23.2096334,18.2096349 C23.2920993,18.1271693 23.3333322,18.0295141 23.3333322,17.9166662 L23.3333322,2.08333406 C23.3333322,1.97048532 23.2920993,1.87282949 23.2096334,1.79036366 C23.1271676,1.70789783 23.0295147,1.66666783 22.9166659,1.66666783 Z M25,2.08333406 L25,17.9166662 C25,18.4895856 24.7960083,18.9800321 24.3880192,19.3880204 C23.9800301,19.7960084 23.4895838,19.9999994 22.9166659,19.9999994 L2.08333319,19.9999994 C1.51041384,19.9999994 1.01996732,19.7960084 0.611979053,19.3880204 C0.203991015,18.9800321 0,18.4895856 0,17.9166662 L0,2.08333406 C0,1.51041326 0.203991015,1.01996703 0.611979053,0.611980803 C1.01996732,0.203991656 1.51041384,-1.42108547e-14 2.08333319,-1.42108547e-14 L22.9166659,-1.42108547e-14 C23.4895838,-1.42108547e-14 23.9800301,0.203991656 24.3880192,0.611980803 C24.7960083,1.01996703 25,1.51041326 25,2.08333406 Z" id="Fill-1-Copy-9" fill="#C4C4C4"></path>
    </g>
</svg>