<?xml version="1.0" encoding="UTF-8"?>
<svg width="18px" height="18px" viewBox="0 0 18 18" version="1.1" xmlns="http://www.w3.org/2000/svg" xmlns:xlink="http://www.w3.org/1999/xlink">
    <!-- Generator: Sketch 54.1 (76490) - https://sketchapp.com -->
    <title>Group 5 Copy 2</title>
    <desc>Created with Sketch.</desc>
    <defs>
        <linearGradient x1="96.0102003%" y1="7.06015827%" x2="5.27469282%" y2="86.6621607%" id="linearGradient-1">
            <stop stop-color="#70C7FF" offset="0%"></stop>
            <stop stop-color="#AB6BFF" offset="100%"></stop>
        </linearGradient>
    </defs>
    <g id="Page-1" stroke="none" stroke-width="1" fill="none" fill-rule="evenodd">
        <g id="Group-5-Copy-2" fill="url(#linearGradient-1)">
            <path d="M12.2531478,9 C12.2531478,10.7967233 10.7967233,12.2531478 9,12.2531478 C7.2032767,12.2531478 5.74685222,10.7967233 5.74685222,9 C5.74685222,7.2032767 7.2032767,5.74685222 9,5.74685222 C10.7967233,5.74685222 12.2531478,7.2032767 12.2531478,9 Z" id="Path"></path>
            <path d="M17.6049188,7.30976942 L16.0519,7.16027002 C15.880044,6.51141533 15.6180787,5.88969585 15.2738547,5.31337229 L16.2609602,4.12300896 C16.4043158,3.95012892 16.3932228,3.69669674 16.235361,3.53695767 L14.484375,1.7661749 C14.3253186,1.60507053 14.0696678,1.59227091 13.8952518,1.73647983 L12.6999393,2.72529201 C12.1225918,2.3822626 11.5012136,2.11995603 10.8527002,1.94554005 L10.7030302,0.394569175 C10.6811855,0.170832058 10.4931166,-1.77635684e-15 10.2681849,-1.77635684e-15 L7.75417172,-1.77635684e-15 C7.52924001,-1.77635684e-15 7.34100047,0.171002709 7.31932646,0.394910476 L7.16965641,1.9453694 C6.51977777,2.11705475 5.89703426,2.37884937 5.31968675,2.72307342 L4.12693418,1.73665049 C3.9533715,1.59312425 3.69908602,1.60507053 3.53985894,1.76429761 L1.76668689,3.53490973 C1.60694782,3.69447816 1.5950015,3.94927563 1.73903977,4.12300896 L2.72836394,5.31610287 C2.38533449,5.89225579 2.12285726,6.51278062 1.94827063,7.16027002 L0.394910476,7.30976942 C0.171002709,7.33127278 1.77635684e-15,7.51951228 1.77635684e-15,7.74461468 L1.77635684e-15,10.2553853 C1.77635684e-15,10.480317 0.171002709,10.6687272 0.39508117,10.6902306 L1.94809998,10.83973 C2.11995603,11.4885847 2.38192126,12.1103041 2.72614535,12.6864571 L1.73903977,13.876991 C1.5950015,14.0507244 1.60694782,14.3055218 1.76668689,14.4649196 L3.53985894,16.235873 C3.69925667,16.3949295 3.95354219,16.4068757 4.12710483,16.2633495 L5.32241733,15.274708 C5.89976484,15.6177374 6.52131371,15.880044 7.16965641,16.0542893 L7.31932646,17.6052602 C7.34117112,17.8291679 7.52924001,18 7.75417172,18 L10.2681849,18 C10.4931166,18 10.6813562,17.8289973 10.7030302,17.6050895 L10.8527002,16.0546306 C11.5025789,15.8829452 12.1253223,15.6211506 12.7026699,15.2769266 L13.8954225,16.2633495 C14.0689852,16.4068757 14.3231,16.3949295 14.4824977,16.2357024 L16.2556698,14.4649196 C16.4154088,14.3053512 16.4273551,14.0505537 16.2833169,13.8768204 L15.2939927,12.6837265 C15.6370221,12.1074029 15.89967,11.486878 16.0742567,10.8393886 L17.6054308,10.6902306 C17.8293386,10.6683859 18,10.4801464 18,10.2553853 L18,7.74461468 C18,7.51951228 17.8289973,7.33127278 17.6049188,7.30976942 L17.6049188,7.30976942 Z M9,13.1269342 C6.72064624,13.1269342 4.87306582,11.2793538 4.87306582,9 C4.87306582,6.72064624 6.72064624,4.87306582 9,4.87306582 C11.2793538,4.87306582 13.1269342,6.72064624 13.1269342,9 C13.1243743,11.2781591 11.2781591,13.1243743 9,13.1269342 Z" id="Shape"></path>
        </g>
    </g>
</svg>