<svg width="25" height="16" viewBox="0 0 25 16" fill="none" xmlns="http://www.w3.org/2000/svg">
<path d="M12.479 1.51263C15.6687 1.51263 18.3683 2.96661 20.0715 4.18655C22.0893 5.63183 23.1277 7.02984 23.397 7.56306C23.1274 8.09624 22.0894 9.49425 20.0715 10.9396C18.3683 12.1595 15.6687 13.6135 12.479 13.6135C9.28927 13.6135 6.58966 12.1595 4.88646 10.9396C2.86825 9.49425 1.83023 8.09624 1.5606 7.56306C1.83023 7.02984 2.86825 5.63183 4.88607 4.18655C6.58966 2.96661 9.28927 1.51263 12.479 1.51263ZM12.479 0C5.5872 0 0 6.05043 0 7.56306C0 9.07569 5.5872 15.1261 12.479 15.1261C19.3708 15.1261 24.958 9.07565 24.958 7.56306C24.958 6.05048 19.3708 0 12.479 0ZM12.479 3.02526C9.97297 3.02526 7.94118 5.05705 7.94118 7.56306C7.94118 10.069 9.97297 12.1009 12.479 12.1009C14.985 12.1009 17.0168 10.069 17.0168 7.56306C17.0168 5.05705 14.985 3.02526 12.479 3.02526ZM11.2572 7.56306C10.1968 7.56306 9.33728 6.7035 9.33728 5.64317C9.33728 4.58283 10.1968 3.72331 11.2572 3.72331C12.3175 3.72331 13.1771 4.58287 13.1771 5.64317C13.1771 6.7035 12.3175 7.56306 11.2572 7.56306Z" fill="#8EC742"/>
</svg>
