<svg width="29" height="29" viewBox="0 0 29 29" fill="none" xmlns="http://www.w3.org/2000/svg">
<g clip-path="url(#clip0)">
<path fill-rule="evenodd" clip-rule="evenodd" d="M11.9419 11.8229C11.9419 10.7369 11.2029 10.7369 11.2029 10.7369H10.8114H8.16283H8.16168V13.0677H11.0143C11.5075 13.0677 11.9419 12.9105 11.9419 11.8229ZM18.9873 13.0676C17.375 13.0676 17.1498 14.6759 17.1498 14.6759H20.5802C20.5802 14.6771 20.6014 13.0676 18.9873 13.0676ZM8.16339 14.6772H11.2029C11.2029 14.6772 12.3048 14.6635 12.3048 16.113C12.3048 17.3355 11.4823 17.4589 11.0497 17.4698C10.993 17.4714 10.9429 17.4708 10.9022 17.4702C10.885 17.47 10.8695 17.4698 10.8559 17.4698H8.16339V14.6772Z" fill="white"/>
<path d="M14.1892 0C6.3653 0 0 6.3653 0 14.1892C0 22.0125 6.3653 28.3784 14.1892 28.3784C22.0125 28.3784 28.3784 22.0125 28.3784 14.1892C28.3784 6.3653 22.0136 0 14.1892 0ZM16.7 9.49623H21.0089V10.7828H16.7V9.49623ZM14.5213 16.2428C14.5213 19.4303 11.2029 19.3262 11.2029 19.3262H8.16338H8.07422H5.76861V8.88124H8.07422H8.16338H11.2029C12.8552 8.88124 14.1589 9.794 14.1589 11.663C14.1589 13.5313 12.5654 13.6502 12.5654 13.6502C14.6659 13.6496 14.5213 16.2428 14.5213 16.2428ZM22.5829 16.0713H17.1698C17.1698 18.0123 19.0085 17.8899 19.0085 17.8899C20.7437 17.8899 20.6831 16.7663 20.6831 16.7663H22.5229C22.5229 19.7486 18.9484 19.5434 18.9484 19.5434C14.6601 19.5434 14.9356 15.5512 14.9356 15.5512C14.9356 15.5512 14.9316 11.5378 18.9484 11.5378C23.1756 11.5378 22.5818 16.0713 22.5829 16.0713V16.0713Z" fill="white"/>
</g>
<defs>
<clipPath id="clip0">
<rect width="28.3784" height="28.3784" fill="white"/>
</clipPath>
</defs>
</svg>
