<svg width="29" height="29" viewBox="0 0 29 29" fill="none" xmlns="http://www.w3.org/2000/svg">
<g clip-path="url(#clip0)">
<path d="M14.1892 0C6.3653 0 0 6.3653 0 14.1892C0 22.0125 6.3653 28.3784 14.1892 28.3784C22.0125 28.3784 28.3784 22.0125 28.3784 14.1892C28.3784 6.3653 22.0136 0 14.1892 0ZM17.7179 14.6887H15.4094V22.9167H11.9887C11.9887 22.9167 11.9887 18.4209 11.9887 14.6887H10.3627V11.7807H11.9887V9.89974C11.9887 8.55261 12.6289 6.4476 15.4409 6.4476L17.9757 6.45732V9.28018C17.9757 9.28018 16.4354 9.28018 16.1359 9.28018C15.8364 9.28018 15.4106 9.42993 15.4106 10.0723V11.7813H18.0168L17.7179 14.6887Z" fill="white"/>
</g>
<defs>
<clipPath id="clip0">
<rect width="28.3784" height="28.3784" fill="white"/>
</clipPath>
</defs>
</svg>
