<svg width="29" height="29" viewBox="0 0 29 29" fill="none" xmlns="http://www.w3.org/2000/svg">
<g clip-path="url(#clip0)">
<path d="M16.9051 14.1892C16.9051 15.6891 15.6892 16.9051 14.1892 16.9051C12.6892 16.9051 11.4733 15.6891 11.4733 14.1892C11.4733 12.6892 12.6892 11.4733 14.1892 11.4733C15.6892 11.4733 16.9051 12.6892 16.9051 14.1892Z" fill="white"/>
<path d="M20.5407 9.38385C20.4102 9.03007 20.2019 8.70985 19.9312 8.44701C19.6684 8.17637 19.3484 7.96809 18.9944 7.83753C18.7073 7.72603 18.276 7.59331 17.4817 7.55715C16.6223 7.51797 16.3647 7.50952 14.1892 7.50952C12.0135 7.50952 11.7558 7.51775 10.8967 7.55694C10.1024 7.59331 9.67085 7.72603 9.38397 7.83753C9.02998 7.96809 8.70976 8.17637 8.44713 8.44701C8.1765 8.70985 7.96821 9.02985 7.83744 9.38385C7.72594 9.67094 7.59322 10.1024 7.55706 10.8968C7.51787 11.7559 7.50943 12.0136 7.50943 14.1893C7.50943 16.3648 7.51787 16.6224 7.55706 17.4817C7.59322 18.2761 7.72594 18.7074 7.83744 18.9945C7.96821 19.3485 8.17628 19.6685 8.44692 19.9313C8.70976 20.202 9.02976 20.4103 9.38376 20.5408C9.67085 20.6525 10.1024 20.7853 10.8967 20.8214C11.7558 20.8606 12.0133 20.8688 14.189 20.8688C16.3649 20.8688 16.6225 20.8606 17.4814 20.8214C18.2758 20.7853 18.7073 20.6525 18.9944 20.5408C19.705 20.2667 20.2666 19.7051 20.5407 18.9945C20.6522 18.7074 20.7849 18.2761 20.8213 17.4817C20.8605 16.6224 20.8687 16.3648 20.8687 14.1893C20.8687 12.0136 20.8605 11.7559 20.8213 10.8968C20.7852 10.1024 20.6524 9.67094 20.5407 9.38385V9.38385ZM14.1892 18.3729C11.8784 18.3729 10.0051 16.4999 10.0051 14.1891C10.0051 11.8783 11.8784 10.0052 14.1892 10.0052C16.4998 10.0052 18.373 11.8783 18.373 14.1891C18.373 16.4999 16.4998 18.3729 14.1892 18.3729ZM18.5384 10.8176C17.9985 10.8176 17.5607 10.3798 17.5607 9.83982C17.5607 9.29984 17.9985 8.86206 18.5384 8.86206C19.0784 8.86206 19.5162 9.29984 19.5162 9.83982C19.516 10.3798 19.0784 10.8176 18.5384 10.8176Z" fill="white"/>
<path d="M14.1892 0C6.35391 0 0 6.35391 0 14.1892C0 22.0245 6.35391 28.3784 14.1892 28.3784C22.0245 28.3784 28.3784 22.0245 28.3784 14.1892C28.3784 6.35391 22.0245 0 14.1892 0ZM22.2877 17.5483C22.2483 18.4157 22.1104 19.0078 21.9091 19.5262C21.4858 20.6206 20.6206 21.4858 19.5262 21.9091C19.008 22.1104 18.4157 22.2481 17.5486 22.2877C16.6797 22.3274 16.4021 22.3369 14.1894 22.3369C11.9765 22.3369 11.6991 22.3274 10.83 22.2877C9.96292 22.2481 9.37055 22.1104 8.85244 21.9091C8.30857 21.7045 7.81622 21.3838 7.40918 20.9692C6.99478 20.5624 6.67413 20.0698 6.46953 19.5262C6.26818 19.008 6.13026 18.4157 6.09085 17.5486C6.0508 16.6795 6.04149 16.4019 6.04149 14.1892C6.04149 11.9765 6.0508 11.6989 6.09064 10.83C6.13004 9.9627 6.26774 9.37055 6.4691 8.85222C6.6737 8.30857 6.99457 7.81601 7.40918 7.40918C7.81601 6.99457 8.30857 6.67392 8.85222 6.46931C9.37055 6.26796 9.9627 6.13026 10.83 6.09064C11.6989 6.05102 11.9765 6.04149 14.1892 6.04149C16.4019 6.04149 16.6795 6.05102 17.5483 6.09085C18.4157 6.13026 19.0078 6.26796 19.5262 6.4691C20.0698 6.6737 20.5624 6.99457 20.9694 7.40918C21.3838 7.81622 21.7047 8.30857 21.9091 8.85222C22.1106 9.37055 22.2483 9.9627 22.288 10.83C22.3276 11.6989 22.3369 11.9765 22.3369 14.1892C22.3369 16.4019 22.3276 16.6795 22.2877 17.5483V17.5483Z" fill="white"/>
</g>
<defs>
<clipPath id="clip0">
<rect width="28.3784" height="28.3784" fill="white"/>
</clipPath>
</defs>
</svg>
