<svg width="29" height="29" viewBox="0 0 29 29" fill="none" xmlns="http://www.w3.org/2000/svg">
<g clip-path="url(#clip0)">
<path fill-rule="evenodd" clip-rule="evenodd" d="M28.3784 14.1881C28.3784 22.0246 22.0256 28.3773 14.1892 28.3773C6.3527 28.3773 -1.52588e-05 22.0246 -1.52588e-05 14.1881C-1.52588e-05 6.35162 6.3527 -0.00109863 14.1892 -0.00109863C22.0256 -0.00109863 28.3784 6.35162 28.3784 14.1881ZM22.6671 21.1807V15.3308C22.6671 12.1982 20.9942 10.7402 18.7628 10.7402C16.9606 10.7402 16.1568 11.7317 15.706 12.4253V10.9798H12.3139C12.3594 11.9366 12.3139 21.1804 12.3139 21.1804H15.7058V15.4833C15.7058 15.1775 15.7288 14.8747 15.8181 14.6567C16.0639 14.0466 16.6206 13.4166 17.5578 13.4166C18.7858 13.4166 19.2755 14.3524 19.2755 15.7228V21.1807H22.6671ZM15.706 12.4253V12.4587H15.6835C15.6867 12.4529 15.691 12.4471 15.6952 12.4411C15.699 12.4359 15.7028 12.4306 15.706 12.4253ZM6.84645 7.8249C6.84645 6.82429 7.60551 6.0627 8.76573 6.0627C9.9262 6.0627 10.6392 6.82429 10.6617 7.8249C10.6617 8.80427 9.9262 9.58786 8.74322 9.58786H8.72121C7.58351 9.58786 6.84645 8.80427 6.84645 7.8249ZM10.4386 21.1807H7.04804V10.9798H10.4386V21.1807Z" fill="white"/>
</g>
<defs>
<clipPath id="clip0">
<rect width="28.3784" height="28.3784" fill="white"/>
</clipPath>
</defs>
</svg>
