<svg width="48" height="48" viewBox="0 0 48 48" fill="none" xmlns="http://www.w3.org/2000/svg">
<mask id="mask0" mask-type="alpha" maskUnits="userSpaceOnUse" x="0" y="0" width="48" height="48">
<rect width="48" height="48" fill="#C4C4C4"/>
</mask>
<g mask="url(#mask0)">
<path fill-rule="evenodd" clip-rule="evenodd" d="M38.2981 35.3484C40.4494 31.7746 41.9738 27.8601 42.8073 23.7726C44.1397 17.3732 42.4501 8.51734 35.5888 4.19422C31.2111 1.60938 25.9978 0.835944 21.058 2.03849C14.1046 3.72563 9.12211 8.35143 7.38525 14.7299C7.01261 15.955 6.83586 17.2321 6.86188 18.5125C6.88913 19.0026 6.95408 19.4904 7.05541 19.9716C8.00938 19.248 9.10638 18.7347 10.2732 18.4662C10.9402 18.3544 11.6248 18.4081 12.2671 18.6219C12.5477 18.7064 12.7625 18.934 12.8299 19.2198C12.8972 19.5055 12.8072 19.8049 12.5931 20.0061C12.3798 20.2073 12.075 20.279 11.7937 20.1945C11.4026 20.058 10.9846 20.0187 10.5758 20.0807C9.42439 20.3907 8.35437 20.949 7.4404 21.7154C7.66515 22.717 7.75541 23.7433 7.70856 24.7681C7.61877 26.6149 6.4453 28.2977 5.50137 29.6482C5.06125 30.2778 4.24299 31.4498 4.35536 31.7382C4.37014 31.7755 4.54533 31.9405 5.13429 32.0791C5.78205 32.0934 6.39578 32.3688 6.83727 32.8432C7.27886 33.3167 7.5105 33.9488 7.47899 34.5962C7.44918 35.1359 7.45465 35.6773 7.49386 36.2171C7.66652 36.2425 7.99564 36.2501 8.29275 36.257L8.29291 36.257C8.67467 36.2659 9.00018 36.5372 9.07767 36.911C9.15525 37.2849 8.9649 37.6632 8.61866 37.8235C8.41761 37.9199 8.23153 38.0453 8.06708 38.1951C8.19713 38.2876 8.34686 38.3494 8.50478 38.3761C9.33843 38.5902 9.887 39.0161 9.85482 40.3993C9.84065 40.7612 9.80763 41.1218 9.7557 41.4804L9.75544 41.4824C9.59479 42.7463 9.52832 43.2692 10.8841 43.7481C13.0258 44.5043 22.7459 42.4208 25.1398 39.435C25.424 39.0826 25.9395 39.0265 26.2935 39.3098C26.6467 39.5933 26.7045 40.1088 26.4219 40.4628C25.3857 41.7545 23.2627 42.9043 20.8621 43.7815L20.919 43.8957C21.4556 44.9722 21.815 45.6932 21.9841 46.9138L40.2853 46.9138C38.827 44.2162 37.0369 39.9073 37.0613 37.9432C37.0504 37.8139 37.0715 37.6846 37.1219 37.5651C37.4184 36.9015 37.8222 36.1885 38.2899 35.3628L38.2981 35.3484ZM36.4699 28.0343C36.0127 28.022 35.5675 27.8811 35.1857 27.6282L33.1136 29.2071C32.9123 30.2349 32.0833 31.0221 31.0466 31.1697C30.0098 31.3172 28.9937 30.7925 28.5135 29.8615C28.0341 28.9304 28.196 27.7982 28.9175 27.0396L26.2885 22.8305C25.113 23.0167 23.9804 22.3045 23.639 21.164L19.2314 21.0614C18.8719 22.0075 17.9685 22.6361 16.9563 22.6455C15.9442 22.6548 15.0295 22.043 14.6521 21.1035C14.2747 20.1642 14.5125 19.0896 15.2498 18.3963L14.0079 15.1123C12.8863 14.8135 12.127 13.7691 12.1876 12.61C12.2482 11.4508 13.1125 10.4926 14.26 10.3123L15.903 8.22663C15.6989 7.85555 15.5953 7.43675 15.6026 7.01307C15.6237 6.00408 16.2588 5.11049 17.2058 4.75954C18.1528 4.40868 19.2168 4.67322 19.8901 5.42488L23.1577 4.85039C23.4868 3.80506 24.4698 3.10596 25.5647 3.138C26.6596 3.17004 27.5997 3.92619 27.8675 4.98873L30.2873 5.65367C31.1084 4.8194 32.4052 4.68196 33.3833 5.32647C34.3613 5.97098 34.7463 7.21609 34.3038 8.30065L35.6523 9.47452C36.0344 9.25504 36.4682 9.14362 36.909 9.15136C37.8974 9.17274 38.7778 9.7838 39.1424 10.7032C39.507 11.6225 39.2855 12.6704 38.5802 13.3636L39.756 15.8526C40.795 16.1051 41.5511 16.9991 41.6291 18.0646C41.7061 19.1308 41.0867 20.1243 40.0958 20.5242C39.105 20.9242 37.9683 20.6382 37.2852 19.8165L35.749 20.3902C35.6952 20.5852 35.6169 20.7723 35.5159 20.9482L37.0373 23.1635C38.2821 23.4257 39.1223 24.5928 38.9755 25.8567C38.8271 27.1216 37.7414 28.0648 36.4699 28.0343ZM26.3137 5.61792C26.3031 6.0713 25.9271 6.43029 25.4737 6.41974C25.0203 6.40919 24.6613 6.0331 24.6718 5.57972C24.6824 5.12633 25.0585 4.76734 25.5119 4.77789C25.9653 4.78844 26.3242 5.16453 26.3137 5.61792ZM22.6545 10.1364L24.2022 7.68785C23.752 7.41206 23.4026 6.99985 23.2037 6.51142L20.5175 6.98359C20.5181 7.00552 20.5206 7.02686 20.5232 7.0482L20.5232 7.04821C20.5264 7.07483 20.5295 7.10146 20.5289 7.12928C20.5165 7.5914 20.3738 8.04069 20.1168 8.42405L22.6545 10.1364ZM29.4063 13.9035C29.8597 13.9141 30.2358 13.5551 30.2463 13.1017C30.2569 12.6483 29.8979 12.2722 29.4445 12.2617C28.9911 12.2511 28.615 12.6101 28.6045 13.0635C28.5939 13.5169 28.9529 13.893 29.4063 13.9035ZM25.1888 12.1659L27.1336 12.2111C27.305 11.7625 27.604 11.3736 27.9941 11.0936L25.587 8.57188L24.1493 10.8473C24.6391 11.151 25.0077 11.6179 25.1888 12.1659ZM20.5662 12.0584L16.9796 11.9749C16.8116 11.4626 16.4811 11.0187 16.0382 10.7128L17.1199 9.33996C17.6149 9.55766 18.1719 9.59443 18.6912 9.44303L21.1883 11.1282C20.9121 11.3863 20.6993 11.705 20.5662 12.0584ZM18.0472 7.88959C18.5005 7.90014 18.8766 7.54115 18.8872 7.08777C18.8977 6.63438 18.5387 6.25829 18.0854 6.24774C17.632 6.23719 17.2559 6.59618 17.2453 7.04956C17.2348 7.50295 17.5938 7.87904 18.0472 7.88959ZM23.6791 12.9488C23.6685 13.4022 23.2924 13.7612 22.839 13.7507C22.3856 13.7401 22.0267 13.364 22.0372 12.9106C22.0478 12.4573 22.4238 12.0983 22.8772 12.1088C23.3306 12.1194 23.6896 12.4955 23.6791 12.9488ZM38.3988 18.5259C38.3996 18.5278 38.4001 18.5299 38.4004 18.5319C38.4007 18.5341 38.4008 18.5363 38.4009 18.5384C38.4011 18.542 38.4013 18.5456 38.4024 18.549C38.5626 18.9363 38.9891 19.1409 39.391 19.0212C39.7929 18.9016 40.0397 18.4983 39.9622 18.0859C39.8847 17.6735 39.5078 17.3871 39.0906 17.4217C38.6725 17.4563 38.3491 17.8019 38.341 18.2206C38.3403 18.3216 38.3577 18.4223 38.394 18.5168L38.3988 18.5259ZM36.5192 12.3622C36.5159 12.3619 36.5126 12.3615 36.5093 12.3604C36.1249 12.1822 35.938 11.7426 36.0763 11.3425C36.2146 10.9425 36.6331 10.7123 37.0456 10.809C37.4582 10.9056 37.73 11.2989 37.675 11.7189C37.6208 12.1382 37.2572 12.4492 36.8336 12.4369C36.7318 12.433 36.6322 12.411 36.5386 12.3701L36.5314 12.365C36.5298 12.3643 36.5282 12.3637 36.5266 12.3634C36.5241 12.3628 36.5217 12.3625 36.5192 12.3622ZM32.0028 8.2143C32.4562 8.22485 32.8323 7.86586 32.8428 7.41247C32.8534 6.95909 32.4944 6.58299 32.041 6.57244C31.5876 6.5619 31.2115 6.92089 31.201 7.37427C31.1904 7.82766 31.5494 8.20375 32.0028 8.2143ZM34.4006 11.7043L31.7143 12.1765C31.3975 11.388 30.6962 10.8189 29.8603 10.6689L26.9248 7.59357C27.2639 7.3517 27.5368 7.02704 27.7172 6.65097L29.5813 7.16322C29.5789 7.18597 29.5752 7.20832 29.5716 7.23064L29.5716 7.23067C29.5658 7.26623 29.56 7.3017 29.5592 7.33851C29.5292 8.69798 30.6052 9.82534 31.9646 9.85858C32.4055 9.86722 32.8393 9.75581 33.2214 9.53632L34.5699 10.7103C34.4594 10.9804 34.3984 11.2673 34.3892 11.5586C34.3886 11.5865 34.3917 11.6131 34.3949 11.6397C34.3974 11.661 34.4 11.6824 34.4006 11.7043ZM33.6977 18.9989L33.6905 18.9937C33.5969 18.9529 33.4972 18.9309 33.3955 18.9269C32.9719 18.9147 32.6083 19.2248 32.5525 19.6449C32.4975 20.065 32.7693 20.4582 33.1818 20.5557C33.5943 20.6532 34.0129 20.4223 34.1519 20.0222C34.291 19.6222 34.1042 19.1817 33.7198 19.0027C33.7172 19.0019 33.7142 19.0017 33.7112 19.0015C33.7067 19.0012 33.7021 19.0009 33.6977 18.9989ZM33.5833 17.1753L30.9738 14.9864C31.3414 14.687 31.6143 14.2875 31.7596 13.8351L35.0272 13.2606C35.0716 13.3101 35.12 13.3546 35.1688 13.3996L35.1886 13.4179L33.5833 17.1753ZM33.3199 22.2115C32.3323 22.1877 31.4538 21.5759 31.0882 20.6581L28.3039 21.1478C28.1932 21.4951 28.0058 21.8136 27.7557 22.0796L30.3847 26.2887C31.3344 26.1384 32.2803 26.576 32.7794 27.3974L34.1909 26.3223C34.1033 26.0623 34.0604 25.7894 34.0635 25.5152C34.0846 24.6755 34.533 23.904 35.2527 23.4705L34.2724 22.0432C33.9699 22.1618 33.6458 22.2191 33.3199 22.2115ZM31.8295 17.8482C31.4612 18.1477 31.1883 18.5471 31.043 18.9988L28.2587 19.4892C28.1507 19.2239 27.9979 18.9797 27.8057 18.7674L29.5794 15.961L31.8295 17.8482ZM36.7028 18.2369L36.7028 18.2369C36.7007 18.2192 36.6986 18.2015 36.699 18.1834C36.7232 17.2846 37.2366 16.4702 38.0379 16.0618L37.0899 14.0561C36.9918 14.0694 36.8931 14.0777 36.7937 14.0787C36.7754 14.0783 36.7576 14.0754 36.7399 14.0724L36.7399 14.0724C36.7257 14.0701 36.7116 14.0677 36.6971 14.0666L35.0396 17.9468C35.2696 18.1591 35.4576 18.414 35.5922 18.6964L36.7066 18.2805C36.7062 18.2658 36.7045 18.2515 36.7028 18.2372L36.7028 18.2372L36.7028 18.2371L36.7028 18.2371L36.7028 18.2371L36.7028 18.237L36.7028 18.237L36.7028 18.237L36.7028 18.2369ZM31.5253 28.7374C31.5147 29.1908 31.1386 29.5498 30.6853 29.5393C30.2319 29.5287 29.8729 29.1526 29.8834 28.6992C29.894 28.2458 30.2701 27.8868 30.7235 27.8974C31.1768 27.9079 31.5358 28.284 31.5253 28.7374ZM15.4698 12.7578C15.4592 13.2112 15.0831 13.5702 14.6297 13.5596C14.1764 13.5491 13.8174 13.173 13.8279 12.7196C13.8385 12.2662 14.2146 11.9072 14.6679 11.9178C15.1213 11.9283 15.4803 12.3044 15.4698 12.7578ZM36.5082 26.3892C36.9615 26.3998 37.3376 26.0408 37.3482 25.5874C37.3587 25.134 36.9997 24.7579 36.5464 24.7474C36.093 24.7368 35.7169 25.0958 35.7063 25.5492C35.6958 26.0026 36.0548 26.3787 36.5082 26.3892ZM26.7908 20.4136C26.7803 20.867 26.4042 21.2259 25.9508 21.2154C25.4974 21.2048 25.1384 20.8288 25.149 20.3754C25.1595 19.922 25.5356 19.563 25.989 19.5735C26.4424 19.5841 26.8014 19.9602 26.7908 20.4136ZM20.5272 13.7002L16.9406 13.6168C16.715 14.2045 16.2727 14.6838 15.7045 14.9556L16.7592 17.7431C16.7877 17.7412 16.8158 17.738 16.8438 17.7349C16.8943 17.7292 16.9447 17.7236 16.9969 17.7248C17.1538 17.7293 17.3093 17.7486 17.4629 17.7833L21.2446 14.7781C20.913 14.4895 20.6654 14.1165 20.5272 13.7002ZM17.7607 20.2034C17.7501 20.6568 17.374 21.0157 16.9206 21.0052C16.4673 20.9946 16.1083 20.6186 16.1188 20.1652C16.1294 19.7118 16.5055 19.3528 16.9588 19.3633C17.4122 19.3739 17.7712 19.75 17.7607 20.2034ZM18.9112 18.7297C19.0664 18.9395 19.1884 19.1723 19.2696 19.4205L23.6771 19.5231C23.8145 19.1608 24.0356 18.8357 24.3226 18.5746L23.0217 15.4634L18.9112 18.7297ZM26.3621 17.9765C26.2517 17.955 26.1395 17.9409 26.0271 17.935C25.989 17.9341 25.9519 17.9384 25.9146 17.9426C25.8901 17.9454 25.8655 17.9483 25.8405 17.9496L24.5045 14.7563C24.7914 14.4952 25.0125 14.1702 25.1499 13.8078L27.0946 13.8531C27.2758 14.401 27.6443 14.868 28.135 15.1718L26.3621 17.9765Z" fill="#F0F0F0"/>
</g>
</svg>
