<svg width="48" height="48" viewBox="0 0 48 48" fill="none" xmlns="http://www.w3.org/2000/svg">
<mask id="mask0" mask-type="alpha" maskUnits="userSpaceOnUse" x="0" y="0" width="48" height="48">
<rect width="48" height="48" fill="#C4C4C4"/>
</mask>
<g mask="url(#mask0)">
<path fill-rule="evenodd" clip-rule="evenodd" d="M31.4767 3.26131C31.1465 2.59256 30.5624 2.27089 29.9191 2H8.88313C7.31707 2.69414 6.79223 3.57452 7.07158 5.08132H31.7306C31.773 4.44644 31.756 3.83694 31.4767 3.26131ZM31.3391 25.2428C31.4598 25.3591 31.5838 25.4785 31.7137 25.6009C31.7137 19.2351 31.7137 12.954 31.7306 6.67281H7.06312V39.0944H7.42712H27.8197C27.8397 39.0944 27.8607 39.0973 27.8813 39.1002L27.8813 39.1002H27.8814H27.8814H27.8815H27.8815H27.8815C27.922 39.1058 27.961 39.1112 27.989 39.0944C28.0084 39.0839 28.0296 39.0733 28.0514 39.0624C28.1345 39.021 28.2264 38.9752 28.2599 38.9082C28.8101 37.7146 29.3519 36.5125 29.9445 35.192C29.937 35.1875 29.9264 35.1817 29.9134 35.1746L29.9132 35.1745C29.8523 35.1413 29.7388 35.0794 29.6482 34.9888C29.3038 34.6463 28.959 34.3042 28.6142 33.9621C27.4082 32.7656 26.2027 31.5697 25.0177 30.3584C23.4517 28.7584 23.4348 26.3374 24.9416 24.7206C26.3299 23.2222 28.8609 23.0952 30.4947 24.4666C30.7811 24.7053 31.0507 24.965 31.339 25.2427L31.3391 25.2428ZM30.173 17.5336V19.015C30.173 19.2603 30.1752 19.5056 30.1773 19.7508L30.1773 19.7515L30.1773 19.7522C30.1794 19.9974 30.1815 20.2427 30.1815 20.488C30.1646 21.343 29.6313 21.9948 28.7763 22.0371C27.6674 22.0964 26.5499 22.0964 25.441 22.0456C24.5945 22.0032 24.0358 21.3937 24.0104 20.5557C23.9765 19.5145 23.9765 18.4733 24.0104 17.432C24.0443 16.5263 24.6791 15.9337 25.6018 15.9252C26.6007 15.9168 27.5996 15.9083 28.5985 15.9252C29.5466 15.9422 30.1646 16.5771 30.173 17.5336ZM16.2967 27.2009C16.2977 27.0316 16.2986 26.8622 16.2986 26.6929C16.2986 26.5296 16.2977 26.3663 16.2967 26.2026V26.2025V26.2025V26.2024V26.2024V26.2023V26.2022V26.2022V26.2021V26.2021V26.202V26.202V26.2019C16.2949 25.8739 16.293 25.5446 16.2986 25.2115C16.3156 24.3058 16.9081 23.6624 17.8224 23.637C18.8466 23.6116 19.8794 23.6116 20.9037 23.637C21.7587 23.6624 22.3766 24.2211 22.4189 25.0846C22.4697 26.185 22.4697 27.2855 22.4189 28.3775C22.3682 29.2579 21.7248 29.7997 20.8444 29.8081C19.8625 29.8166 18.872 29.8166 17.8901 29.8081C16.942 29.7997 16.3156 29.1732 16.2986 28.2167C16.293 27.8781 16.2949 27.5395 16.2967 27.2009ZM13.0819 14.3507H11.6428C11.1603 14.3507 10.6862 14.3507 10.2037 14.3592C9.2556 14.3507 8.61224 13.792 8.56992 12.8524C8.52759 11.8112 8.52759 10.77 8.56992 9.72874C8.60378 8.80603 9.22174 8.22193 10.1529 8.19654C11.1518 8.17114 12.1507 8.17114 13.1496 8.19654C14.1315 8.22193 14.7156 8.86529 14.7241 9.85571C14.7326 10.8123 14.7326 11.7688 14.7241 12.7254C14.7156 13.7243 14.0892 14.3423 13.0819 14.3507ZM19.8951 14.3441H19.8949H19.8948H19.8947H19.8946H19.8945H19.8944H19.8943H19.8942H19.894H19.8939H19.8938H19.8937C19.7201 14.3432 19.5463 14.3423 19.3715 14.3423C19.1968 14.3423 19.023 14.3432 18.8498 14.3441H18.8496H18.8494H18.8492H18.849H18.8488H18.8486H18.8484H18.8481H18.8479H18.8477H18.8475H18.8473C18.5011 14.346 18.1575 14.3479 17.8139 14.3423C16.9589 14.3253 16.324 13.6989 16.3071 12.8439C16.2902 11.7858 16.2902 10.7361 16.3071 9.67794C16.3156 8.91608 16.815 8.28119 17.5769 8.23886C18.7705 8.17114 19.964 8.17961 21.1576 8.23886C21.8772 8.27273 22.3851 8.82296 22.4105 9.55097C22.4613 10.7022 22.4613 11.8535 22.4105 13.0048C22.3766 13.792 21.7248 14.3253 20.9375 14.3423C20.588 14.3479 20.2422 14.346 19.8952 14.3441H19.8952H19.8952H19.8952H19.8952H19.8951H19.8951H19.8951H19.8951H19.8951H19.8951H19.8951H19.8951ZM28.5393 14.3507H27.1002H25.6188C24.6876 14.3423 24.0358 13.7497 24.0104 12.8185C23.985 11.7942 23.985 10.7615 24.0104 9.7372C24.0358 8.83143 24.6622 8.22193 25.5849 8.19654C26.5838 8.17114 27.5827 8.17114 28.5816 8.19654C29.5635 8.22193 30.1646 8.86529 30.173 9.84725C30.1815 10.8038 30.1815 11.7604 30.173 12.7169C30.173 13.7158 29.5382 14.3423 28.5393 14.3507ZM11.17 15.9234H11.17H11.17H11.1701H11.1701H11.1701H11.1702H11.1702H11.1702H11.1703H11.1703H11.1703H11.1704C11.3301 15.9243 11.4902 15.9252 11.6512 15.9252C11.8227 15.9252 11.9952 15.9243 12.1682 15.9234H12.1683C12.5163 15.9215 12.8668 15.9196 13.2173 15.9252C14.0977 15.9506 14.7156 16.5771 14.7241 17.4659C14.7326 18.4817 14.7326 19.4891 14.7241 20.5049C14.7156 21.3684 14.1739 22.0032 13.3104 22.0456C12.2099 22.1048 11.1095 22.1048 10.0175 22.054C9.12862 22.0202 8.58685 21.4107 8.56145 20.5049C8.53606 19.506 8.53606 18.5071 8.56145 17.5082C8.58685 16.5178 9.21327 15.9337 10.2122 15.9252C10.5335 15.9196 10.8511 15.9215 11.17 15.9234ZM14.7241 25.2793V26.7183C14.7156 27.2178 14.7241 27.7088 14.7326 28.1913C14.7241 29.1648 14.0892 29.7912 13.1073 29.7997C12.1507 29.8081 11.1941 29.8081 10.2376 29.7997C9.26406 29.7912 8.61224 29.2156 8.57838 28.259C8.54452 27.2347 8.54452 26.202 8.57838 25.1777C8.61224 24.238 9.24713 23.6455 10.1868 23.6286C11.1518 23.6116 12.1253 23.6116 13.0988 23.6286C14.0977 23.6455 14.7156 24.2804 14.7241 25.2793ZM12.0862 37.5227C11.9379 37.5213 11.79 37.5199 11.6428 37.5199C11.4735 37.5199 11.3051 37.5218 11.1367 37.5237H11.1365C10.7999 37.5274 10.4632 37.5312 10.119 37.5199C9.20481 37.486 8.59531 36.9358 8.56145 36.0216C8.51913 34.9803 8.52759 33.9391 8.56145 32.8979C8.59531 31.9667 9.21327 31.3996 10.1444 31.3827C11.1433 31.3657 12.1422 31.3657 13.1411 31.3827C14.1146 31.3996 14.7072 32.0175 14.7156 32.9826C14.7241 33.9645 14.7241 34.955 14.7156 35.9369C14.7072 36.8512 14.1146 37.4776 13.2004 37.5114C12.8316 37.5296 12.4585 37.5261 12.0873 37.5227H12.0872H12.0871H12.087H12.0869H12.0868H12.0867H12.0866H12.0865H12.0864H12.0864H12.0863H12.0862ZM16.2967 19.4975C16.2977 19.3141 16.2986 19.1307 16.2986 18.9473C16.3037 18.631 16.2996 18.3178 16.2955 18.0077C16.2928 17.8032 16.2902 17.6 16.2902 17.3982C16.3156 16.5855 16.925 15.9676 17.7462 15.9506C18.8128 15.9337 19.8879 15.9337 20.9545 15.9506C21.7333 15.9591 22.3597 16.5009 22.3935 17.2712C22.4443 18.4309 22.4443 19.5991 22.3935 20.7673C22.3682 21.4699 21.8179 22.0202 21.1068 22.0456C19.9471 22.0964 18.7789 22.0964 17.6107 22.0456C16.8489 22.0117 16.324 21.3768 16.2986 20.598C16.293 20.2312 16.2949 19.8644 16.2967 19.4975ZM19.8427 37.5142C19.6824 37.5128 19.5223 37.5114 19.363 37.5114C19.1837 37.5114 19.0034 37.5133 18.8219 37.5152C18.4551 37.5189 18.0832 37.5228 17.7038 37.5114C16.8996 37.4691 16.3071 36.8596 16.2902 36.0639C16.2732 34.9973 16.2732 33.9222 16.2902 32.8556C16.2986 32.0514 16.8912 31.425 17.6869 31.3996C18.7958 31.3657 19.9133 31.3742 21.0222 31.3996C21.7587 31.4165 22.3597 31.9583 22.3935 32.6948C22.4443 33.8714 22.4443 35.0565 22.3935 36.2332C22.3682 36.9443 21.7587 37.4691 21.0476 37.503C20.6482 37.5211 20.2445 37.5177 19.8427 37.5142ZM37.7404 33.0306L37.7407 33.0303L37.7408 33.0302C37.9684 32.7955 38.1824 32.5749 38.4097 32.3477C38.371 32.3091 38.3324 32.266 38.2925 32.2217L38.2925 32.2216C38.2363 32.1591 38.1777 32.0939 38.1134 32.0345C37.7305 31.6516 37.3471 31.2687 36.9636 30.8857C35.8123 29.736 34.6598 28.5851 33.5168 27.4294C33.3898 27.3025 33.2798 27.0993 33.2798 26.93C33.2671 24.8726 33.2687 22.8105 33.2702 20.7508V20.75V20.7492V20.7485V20.7477V20.7469V20.7461V20.7453V20.7445V20.7437V20.7429V20.7421C33.2708 20.0589 33.2713 19.3759 33.2713 18.6934C33.2713 18.6426 33.2798 18.5833 33.2967 18.4649L33.2967 18.4648C33.3588 18.5153 33.4138 18.5586 33.4649 18.5989L33.465 18.599C33.5253 18.6465 33.5803 18.6899 33.6353 18.7357C34.3831 19.4254 35.1323 20.1138 35.8812 20.8019C36.9888 21.8197 38.0959 22.8369 39.1969 23.8571C40.3397 24.9237 40.9831 26.2358 40.9915 27.8104C41 33.5582 41 39.3061 41 45.0455C41 45.0746 40.9944 45.1066 40.988 45.143C40.9833 45.17 40.9782 45.1993 40.9746 45.2317H28.5816C28.6151 44.9396 28.6452 44.6481 28.6753 44.3577L28.6753 44.3576L28.6753 44.3576L28.6753 44.3575L28.6753 44.3575L28.6753 44.3575L28.6753 44.3574L28.6753 44.3574L28.6754 44.3559L28.6756 44.3542L28.6758 44.3525L28.6758 44.3524L28.6758 44.3524C28.7517 43.618 28.8269 42.8904 28.9541 42.1758C29.3519 39.9071 30.2069 37.8077 31.4513 35.8692C31.8576 35.2343 31.8238 34.9973 31.2904 34.464C30.8692 34.0427 30.4479 33.622 30.0268 33.2014C28.7639 31.9401 27.5022 30.6799 26.2452 29.4103C25.314 28.4791 25.1109 27.3109 25.6696 26.2951C26.4145 24.9407 28.243 24.5767 29.4535 25.5586C29.6482 25.7195 29.8344 25.8972 30.0122 26.075C30.7845 26.8473 31.5577 27.6195 32.3312 28.3921L32.3321 28.393L32.3331 28.394L32.334 28.3949L32.3349 28.3959L32.3359 28.3968L32.3368 28.3978L32.3378 28.3987L32.3387 28.3996L32.3397 28.4006L32.3406 28.4015L32.3416 28.4025C33.8963 29.9553 35.4522 31.5094 37.0044 33.0672C37.0467 33.121 37.0872 33.1765 37.1307 33.2361L37.1307 33.2362L37.1308 33.2362L37.1308 33.2363C37.1832 33.3081 37.2399 33.3858 37.3092 33.4736C37.4617 33.3178 37.6035 33.1717 37.7404 33.0306ZM27.6335 40.6434H7.01233C7.01233 40.8905 7.01138 41.1347 7.01043 41.3774C7.00855 41.858 7.0067 42.3324 7.01233 42.8105C7.02926 44.3343 7.97736 45.2654 9.50956 45.2654H26.6515H27.0155C27.2269 43.6759 27.4298 42.1623 27.6328 40.6489L27.6328 40.6484L27.6335 40.6434ZM20.108 43.6824H18.6181V42.2095H20.108V43.6824ZM28.6154 20.5303H25.5511V17.4829H28.6154V20.5303ZM17.8393 25.1946V28.2421H20.8952V25.1946H17.8393ZM13.1665 12.8016H10.1106V9.74569H13.1665V12.8016ZM20.8952 9.72877H17.8562V12.7847H20.8952V9.72877ZM28.6239 9.74569V12.7932H25.568V9.74569H28.6239ZM10.119 20.5303H13.1665V17.4744H10.119V20.5303ZM13.1496 28.259H10.1106V25.1946H13.1496V28.259ZM10.119 35.9792H13.1665V32.9317H10.119V35.9792ZM17.8393 20.5557V17.4829H20.9291V18.4733V20.2425C20.9291 20.4372 20.9037 20.5642 20.6582 20.5642C19.7355 20.5557 18.8128 20.5557 17.8393 20.5557ZM17.8562 35.9793H20.9037V32.9234H17.8562V35.9793Z" fill="white"/>
</g>
</svg>
