<svg width="48" height="48" viewBox="0 0 48 48" fill="none" xmlns="http://www.w3.org/2000/svg">
<mask id="mask0" mask-type="alpha" maskUnits="userSpaceOnUse" x="0" y="0" width="48" height="48">
<rect width="48" height="48" fill="#C4C4C4"/>
</mask>
<g mask="url(#mask0)">
<path fill-rule="evenodd" clip-rule="evenodd" d="M43.4141 11.1817C43.6094 11.1781 43.8047 11.1745 44 11.1718C44 9.44784 44 7.72392 44.008 6H8.7872V11.196H9.37315H42.2422C42.6328 11.196 43.0234 11.1888 43.4141 11.1817ZM13.7712 9.15749L13.7711 9.15749C13.6513 9.15698 13.5312 9.15647 13.4105 9.15647C13.2999 9.15647 13.1898 9.15698 13.08 9.15749H13.08H13.0799C12.7514 9.15901 12.425 9.16051 12.0942 9.14838C11.7089 9.14838 11.4601 8.88939 11.444 8.49281C11.428 8.1205 11.6688 7.78058 12.038 7.77248C13.0092 7.7482 13.9804 7.7482 14.9516 7.76439C15.2647 7.77248 15.4894 8.09622 15.4894 8.45234C15.4894 8.81655 15.2165 9.13219 14.8473 9.14838C14.4864 9.16051 14.1299 9.15901 13.7712 9.15749ZM19.7757 9.15749C19.6553 9.15698 19.5349 9.15647 19.4145 9.15647C19.2726 9.15647 19.13 9.15737 18.9873 9.15827C18.7019 9.16007 18.4165 9.16187 18.1382 9.15647C17.7529 9.14838 17.5282 8.92986 17.4881 8.54137C17.4479 8.15288 17.6727 7.78867 18.0339 7.78058C19.0372 7.7563 20.0325 7.75629 21.0358 7.77248C21.3328 7.78058 21.5335 8.13669 21.5094 8.50899C21.4853 8.86511 21.2285 9.13219 20.8592 9.14838C20.498 9.16052 20.1369 9.159 19.7757 9.15749ZM44 36.286V12.6205H27.4732H9.29288H8.7872V36.2617H9.33301H43.4462C43.5692 36.2617 43.6923 36.2689 43.8154 36.2761C43.8769 36.2797 43.9385 36.2833 44 36.286ZM29.8651 16.3435C28.035 21.5638 26.2291 26.7356 24.4231 31.9235H24.4227C23.9091 31.9235 23.4437 31.9235 22.9221 31.9154C23.003 31.6856 23.0788 31.4608 23.1535 31.2395L23.1535 31.2393C23.2418 30.9777 23.3284 30.721 23.4197 30.4667C23.9548 28.9399 24.4907 27.413 25.0267 25.8862C26.0987 22.8321 27.1708 19.778 28.2357 16.7239C28.3401 16.4083 28.4926 16.3111 28.8056 16.3354C29.0326 16.3577 29.2634 16.3531 29.5139 16.3481C29.6265 16.3458 29.7431 16.3435 29.8651 16.3435ZM21.8041 20.6521L21.8042 20.6521C21.865 20.6298 21.9311 20.6056 22.0071 20.5764C22.1515 21.0054 22.28 21.3777 22.4325 21.7824C21.3479 22.2253 20.2737 22.6657 19.1876 23.111L19.1875 23.111L19.1873 23.1111L19.1862 23.1115C18.3679 23.447 17.5428 23.7853 16.7015 24.1295C18.6519 24.9307 20.5221 25.6996 22.4244 26.4847C22.3234 26.7965 22.2267 27.0816 22.1279 27.373L22.1278 27.3731L22.1278 27.3731C22.0933 27.475 22.0585 27.5777 22.0231 27.6825C21.969 27.6643 21.9171 27.6484 21.8671 27.6331L21.8665 27.6329L21.8663 27.6328L21.8663 27.6328L21.8662 27.6328C21.783 27.6073 21.7048 27.5833 21.6298 27.553L21.6286 27.5525C19.5421 26.6705 17.4556 25.7885 15.369 24.9145C15.1122 24.8093 15.0399 24.6798 15.0399 24.4128L15.0397 24.3874C15.0318 23.5143 15.0318 23.511 15.8587 23.1583C16.8139 22.7535 17.7712 22.3488 18.7284 21.9441L18.7316 21.9428L18.7321 21.9426C19.688 21.5384 20.6438 21.1343 21.5977 20.7302C21.6638 20.7035 21.73 20.6793 21.8041 20.6521ZM31.2136 27.5369C31.0771 27.5935 30.9487 27.6421 30.7641 27.7068L30.6854 27.4739L30.6854 27.4739L30.6854 27.4738C30.5721 27.1386 30.4674 26.8291 30.3628 26.4928C31.7149 25.9429 33.0509 25.3929 34.4078 24.8344L34.4125 24.8325L34.422 24.8285C34.9776 24.5999 35.5367 24.3697 36.1018 24.1376C35.1012 23.7282 34.1258 23.3273 33.1551 22.9284C32.2259 22.5464 31.3011 22.1663 30.3628 21.7824C30.4264 21.5859 30.492 21.3934 30.5586 21.1979L30.5586 21.1979L30.5587 21.1976C30.6265 20.9987 30.6953 20.7968 30.7641 20.5845C30.8339 20.6104 30.897 20.6313 30.9564 20.6509L30.9565 20.6509L30.9565 20.651L30.9566 20.651C31.0269 20.6742 31.0922 20.6958 31.1574 20.7221C33.2443 21.6043 35.3312 22.4865 37.4182 23.3606C37.675 23.4658 37.7473 23.6034 37.7473 23.8705L37.747 23.8965C37.7393 24.777 37.7393 24.7803 36.9205 25.125C35.9693 25.5256 35.0181 25.9283 34.0669 26.331C33.1158 26.7336 32.1647 27.1362 31.2136 27.5369ZM3 42V18.4073H7.32635C7.32898 18.4736 7.33247 18.5399 7.33597 18.6065C7.34317 18.7431 7.35043 18.8809 7.35043 19.0225C7.35043 20.8762 7.34954 22.7299 7.34865 24.5833V24.5835C7.34686 28.2893 7.34508 31.994 7.35043 35.6951C7.35043 35.9865 7.37451 36.294 7.47083 36.5692C7.68755 37.2248 8.28955 37.6295 8.96378 37.6295C16.3081 37.6457 23.6445 37.6538 30.9888 37.6618H37.8757H38.2048V41.9919C26.4859 42 14.759 42 3 42ZM3.00803 11.7869V16.9586H7.31832V11.7869H3.00803Z" fill="#F0F0F0"/>
</g>
</svg>
