<svg width="48" height="48" viewBox="0 0 48 48" fill="none" xmlns="http://www.w3.org/2000/svg">
<path fill-rule="evenodd" clip-rule="evenodd" d="M46.7581 40.7987L39.0569 33.1288C38.5075 32.5816 37.6187 32.5824 37.0702 33.1308L36.0938 34.1073L34.7205 32.7339C37.7348 29.2612 39.5616 24.731 39.5616 19.7821C39.5617 8.87419 30.688 0 19.7809 0C8.87372 0 0 8.87419 0 19.7821C0 30.69 8.87362 39.5642 19.7809 39.5642C24.7295 39.5642 29.2594 37.7374 32.732 34.7228L34.1052 36.0961L33.1129 37.0884C32.5642 37.6372 32.5637 38.5282 33.1129 39.0773L40.8023 46.7672C42.4461 48.4109 45.1206 48.411 46.7643 46.7672C48.4142 45.1172 48.4117 42.4457 46.7581 40.7987ZM28.6315 29.7641L26.7026 28.6503C25.878 29.2937 24.9652 29.8217 23.9995 30.2136V32.4389C23.9995 33.2156 23.3699 33.8452 22.5933 33.8452H16.9684C16.1917 33.8452 15.5621 33.2156 15.5621 32.4389V30.2136C14.5964 29.8217 13.6836 29.2937 12.859 28.6503L10.9301 29.7641C10.258 30.1523 9.39741 29.922 9.00909 29.2494L6.19669 24.378C5.80837 23.7054 6.03872 22.8454 6.71128 22.457L8.63888 21.3437C8.50003 20.3449 8.49019 19.2896 8.63888 18.2205L6.71128 17.1072C6.03872 16.7188 5.80837 15.8588 6.19669 15.1862L9.00909 10.3148C9.39713 9.64275 10.2572 9.41156 10.9301 9.80006L12.859 10.9139C13.6837 10.2705 14.5965 9.7425 15.5621 9.35063V7.12528C15.5621 6.34856 16.1917 5.71894 16.9684 5.71894H22.5933C23.3699 5.71894 23.9995 6.34856 23.9995 7.12528V9.35063C24.9653 9.7425 25.8781 10.2705 26.7026 10.9139L28.6315 9.80006C29.3021 9.41297 30.1634 9.64069 30.5526 10.3148L33.365 15.1862C33.7533 15.8587 33.5229 16.7188 32.8504 17.1072L30.9228 18.2205C31.0616 19.2193 31.0715 20.2746 30.9228 21.3437L32.8504 22.457C33.5229 22.8454 33.7533 23.7053 33.365 24.378L30.5526 29.2494C30.1644 29.9215 29.3042 30.1523 28.6315 29.7641ZM19.7809 22.1259C21.0753 22.1259 22.1246 21.0765 22.1246 19.7821C22.1246 18.4877 21.0753 17.4384 19.7809 17.4384C18.4865 17.4384 17.4371 18.4877 17.4371 19.7821C17.4371 21.0765 18.4865 22.1259 19.7809 22.1259ZM30.2262 15.3748L28.655 16.2823C28.1165 16.5933 27.8462 17.2209 27.9902 17.8259C28.2992 19.1243 28.2891 20.4827 27.9902 21.7384C27.8462 22.3433 28.1165 22.971 28.655 23.282L30.2262 24.1895L28.82 26.6253L27.2469 25.7168C26.7084 25.4059 26.0293 25.4856 25.5775 25.913C24.6182 26.8202 23.4476 27.4972 22.1923 27.8706C21.596 28.0479 21.187 28.5963 21.187 29.2185V31.0327H18.3746V29.2185C18.3746 28.5963 17.9657 28.0479 17.3694 27.8706C16.1139 27.4972 14.9434 26.8203 13.9841 25.913C13.5324 25.4857 12.8533 25.4059 12.3147 25.7168L10.7417 26.6253L9.33545 24.1895L10.9067 23.282C11.4452 22.971 11.7155 22.3432 11.5715 21.7384C11.2625 20.4399 11.2726 19.0816 11.5715 17.8259C11.7155 17.2209 11.4452 16.5933 10.9067 16.2823L9.33545 15.3748L10.7417 12.939L12.3147 13.8474C12.8533 14.1585 13.5323 14.0787 13.9841 13.6513C14.9435 12.7441 16.114 12.0671 17.3694 11.6937C17.9657 11.5163 18.3746 10.968 18.3746 10.3458V8.53162H21.187V10.3458C21.187 10.968 21.596 11.5163 22.1923 11.6937C23.4477 12.0671 24.6183 12.744 25.5775 13.6513C26.0293 14.0786 26.7083 14.1584 27.2469 13.8474L28.82 12.939L30.2262 15.3748ZM14.6247 19.7821C14.6247 22.6253 16.9377 24.9385 19.7809 24.9385C22.6239 24.9385 24.937 22.6253 24.937 19.7821C24.937 16.9388 22.624 14.6256 19.7809 14.6256C16.9377 14.6256 14.6247 16.9388 14.6247 19.7821Z" fill="#F0F0F0"/>
</svg>
