<svg width="48" height="48" viewBox="0 0 48 48" fill="none" xmlns="http://www.w3.org/2000/svg">
<mask id="mask0" mask-type="alpha" maskUnits="userSpaceOnUse" x="0" y="0" width="48" height="48">
<rect width="48" height="48" fill="#C4C4C4"/>
</mask>
<g mask="url(#mask0)">
<path fill-rule="evenodd" clip-rule="evenodd" d="M2 29.8793V5.077C2.01027 5.06318 2.02191 5.05073 2.03328 5.03856C2.0505 5.02013 2.06712 5.00234 2.0775 4.98141C2.52524 3.64309 3.39491 3 4.76399 3H43.2188C44.9323 3 46 4.0863 46 5.81568V29.3666V29.9141H41.402C29.0544 29.9141 16.7068 29.9141 4.36791 29.9054C3.83739 29.9054 3.30688 29.8976 2.77895 29.8899L2.77854 29.8899C2.51829 29.886 2.25868 29.8822 2 29.8793ZM26.4888 16.0114H26.4897H26.4905C28.0545 16.0134 29.6198 16.0153 31.1812 16.0095C31.9906 16.0095 32.5675 15.4881 32.5933 14.7494C32.6106 14.0107 32.0164 13.4285 31.1984 13.4285C26.5229 13.4198 21.8387 13.4198 17.1632 13.4285C16.3366 13.4285 15.7425 14.002 15.7511 14.7407C15.7597 15.4968 16.3452 16.0095 17.189 16.0095H24.1464C24.9264 16.0095 25.7074 16.0105 26.4888 16.0114ZM20.0305 21.215C20.3609 21.215 20.6904 21.216 21.0195 21.217C21.6767 21.2189 22.3327 21.2208 22.9926 21.215C23.7675 21.2063 24.3358 20.6675 24.3444 19.9462C24.353 19.2597 23.802 18.6514 23.0614 18.6427C21.0638 18.6253 19.0575 18.6253 17.0599 18.6427C16.2935 18.6514 15.7339 19.2597 15.7511 19.9636C15.7769 20.6849 16.3366 21.215 17.1202 21.2237C18.0843 21.215 19.0571 21.215 20.0299 21.215H20.0305ZM16.2849 10.804C16.5806 10.804 16.8762 10.8049 17.1718 10.8059C17.7631 10.8078 18.3543 10.8098 18.9456 10.804C19.7205 10.7953 20.2888 10.2652 20.3061 9.54386C20.3233 8.85732 19.7722 8.24899 19.0317 8.23161C17.2149 8.20554 15.398 8.20554 13.5898 8.23161C12.8493 8.2403 12.2982 8.84863 12.3155 9.54386C12.3327 10.2652 12.9096 10.804 13.6759 10.804H16.2849ZM16.2763 26.4119C16.578 26.4119 16.8787 26.4129 17.1792 26.4138H17.1792C17.7791 26.4157 18.3776 26.4177 18.98 26.4119C19.7205 26.4032 20.2802 25.8731 20.3061 25.1605C20.3319 24.4913 19.8067 23.8569 19.092 23.8482C17.2321 23.8135 15.3722 23.8135 13.5209 23.8482C12.8063 23.8656 12.2896 24.5087 12.3241 25.1779C12.3671 25.8905 12.9268 26.4032 13.6673 26.4119C14.2414 26.4177 14.823 26.4157 15.4047 26.4138C15.6956 26.4128 15.9864 26.4119 16.2763 26.4119ZM29.726 21.2063C30.4235 21.215 31.1295 21.215 31.827 21.215H31.9131C32.645 21.1977 33.1875 20.6936 33.2219 19.9984C33.2564 19.2597 32.7742 18.6601 32.025 18.6427C30.501 18.6079 28.9683 18.6079 27.4356 18.6427C26.6865 18.6601 26.2043 19.2684 26.2301 19.9984C26.2646 20.6849 26.807 21.1977 27.5389 21.2063C28.0207 21.2121 28.5064 21.2102 28.9933 21.2083H28.9935H28.994C29.2378 21.2073 29.4819 21.2063 29.726 21.2063ZM38.0094 16.0095C38.1386 16.0095 38.2677 16.01 38.3969 16.0106C38.7844 16.0122 39.1718 16.0138 39.5593 16.0008C40.2826 15.9834 40.8164 15.4533 40.8423 14.7494C40.8681 14.1063 40.3773 13.4806 39.7057 13.4545C38.5777 13.4024 37.4411 13.4024 36.3131 13.4545C35.6243 13.4893 35.1249 14.1411 35.1765 14.7928C35.2282 15.4707 35.7706 15.9834 36.4595 16.0008C36.847 16.0138 37.2344 16.0122 37.6219 16.0106C37.7511 16.01 37.8802 16.0095 38.0094 16.0095ZM38.0094 21.215C38.1819 21.215 38.3535 21.216 38.5247 21.217C38.8663 21.2189 39.2066 21.2208 39.5507 21.215C40.2654 21.1977 40.8078 20.6675 40.8423 19.9723C40.8681 19.3292 40.3859 18.7035 39.7229 18.6688C38.5863 18.6166 37.4411 18.6166 36.3045 18.6688C35.6329 18.6948 35.1507 19.3379 35.1851 19.9723C35.2196 20.6589 35.7793 21.2063 36.4767 21.215C36.8148 21.2208 37.1528 21.2189 37.4934 21.217C37.6646 21.216 37.8365 21.215 38.0094 21.215ZM8.43209 16.0095C9.13816 16.0095 9.72368 15.4272 9.73229 14.7233C9.7409 14.0368 9.12094 13.4198 8.43209 13.4285C7.73464 13.4371 7.14051 14.0542 7.15773 14.7407C7.17495 15.4272 7.76047 16.0095 8.43209 16.0095ZM8.44932 21.215C9.14677 21.215 9.73229 20.6241 9.73229 19.9289C9.73229 19.2336 9.12955 18.634 8.4407 18.634C7.75186 18.634 7.14912 19.2423 7.15773 19.9289C7.15773 20.6241 7.75186 21.215 8.44932 21.215ZM8.4407 8.22292C7.76908 8.22292 7.17495 8.81386 7.16634 9.49171C7.15773 10.1956 7.74325 10.7953 8.4407 10.804C9.14677 10.8127 9.7409 10.2217 9.7409 9.52648C9.7409 8.83124 9.12955 8.23161 8.4407 8.22292ZM8.4407 26.4206C9.14677 26.4206 9.73229 25.8296 9.73229 25.1344C9.73229 24.4479 9.12094 23.8395 8.43209 23.8482C7.76047 23.8482 7.16634 24.4479 7.15773 25.117C7.15773 25.8122 7.74325 26.4119 8.4407 26.4206ZM2 32.4778C4.21292 32.4778 6.42583 32.48 8.63875 32.4821L8.64457 32.4821C10.8555 32.4843 13.0665 32.4865 15.2775 32.4865H45.6125H45.957C45.957 32.8179 45.9669 33.1467 45.9767 33.4731V33.4732C45.9987 34.1995 46.0202 34.9135 45.9311 35.615C45.7761 36.8404 44.7601 37.6486 43.5288 37.692C42.7794 37.7181 42.0251 37.7148 41.2733 37.7116H41.2725C41.0226 37.7105 40.7729 37.7094 40.5237 37.7094C28.6669 37.7094 16.8102 37.7094 4.95342 37.7181C3.99765 37.7181 3.15382 37.5095 2.5683 36.71C2.4022 36.4825 2.28514 36.2179 2.16926 35.9559L2.16926 35.9559C2.11694 35.8376 2.06486 35.7199 2.00861 35.6063C2 34.5635 2 33.5206 2 32.4778ZM16.2763 40.3077V43.3755C15.2689 43.3755 14.3303 43.3754 13.3746 43.3668C13.1249 43.3668 12.8493 43.3841 12.6168 43.4624C12.0227 43.6709 11.6869 44.2879 11.7988 44.9136C11.9194 45.548 12.4791 45.9826 13.2196 45.9826H34.746C34.7686 45.9826 34.7922 45.9835 34.8161 45.9845C34.8649 45.9864 34.915 45.9884 34.9613 45.9826C35.6673 45.9304 36.2012 45.3742 36.2012 44.679C36.2012 43.9664 35.7104 43.4276 34.9785 43.3841C34.7328 43.3711 34.4823 43.3727 34.2342 43.3744C34.1519 43.3749 34.0698 43.3755 33.9883 43.3755H31.7237V40.3077H16.2763Z" fill="#F0F0F0"/>
</g>
</svg>
