<svg width="44" height="44" viewBox="0 0 44 44" fill="none" xmlns="http://www.w3.org/2000/svg">
<circle cx="22" cy="22" r="22" fill="#F0EFEF"/>
<path d="M15.1663 13C14.0105 13 13.0272 13.4194 12.2163 14.2583C11.4054 15.0971 11 16.1131 11 17.3061C11 18.4992 11.4054 19.5151 12.2163 20.354C13.0272 21.1928 14.0105 21.6122 15.1663 21.6122C16.2102 21.6122 16.8394 22.041 17.0537 22.8985C17.2681 23.756 17.1609 24.7067 16.7322 25.7506C16.3034 26.7945 15.5857 27.7452 14.5791 28.6027C13.5725 29.4602 12.3795 29.8889 11 29.8889V31.9022C13.4793 31.9022 15.5438 30.9189 17.1935 28.9522C18.8433 26.9855 19.9198 24.8232 20.4231 22.4651C20.9264 20.1069 20.782 17.9399 19.9897 15.964C19.1975 13.988 17.5897 13 15.1663 13ZM27.1899 13C26.0341 13 25.0508 13.4194 24.2399 14.2583C23.429 15.0971 23.0236 16.1131 23.0236 17.3061C23.0236 18.4992 23.429 19.5151 24.2399 20.354C25.0508 21.1928 26.0341 21.6122 27.1899 21.6122C28.2338 21.6122 28.8676 22.041 29.0913 22.8985C29.315 23.756 29.2078 24.7067 28.7697 25.7506C28.3317 26.7945 27.614 27.7452 26.6167 28.6027C25.6194 29.4602 24.4217 29.8889 23.0236 29.8889V31.9022C25.5029 31.9022 27.5674 30.9189 29.2171 28.9522C30.8669 26.9855 31.9434 24.8232 32.4467 22.4651C32.95 20.1069 32.8055 17.9399 32.0133 15.964C31.221 13.988 29.6132 13 27.1899 13Z" fill="#C4A481"/>
</svg>
