<svg width="21" height="21" viewBox="0 0 21 21" fill="none" xmlns="http://www.w3.org/2000/svg">
<path fill-rule="evenodd" clip-rule="evenodd" d="M19.8521 13.6856C18.8065 12.64 17.2676 12.2765 15.8732 12.7286L12.8973 9.75268L16.4218 6.22821L18.6634 4.97489C18.7258 4.94003 18.7762 4.8872 18.8082 4.82334L19.8155 2.80878C19.884 2.67166 19.8572 2.50608 19.7488 2.39764L18.4896 1.13846C18.3812 1.03005 18.2155 1.00323 18.0785 1.07177L16.0639 2.07903C16 2.11098 15.9472 2.16143 15.9123 2.22377L14.659 4.46544L11.1346 7.98991L8.30435 5.15979C8.75634 3.76543 8.3929 2.22644 7.34729 1.18083C6.24573 0.0793515 4.59674 -0.265262 3.14594 0.303338C3.03409 0.347143 2.95181 0.444473 2.92728 0.562105C2.90271 0.679697 2.9391 0.80176 3.02404 0.886785L5.28958 3.15224L3.7786 4.66322L1.5131 2.39764C1.42812 2.31273 1.30618 2.27652 1.18843 2.30088C1.07079 2.32545 0.973503 2.40769 0.929658 2.51954C0.36114 3.97018 0.705589 5.61933 1.80715 6.72097C2.85272 7.76654 4.39162 8.13002 5.78607 7.67799L8.61619 10.5081L8.20792 10.9164L7.20062 9.90911C7.11326 9.82187 6.98717 9.78623 6.86696 9.81433C6.74686 9.84267 6.64994 9.93122 6.6109 10.0484L6.14877 11.4349L2.50031 13.638C2.46819 13.6575 2.43932 13.6818 2.41479 13.7102L0.53804 15.885C-0.221733 16.7655 -0.170628 18.1509 0.651941 18.9735L1.91366 20.2353C2.34515 20.6667 2.93151 20.8851 3.51885 20.8851C4.05164 20.8851 4.5853 20.7053 5.00456 20.3419L7.22203 18.4197C7.25041 18.3951 7.27477 18.3661 7.29405 18.3339L9.45283 14.7382L10.8388 14.2762C10.9559 14.2372 11.0444 14.1403 11.0728 14.0202C11.1011 13.9 11.0653 13.7738 10.978 13.6865L9.97073 12.6792L10.379 12.271L13.3548 15.2468C12.9028 16.6411 13.2663 18.1801 14.3119 19.2257C15.0609 19.9747 16.063 20.3736 17.0837 20.3736C17.5642 20.3736 18.049 20.2852 18.5133 20.1032C18.6252 20.0594 18.7074 19.9621 18.732 19.8445C18.7565 19.7269 18.7201 19.6048 18.6352 19.5198L16.3696 17.2542L17.8806 15.7433L20.1461 18.0088C20.231 18.0937 20.3532 18.1301 20.4707 18.1056C20.5884 18.081 20.6857 17.9988 20.7295 17.8869C21.2981 16.4363 20.9536 14.7872 19.8521 13.6856ZM6.13048 7.01505C6.0304 6.91497 5.88061 6.88376 5.74871 6.93532C4.56171 7.40048 3.21218 7.11866 2.31086 6.21734C1.5453 5.45174 1.22665 4.36294 1.43304 3.32488L3.52677 5.41864C3.66593 5.55773 3.8914 5.5576 4.03044 5.41864L6.04504 3.40404C6.18413 3.26491 6.18413 3.03949 6.04504 2.90037L3.95128 0.806641C4.98922 0.600168 6.07806 0.918859 6.8437 1.6845C7.74502 2.58582 8.02688 3.93523 7.56172 5.12235C7.51008 5.25417 7.54138 5.404 7.64145 5.50412L10.6309 8.49354L9.12003 10.0044L6.13048 7.01505ZM9.10268 14.1041L10.067 13.7827L9.21531 12.931L7.95621 11.6719L7.10452 10.8202L6.78312 11.7845C6.75634 11.8649 6.70183 11.933 6.62935 11.9768L2.91699 14.2185L1.07727 16.3503C0.555882 16.9545 0.591074 17.9053 1.15557 18.4698L2.41734 19.7315C2.98163 20.2959 3.93299 20.3283 4.53801 19.8037L6.71262 17.9186L8.90999 14.2586C8.95375 14.1858 9.02208 14.131 9.10268 14.1041ZM9.46714 12.1756L8.71168 11.4201L15.1976 4.93421C15.2208 4.91103 15.2406 4.88478 15.2566 4.85615L16.4805 2.66711L18.1674 1.82371L19.0636 2.71981L18.2201 4.40675L16.0311 5.63065C16.0024 5.64665 15.9762 5.66646 15.953 5.68963L9.46714 12.1756ZM18.1326 14.9879L20.2263 17.0816C20.4327 16.0436 20.1141 14.9548 19.3484 14.1892C18.4471 13.2879 17.0977 13.0062 15.9105 13.4712C15.7789 13.5229 15.6289 13.4916 15.5288 13.3915L12.3936 10.2564L10.8827 11.7673L14.0179 14.9024C14.1179 15.0026 14.1492 15.1524 14.0976 15.2842C13.6324 16.4713 13.9143 17.8207 14.8156 18.7221C15.5811 19.4876 16.6701 19.806 17.708 19.5999L15.6143 17.5062C15.5475 17.4393 15.51 17.3488 15.51 17.2543C15.51 17.1599 15.5475 17.0693 15.6143 17.0025L17.629 14.9879C17.7681 14.8489 17.9936 14.849 18.1326 14.9879Z" fill="#222222"/>
</svg>
