<svg width="22" height="17" viewBox="0 0 22 17" fill="none" xmlns="http://www.w3.org/2000/svg">
<path fill-rule="evenodd" clip-rule="evenodd" d="M16.5 1.57143C16.5 1.04762 16.2381 0.785714 15.7143 0.785714C15.1905 0.785714 14.9286 1.04762 14.9286 1.57143C14.9286 2.09524 15.1905 2.35714 15.7143 2.35714C16.2381 2.35714 16.5 2.09524 16.5 1.57143ZM14.5848 0.441964C14.8795 0.147321 15.256 0 15.7143 0C16.1726 0 16.5491 0.147321 16.8438 0.441964C17.1384 0.736607 17.2857 1.11309 17.2857 1.57143C17.2857 2.02976 17.1384 2.40625 16.8438 2.70089C16.5491 2.99554 16.1726 3.14286 15.7143 3.14286C15.256 3.14286 14.8795 2.99554 14.5848 2.70089C14.2902 2.40625 14.1429 2.02976 14.1429 1.57143C14.1429 1.11309 14.2902 0.736607 14.5848 0.441964ZM16.5 14.9286C16.5 14.4048 16.2381 14.1429 15.7143 14.1429C15.1905 14.1429 14.9286 14.4048 14.9286 14.9286C14.9286 15.4524 15.1905 15.7143 15.7143 15.7143C16.2381 15.7143 16.5 15.4524 16.5 14.9286ZM14.5848 13.7991C14.8795 13.5045 15.256 13.3571 15.7143 13.3571C16.1726 13.3571 16.5491 13.5045 16.8438 13.7991C17.1384 14.0938 17.2857 14.4702 17.2857 14.9286C17.2857 15.3869 17.1384 15.7634 16.8438 16.058C16.5491 16.3527 16.1726 16.5 15.7143 16.5C15.256 16.5 14.8795 16.3527 14.5848 16.058C14.2902 15.7634 14.1429 15.3869 14.1429 14.9286C14.1429 14.4702 14.2902 14.0938 14.5848 13.7991ZM7.07143 8.25C7.07143 7.72619 6.80953 7.46429 6.28571 7.46429C5.7619 7.46429 5.5 7.72619 5.5 8.25C5.5 8.77381 5.7619 9.03571 6.28571 9.03571C6.80953 9.03571 7.07143 8.77381 7.07143 8.25ZM5.15625 7.12054C5.45089 6.82589 5.82738 6.67857 6.28571 6.67857C6.74405 6.67857 7.12054 6.82589 7.41518 7.12054C7.70982 7.41518 7.85714 7.79166 7.85714 8.25C7.85714 8.70833 7.70982 9.08482 7.41518 9.37946C7.12054 9.67411 6.74405 9.82143 6.28571 9.82143C5.82738 9.82143 5.45089 9.67411 5.15625 9.37946C4.86161 9.08482 4.71429 8.70833 4.71429 8.25C4.71429 7.79166 4.86161 7.41518 5.15625 7.12054ZM8.59375 7.85714H22V8.64286H8.59375C8.59375 8.57738 8.60193 8.5119 8.61831 8.44643C8.63467 8.38095 8.64286 8.31548 8.64286 8.25C8.64286 8.18452 8.63467 8.11905 8.61831 8.05357C8.60193 7.9881 8.59375 7.92262 8.59375 7.85714ZM3.92857 8.05357C3.92857 8.11905 3.92857 8.18452 3.92857 8.25C3.92857 8.31548 3.93676 8.38095 3.95312 8.44643C3.96949 8.5119 3.97768 8.57738 3.97768 8.64286H0V7.85714H3.97768C3.97768 7.92262 3.96131 7.9881 3.92857 8.05357ZM18.0223 14.5357H22V15.3214H18.0223C18.0223 15.256 18.0305 15.1905 18.0469 15.125C18.0632 15.0595 18.0714 14.994 18.0714 14.9286C18.0714 14.8631 18.0632 14.7976 18.0469 14.7321C18.0305 14.6667 18.0223 14.6012 18.0223 14.5357ZM13.3571 14.7321C13.3571 14.7976 13.3571 14.8631 13.3571 14.9286C13.3571 14.994 13.3653 15.0595 13.3817 15.125C13.3981 15.1905 13.4062 15.256 13.4062 15.3214H0V14.5357H13.4062C13.4062 14.6012 13.3899 14.6667 13.3571 14.7321ZM18.0223 1.17857H22V1.96429H18.0223C18.0223 1.93155 18.0305 1.87426 18.0469 1.79241C18.0632 1.71057 18.0714 1.6369 18.0714 1.57143C18.0714 1.50595 18.0632 1.44048 18.0469 1.375C18.0305 1.30952 18.0223 1.24405 18.0223 1.17857ZM13.4062 1.17857C13.4062 1.24405 13.3981 1.30952 13.3817 1.375C13.3653 1.44048 13.3571 1.50595 13.3571 1.57143C13.3571 1.6369 13.3653 1.71057 13.3817 1.79241C13.3981 1.87426 13.4062 1.93155 13.4062 1.96429H0V1.17857H13.4062Z" fill="#222222"/>
</svg>
