<svg width="20" height="22" viewBox="0 0 20 22" fill="none" xmlns="http://www.w3.org/2000/svg">
<path fill-rule="evenodd" clip-rule="evenodd" d="M9.53982 0C8.20943 0 6.9683 0.12168 5.81637 0.365046C4.66445 0.608409 3.65045 0.941002 2.77434 1.36283C1.93067 1.75222 1.25738 2.23082 0.754425 2.79867C0.251472 3.36652 0 3.9587 0 4.57522V17.0354C0 17.6519 0.251472 18.2441 0.754425 18.8119C1.25738 19.3798 1.93067 19.8584 2.77434 20.2478C3.65045 20.6696 4.66445 21.0022 5.81637 21.2456C6.9683 21.4889 8.20943 21.6106 9.53982 21.6106C10.8702 21.6106 12.1114 21.4889 13.2633 21.2456C14.4152 21.0022 15.4292 20.6696 16.3053 20.2478C17.149 19.8584 17.8223 19.3798 18.3252 18.8119C18.8282 18.2441 19.0796 17.6519 19.0796 17.0354V4.57522C19.0796 3.9587 18.8282 3.36652 18.3252 2.79867C17.8223 2.23082 17.149 1.75222 16.3053 1.36283C15.4292 0.941002 14.4152 0.608409 13.2633 0.365046C12.1114 0.12168 10.8702 0 9.53982 0ZM9.53982 0.827434C10.8378 0.827434 12.014 0.941002 13.0686 1.16814C14.1232 1.39528 15.0398 1.68731 15.8186 2.04425C16.5973 2.40118 17.1976 2.79867 17.6195 3.23672C18.0413 3.67478 18.2522 4.12094 18.2522 4.57522C18.2522 5.0295 18.0413 5.47566 17.6195 5.91372C17.1976 6.35177 16.5973 6.74926 15.8186 7.10619C15.0398 7.46313 14.1232 7.75516 13.0686 7.9823C12.014 8.20944 10.8378 8.32301 9.53982 8.32301C8.24188 8.32301 7.06564 8.20944 6.01106 7.9823C4.95648 7.75516 4.03983 7.46313 3.26106 7.10619C2.4823 6.74926 1.88201 6.35177 1.46018 5.91372C1.03835 5.47566 0.827434 5.0295 0.827434 4.57522C0.827434 4.12094 1.03835 3.67478 1.46018 3.23672C1.88201 2.79867 2.4823 2.40118 3.26106 2.04425C4.03983 1.68731 4.95648 1.39528 6.01106 1.16814C7.06564 0.941002 8.24188 0.827434 9.53982 0.827434ZM18.2522 16.208V17.0354C18.2522 17.4897 18.0413 17.9358 17.6195 18.3739C17.1976 18.8119 16.5973 19.2094 15.8186 19.5664C15.0398 19.9233 14.1232 20.2153 13.0686 20.4425C12.014 20.6696 10.8378 20.7832 9.53982 20.7832C8.24188 20.7832 7.06564 20.6696 6.01106 20.4425C4.95648 20.2153 4.03983 19.9233 3.26106 19.5664C2.4823 19.2094 1.88201 18.8119 1.46018 18.3739C1.03835 17.9358 0.827434 17.4897 0.827434 17.0354V14.7478C1.18437 15.1372 1.66298 15.5022 2.26327 15.8429C2.86357 16.1836 3.53687 16.4676 4.28319 16.6947C5.0295 16.9218 5.84882 17.1003 6.74115 17.2301C7.63348 17.3599 8.56637 17.4248 9.53982 17.4248C10.5133 17.4248 11.4462 17.3599 12.3385 17.2301C13.2308 17.1003 14.0501 16.9218 14.7965 16.6947C15.5428 16.4676 16.2161 16.1836 16.8164 15.8429C17.4167 15.5022 17.8953 15.1372 18.2522 14.7478V16.208ZM18.2522 12.8982C18.2522 13.3201 18.0413 13.7581 17.6195 14.2124C17.1976 14.6667 16.5973 15.0723 15.8186 15.4292C15.0398 15.7861 14.1232 16.0701 13.0686 16.281C12.014 16.4919 10.8378 16.5973 9.53982 16.5973C8.24188 16.5973 7.06564 16.4919 6.01106 16.281C4.95648 16.0701 4.03983 15.7861 3.26106 15.4292C2.4823 15.0723 1.88201 14.6667 1.46018 14.2124C1.03835 13.7581 0.827434 13.3201 0.827434 12.8982V10.6106C1.18437 11 1.66298 11.3569 2.26327 11.6814C2.86357 12.0059 3.53687 12.2979 4.28319 12.5575C5.0295 12.7847 5.84882 12.9631 6.74115 13.0929C7.63348 13.2227 8.56637 13.2876 9.53982 13.2876C10.5133 13.2876 11.4462 13.2227 12.3385 13.0929C13.2308 12.9631 14.0501 12.7847 14.7965 12.5575C15.5428 12.2979 16.2161 12.0059 16.8164 11.6814C17.4167 11.3569 17.8953 11 18.2522 10.6106V12.8982ZM18.2522 8.71239C18.2522 9.16667 18.0413 9.61283 17.6195 10.0509C17.1976 10.4889 16.5973 10.8864 15.8186 11.2434C15.0398 11.6003 14.1232 11.8923 13.0686 12.1195C12.014 12.3466 10.8378 12.4602 9.53982 12.4602C8.24188 12.4602 7.06564 12.3466 6.01106 12.1195C4.95648 11.8923 4.03983 11.6003 3.26106 11.2434C2.4823 10.8864 1.88201 10.4889 1.46018 10.0509C1.03835 9.61283 0.827434 9.16667 0.827434 8.71239V6.42478C1.18437 6.84661 1.66298 7.21976 2.26327 7.54425C2.86357 7.86873 3.53687 8.14454 4.28319 8.37168C5.0295 8.63127 5.84882 8.82596 6.74115 8.95575C7.63348 9.08555 8.56637 9.15044 9.53982 9.15044C10.5133 9.15044 11.4462 9.08555 12.3385 8.95575C13.2308 8.82596 14.0501 8.63127 14.7965 8.37168C15.5428 8.14454 16.2161 7.86873 16.8164 7.54425C17.4167 7.21976 17.8953 6.84661 18.2522 6.42478V8.71239Z" fill="#222222"/>
</svg>
