<?xml version="1.0" encoding="UTF-8"?>
<svg width="17px" height="17px" viewBox="0 0 17 17" version="1.1" xmlns="http://www.w3.org/2000/svg" xmlns:xlink="http://www.w3.org/1999/xlink">
    <!-- Generator: Sketch 54.1 (76490) - https://sketchapp.com -->
    <title>logout</title>
    <desc>Created with Sketch.</desc>
    <g id="Page-1" stroke="none" stroke-width="1" fill="none" fill-rule="evenodd">
        <g id="logout" fill="#222222" fill-rule="nonzero">
            <polygon id="Path" points="13.4157101 4.92910688 12.6656775 5.67913949 14.9427228 7.95618478 7.4257663 7.95618478 7.4257663 9.01702174 14.9427228 9.01702174 12.6656775 11.294067 13.4157101 12.0440996 16.9732065 8.48660326"></polygon>
            <path d="M11.6690833,15.9124004 L1.06083696,15.9124004 L1.06083696,1.06083696 L11.6690833,1.06083696 L11.6690833,2.12167391 L12.7299203,2.12167391 L12.7299203,0.530418478 C12.7299203,0.237230072 12.4926902,-2.84217094e-14 12.1995018,-2.84217094e-14 L0.530418478,-2.84217094e-14 C0.237230072,-2.84217094e-14 -5.68434189e-14,0.237230072 -5.68434189e-14,0.530418478 L-5.68434189e-14,16.442788 C-5.68434189e-14,16.7359764 0.237230072,16.9732065 0.530418478,16.9732065 L12.1995018,16.9732065 C12.4926902,16.9732065 12.7299203,16.7359764 12.7299203,16.442788 L12.7299203,14.8515634 L11.6690833,14.8515634 L11.6690833,15.9124004 Z" id="Path"></path>
        </g>
    </g>
</svg>