<svg width="23" height="20" viewBox="0 0 23 20" fill="none" xmlns="http://www.w3.org/2000/svg">
<path fill-rule="evenodd" clip-rule="evenodd" d="M3.33705 3.38839C5.59599 1.12945 8.31695 0 11.5 0C14.6831 0 17.3954 1.1209 19.6373 3.36272C21.8791 5.60455 23 8.31695 23 11.5C23 14.375 22.0417 16.9077 20.125 19.0982C20.0565 19.1667 19.9624 19.2693 19.8426 19.4062C19.7228 19.5432 19.6287 19.6458 19.5603 19.7143L19.0469 19.2009L18.9955 19.0982C17.9687 18.1399 16.8564 17.404 15.6585 16.8906C14.3579 16.343 12.9717 16.0692 11.5 16.0692C10.0283 16.0692 8.64212 16.343 7.34152 16.8906C6.1436 17.404 5.03126 18.1399 4.00446 19.0982L3.95312 19.2009L3.43973 19.7143C3.37128 19.6458 3.27716 19.5432 3.15737 19.4062C3.03757 19.2693 2.94345 19.1667 2.875 19.0982C0.958324 16.9077 0 14.375 0 11.5C0 8.31695 1.11234 5.61311 3.33705 3.38839ZM21.3571 15.6585C21.8363 14.529 22.1101 13.2798 22.1786 11.9107H20.5357V11.0893H22.1786C22.1101 9.72023 21.8363 8.47099 21.3571 7.34152C20.9464 6.31473 20.279 5.28795 19.3549 4.26116L17.9688 5.64732L17.6607 5.33929L17.404 5.08259H17.3527L18.7388 3.69643C17.7463 2.77232 16.7195 2.0878 15.6585 1.64286C14.529 1.16369 13.2627 0.88988 11.8594 0.821429V2.77232H11.0379V0.821429C9.70312 0.88988 8.47099 1.16369 7.34152 1.64286C6.10937 2.19048 5.06548 2.875 4.20982 3.69643L5.59598 5.08259L5.28795 5.39062L5.03125 5.64732L3.64509 4.26116C2.72098 5.28795 2.05357 6.31473 1.64286 7.34152C1.16369 8.47099 0.889881 9.73735 0.821429 11.1406H2.46429V11.9621H0.821429C0.889881 13.2969 1.16369 14.529 1.64286 15.6585C2.15625 16.788 2.7552 17.7463 3.43973 18.5335C5.63022 16.343 8.31695 15.2478 11.5 15.2478C14.6831 15.2478 17.3698 16.343 19.5603 18.5335C20.2448 17.7463 20.8437 16.788 21.3571 15.6585ZM17.25 5.69866L17.3527 5.75L13.5022 10.0625C13.8103 10.4732 13.9643 10.9524 13.9643 11.5C13.9643 12.1845 13.7247 12.7664 13.2455 13.2455C12.7664 13.7247 12.1845 13.9643 11.5 13.9643C11.0551 13.9643 10.593 13.8103 10.1138 13.5022L9.44643 14.1183L8.8817 13.5536L9.49777 12.9375C9.18973 12.5268 9.03571 12.0476 9.03571 11.5C9.03571 10.8155 9.2753 10.2336 9.75446 9.75447C10.2336 9.2753 10.8155 9.03571 11.5 9.03571C11.9792 9.03571 12.4412 9.17262 12.8862 9.44643L17.25 5.69866ZM10.3192 12.6808C10.6272 12.9888 11.0208 13.1429 11.5 13.1429C11.9792 13.1429 12.3728 12.9888 12.6808 12.6808C12.9888 12.3728 13.1429 11.9792 13.1429 11.5C13.1429 11.0208 12.9888 10.6272 12.6808 10.3192C12.3728 10.0112 11.9792 9.85714 11.5 9.85714C11.0208 9.85714 10.6272 10.0112 10.3192 10.3192C10.0112 10.6272 9.85714 11.0208 9.85714 11.5C9.85714 11.9792 10.0112 12.3728 10.3192 12.6808Z" fill="#222222"/>
</svg>
