<svg width="20" height="20" viewBox="0 0 20 20" fill="none" xmlns="http://www.w3.org/2000/svg">
<path fill-rule="evenodd" clip-rule="evenodd" d="M19.5398 0.356195C19.4381 0.2205 19.3024 0.127214 19.1327 0.0763291C18.9631 0.0254408 18.7935 0 18.6239 0C18.4543 0 18.2931 0.0254408 18.1405 0.0763291C17.9878 0.127214 17.8437 0.2205 17.708 0.356195L13.8916 4.17257V3.46018H0V19.9469H16.4867V6.05531H15.6726L19.5398 2.18805C19.6755 2.08628 19.7773 1.95059 19.8451 1.78097C19.913 1.61135 19.9469 1.44174 19.9469 1.27212C19.9469 1.10251 19.913 0.941373 19.8451 0.788718C19.7773 0.63606 19.6755 0.491889 19.5398 0.356195ZM15.6217 19.0819H0.865044V4.32522H13.7389L6.97124 11.1438V13.0265H8.75221L15.6217 6.15708V19.0819ZM18.9292 1.57743L8.39602 12.1615H7.83628V11.5L18.3186 0.966814C18.3864 0.93289 18.4458 0.907449 18.4967 0.890488C18.5476 0.873525 18.59 0.865044 18.6239 0.865044C18.6578 0.865044 18.7087 0.873525 18.7765 0.890488C18.8444 0.907449 18.8953 0.93289 18.9292 0.966814C18.997 1.03466 19.0395 1.09402 19.0564 1.14491C19.0734 1.1958 19.0819 1.2382 19.0819 1.27212C19.0819 1.30605 19.0734 1.35693 19.0564 1.42478C19.0395 1.49262 18.997 1.54351 18.9292 1.57743Z" fill="#222222"/>
</svg>
