<?xml version="1.0" encoding="UTF-8"?>
<svg width="22px" height="22px" viewBox="0 0 22 22" version="1.1" xmlns="http://www.w3.org/2000/svg" xmlns:xlink="http://www.w3.org/1999/xlink">
    <!-- Generator: Sketch 54.1 (76490) - https://sketchapp.com -->
    <title>tag</title>
    <desc>Created with Sketch.</desc>
    <g id="Page-1" stroke="none" stroke-width="1" fill="none" fill-rule="evenodd">
        <g id="tag" transform="translate(1.000000, 1.000000)" fill="#222222" fill-rule="nonzero" stroke="#222222" stroke-width="0.3">
            <path d="M17.5141292,0 C18.8845401,0 19.9994521,1.11491194 19.9994521,2.4853229 C19.9994521,3.49260274 19.5843444,4.35581213 18.7990215,4.98152642 C18.5905675,5.14763209 18.3622309,5.29189824 18.1207828,5.41604697 L18.1207828,10.5095499 C18.1207828,10.9225049 17.9599609,11.3107241 17.6679843,11.6027397 L9.63181996,19.6389041 C9.39146771,19.8792564 9.07573386,19.9994129 8.76003914,19.9994129 C8.44434442,19.9994129 8.12861057,19.8792564 7.88825832,19.6389041 L0.360547945,12.1111937 C-0.120156556,11.6304892 -0.120156556,10.8483366 0.360547945,10.3676321 L8.39667319,2.33146771 C8.68868885,2.03949119 9.07694716,1.87866928 9.48986301,1.87866928 L15.1040705,1.87866928 C15.3781213,0.791624266 16.3720157,0 17.5141292,0 Z M17.5336986,10.509589 L17.5336986,5.67048924 C16.9983953,5.86328767 16.427593,5.97252446 15.8783562,6.00896282 C15.7041879,6.67193738 15.0998826,7.16242661 14.3830137,7.16242661 C13.5305675,7.16242661 12.8370254,6.46888454 12.8370254,5.61643836 C12.8370254,4.76399217 13.5305675,4.0704501 14.3830137,4.0704501 C15.1674755,4.0704501 15.816908,4.65796477 15.9155773,5.41596869 C16.4575734,5.37240705 17.0216047,5.2509589 17.5336986,5.04007828 L17.5336986,3.11154599 C17.5336986,2.75545988 17.2439922,2.46575342 16.8879061,2.46575342 L9.48986301,2.46575342 C9.23373777,2.46575342 8.99295499,2.56547945 8.81181996,2.74661448 L0.775655577,10.7827789 C0.523874755,11.0345988 0.523874755,11.4442661 0.775655577,11.6960861 L8.30336595,19.2237965 C8.55518591,19.4756164 8.96485323,19.4756164 9.21667319,19.2237965 L17.2528376,11.1876321 C17.4339726,11.0064971 17.5336986,10.7657143 17.5336986,10.509589 Z M14.3174168,5.90258317 C14.1594129,5.86634051 14.0606654,5.70888454 14.0968689,5.55088063 C14.1330724,5.39283757 14.2906067,5.29405088 14.4485714,5.33033268 C14.7100196,5.3902544 15.0077495,5.42508806 15.3240313,5.43272016 C15.2380431,4.99162427 14.8488845,4.65757339 14.3829746,4.65757339 C13.8542466,4.65757339 13.4240705,5.08774951 13.4240705,5.6164775 C13.4240705,6.14520548 13.8542466,6.5753816 14.3829746,6.5753816 C14.7680626,6.5753816 15.1006654,6.34708415 15.2530724,6.01882583 C14.9184736,6.00704501 14.6014873,5.96767123 14.3174168,5.90258317 Z M18.4331507,4.52238748 C19.0828963,4.00465753 19.4123679,3.3192955 19.4123679,2.4853229 C19.4123679,1.43863014 18.5608219,0.587084149 17.5141292,0.587084149 C16.6925636,0.587084149 15.9711937,1.1230137 15.7151468,1.87866928 L16.8879061,1.87866928 C17.5677104,1.87866928 18.1207828,2.43174168 18.1207828,3.11154599 L18.1207828,4.74187867 C18.2298239,4.67405088 18.3344031,4.60105675 18.4331507,4.52238748 Z" id="Shape"></path>
        </g>
    </g>
</svg>