<svg width="20" height="22" viewBox="0 0 20 22" fill="none" xmlns="http://www.w3.org/2000/svg">
<path fill-rule="evenodd" clip-rule="evenodd" d="M18.834 0C19.4378 0 19.9289 0.491168 19.9289 1.09489V6.6773C19.9289 6.95788 19.822 7.21328 19.6478 7.40723C19.822 7.60117 19.9289 7.85657 19.9289 8.13715V13.7196C19.9289 14.0001 19.822 14.2555 19.6478 14.4495C19.822 14.6434 19.9289 14.8988 19.9289 15.1794V20.7618C19.9289 21.3655 19.4378 21.8567 18.834 21.8567H1.12489C0.521167 21.8567 0.0299988 21.3655 0.0299988 20.7618V15.1794C0.0299988 14.8988 0.136933 14.6434 0.311094 14.4495C0.136933 14.2555 0.0299988 14.0001 0.0299988 13.7196V8.13715C0.0299988 7.85657 0.136933 7.60117 0.311094 7.40723C0.136933 7.21328 0.0299988 6.95788 0.0299988 6.6773V1.09489C0.0299988 0.491095 0.521167 0 1.12489 0H18.834ZM18.834 21.1267C19.0353 21.1267 19.199 20.963 19.199 20.7618V15.1793C19.199 14.9781 19.0353 14.8144 18.834 14.8144H1.12489C0.923648 14.8144 0.759926 14.9781 0.759926 15.1793V20.7618C0.759926 20.963 0.923648 21.1267 1.12489 21.1267H18.834ZM19.199 13.7196C19.199 13.9208 19.0353 14.0845 18.834 14.0845H1.12489C0.923648 14.0845 0.759926 13.9208 0.759926 13.7196V8.13715C0.759926 7.93591 0.923648 7.77219 1.12489 7.77219H18.834C19.0353 7.77219 19.199 7.93591 19.199 8.13715V13.7196ZM18.834 7.04226C19.0353 7.04226 19.199 6.87854 19.199 6.6773V1.09489C19.199 0.89365 19.0353 0.729927 18.834 0.729927H1.12489C0.923648 0.729927 0.759926 0.89365 0.759926 1.09489V6.6773C0.759926 6.87854 0.923648 7.04226 1.12489 7.04226H18.834Z" fill="#202020"/>
<path fill-rule="evenodd" clip-rule="evenodd" d="M1.93015 3.88607C1.93015 2.81279 2.80336 1.93958 3.87664 1.93958C4.94993 1.93958 5.82314 2.81279 5.82314 3.88607C5.82314 4.95936 4.94993 5.83257 3.87664 5.83257C2.80336 5.83257 1.93015 4.95936 1.93015 3.88607ZM2.66007 3.88607C2.66007 4.55695 3.20577 5.10264 3.87664 5.10264C4.54752 5.10264 5.09321 4.55687 5.09321 3.88607C5.09321 3.21527 4.54744 2.6695 3.87664 2.6695C3.20584 2.6695 2.66007 3.2152 2.66007 3.88607Z" fill="#202020"/>
<path d="M16.6504 3.52112H8.91315C8.71154 3.52112 8.54819 3.68448 8.54819 3.88608C8.54819 4.08769 8.71162 4.25105 8.91315 4.25105H16.6504C16.852 4.25105 17.0153 4.08769 17.0153 3.88608C17.0153 3.68448 16.852 3.52112 16.6504 3.52112Z" fill="#202020"/>
<path fill-rule="evenodd" clip-rule="evenodd" d="M1.93015 10.9283C1.93015 9.85502 2.80336 8.98181 3.87664 8.98181C4.94993 8.98181 5.82314 9.85502 5.82314 10.9283C5.82314 12.0016 4.94993 12.8748 3.87664 12.8748C2.80336 12.8748 1.93015 12.0016 1.93015 10.9283ZM2.66007 10.9283C2.66007 11.5991 3.20584 12.1449 3.87664 12.1449C4.54744 12.1449 5.09321 11.5991 5.09321 10.9283C5.09321 10.2575 4.54744 9.71174 3.87664 9.71174C3.20584 9.71174 2.66007 10.2575 2.66007 10.9283Z" fill="#202020"/>
<path d="M16.6504 10.5634H8.91315C8.71154 10.5634 8.54819 10.7267 8.54819 10.9283C8.54819 11.1299 8.71162 11.2933 8.91315 11.2933H16.6504C16.852 11.2933 17.0153 11.1299 17.0153 10.9283C17.0153 10.7267 16.852 10.5634 16.6504 10.5634Z" fill="#202020"/>
<path fill-rule="evenodd" clip-rule="evenodd" d="M1.93015 17.9705C1.93015 16.8972 2.80336 16.024 3.87664 16.024C4.94993 16.024 5.82314 16.8972 5.82314 17.9705C5.82314 19.0438 4.94993 19.917 3.87664 19.917C2.80336 19.917 1.93015 19.0438 1.93015 17.9705ZM2.66007 17.9705C2.66007 18.6413 3.20584 19.1871 3.87664 19.1871C4.54752 19.1871 5.09321 18.6413 5.09321 17.9705C5.09321 17.2997 4.54744 16.7539 3.87664 16.7539C3.20584 16.7539 2.66007 17.2997 2.66007 17.9705Z" fill="#202020"/>
<path d="M16.6504 17.6055H8.91315C8.71154 17.6055 8.54819 17.7689 8.54819 17.9705C8.54819 18.1721 8.71154 18.3355 8.91315 18.3355H16.6504C16.852 18.3355 17.0153 18.1721 17.0153 17.9705C17.0153 17.769 16.852 17.6055 16.6504 17.6055Z" fill="#202020"/>
</svg>
