<svg width="13" height="12" viewBox="0 0 13 12" fill="none" xmlns="http://www.w3.org/2000/svg">
<path d="M12.6895 1.40995C12.7304 1.49168 12.7508 1.55299 12.7508 1.59385C12.7508 1.63472 12.7304 1.69602 12.6895 1.77776L5.05742 11.5861C4.93482 11.7087 4.84286 11.77 4.78156 11.77C4.67939 11.77 4.57722 11.7189 4.47505 11.6167L0.153255 7.4482L0.0613021 7.35625C0.0204339 7.27451 0 7.21321 0 7.17234C0 7.15191 0.0204339 7.10083 0.0613021 7.01909L0.122604 6.95779C0.69476 6.34476 1.1443 5.87478 1.47125 5.54784C1.59385 5.42523 1.67559 5.36393 1.71646 5.36393C1.79819 5.36393 1.90036 5.42523 2.02297 5.54784L4.47505 7.93862L10.6053 0.0613021C10.6461 0.0204339 10.7074 0 10.7892 0C10.8505 0 10.922 0.0204339 11.0037 0.0613021L12.6895 1.40995Z" fill="#138FD5"/>
</svg>
