<svg width="18" height="18" viewBox="0 0 18 18" fill="none" xmlns="http://www.w3.org/2000/svg">
<path d="M15.6895 5.40995C15.7304 5.49168 15.7508 5.55299 15.7508 5.59385C15.7508 5.63472 15.7304 5.69602 15.6895 5.77776L8.05742 15.5861C7.93482 15.7087 7.84286 15.77 7.78156 15.77C7.67939 15.77 7.57722 15.7189 7.47505 15.6167L3.15326 11.4482L3.0613 11.3563C3.02043 11.2745 3 11.2132 3 11.1723C3 11.1519 3.02043 11.1008 3.0613 11.0191L3.1226 10.9578C3.69476 10.3448 4.1443 9.87478 4.47125 9.54784C4.59385 9.42523 4.67559 9.36393 4.71646 9.36393C4.79819 9.36393 4.90036 9.42523 5.02297 9.54784L7.47505 11.9386L13.6053 4.0613C13.6461 4.02043 13.7074 4 13.7892 4C13.8505 4 13.922 4.02043 14.0037 4.0613L15.6895 5.40995Z" fill="#138FD5"/>
<rect x="0.5" y="0.5" width="17" height="17" rx="3.5" stroke="#949494"/>
</svg>
