<svg width="9" height="18" viewBox="0 0 9 18" fill="none" xmlns="http://www.w3.org/2000/svg">
<path opacity="0.7" fill-rule="evenodd" clip-rule="evenodd" d="M7.16949 9L0.209746 1.22727C0.0699146 1.09091 0 0.923865 0 0.726137C0 0.528409 0.0699146 0.354546 0.209746 0.204545C0.336865 0.0681801 0.492584 0 0.676907 0C0.86123 0 1.01695 0.0681801 1.14407 0.204545L8.79026 8.48863C8.93009 8.625 9 8.79545 9 9C9 9.20455 8.93009 9.375 8.79026 9.51137L1.14407 17.7955C1.01695 17.9318 0.86123 18 0.676907 18C0.492584 18 0.336865 17.9318 0.209746 17.7955C0.0699146 17.6591 0 17.4886 0 17.2841C0 17.0795 0.0699146 16.9091 0.209746 16.7727L7.16949 9Z" fill="white"/>
</svg>
