<svg width="9" height="18" viewBox="0 0 9 18" fill="none" xmlns="http://www.w3.org/2000/svg">
<path opacity="0.7" fill-rule="evenodd" clip-rule="evenodd" d="M1.83051 9L8.79025 1.22727C8.93009 1.09091 9 0.923865 9 0.726137C9 0.528409 8.93009 0.354546 8.79025 0.204545C8.66313 0.0681801 8.50742 0 8.32309 0C8.13877 0 7.98305 0.0681801 7.85593 0.204545L0.209745 8.48863C0.0699134 8.625 2.38419e-07 8.79545 2.38419e-07 9C2.38419e-07 9.20455 0.0699134 9.375 0.209745 9.51137L7.85593 17.7955C7.98305 17.9318 8.13877 18 8.32309 18C8.50742 18 8.66313 17.9318 8.79025 17.7955C8.93009 17.6591 9 17.4886 9 17.2841C9 17.0795 8.93009 16.9091 8.79025 16.7727L1.83051 9Z" fill="white"/>
</svg>
