<svg width="60" height="61" viewBox="0 0 60 61" fill="none" xmlns="http://www.w3.org/2000/svg">
<path d="M47.4998 30.0568C46.1174 30.0568 45 31.1769 45 32.5566V52.5568C45 53.9342 43.8799 55.0566 42.5002 55.0566H7.5C6.11984 55.0566 5.00015 53.9342 5.00015 52.5568V17.5566C5.00015 16.1792 6.11984 15.0568 7.5 15.0568H27.5002C28.8826 15.0568 30 13.9366 30 12.5569C30 11.1768 28.8826 10.0566 27.5002 10.0566H7.5C3.36502 10.0566 0 13.4217 0 17.5566V52.5568C0 56.6918 3.36502 60.0568 7.5 60.0568H42.5002C46.6351 60.0568 50.0002 56.6918 50.0002 52.5568V32.5566C50.0002 31.1742 48.8823 30.0568 47.4998 30.0568Z" fill="#0086D1"/>
<path d="M23.4399 27.7795C23.265 27.9543 23.1474 28.1768 23.0975 28.4167L21.33 37.257C21.2476 37.6667 21.3776 38.0892 21.6724 38.3868C21.91 38.6243 22.23 38.7516 22.5578 38.7516C22.6374 38.7516 22.7203 38.7443 22.8027 38.7269L31.6402 36.9595C31.8852 36.9091 32.1076 36.7919 32.2802 36.6166L52.0602 16.8366L43.2226 7.99951L23.4399 27.7795Z" fill="#0086D1"/>
<path d="M58.17 1.88679C55.7328 -0.550805 51.7677 -0.550805 49.3324 1.88679L45.8726 5.34657L54.7102 14.1842L58.17 10.7239C59.3501 9.54655 60.0001 7.97642 60.0001 6.3065C60.0001 4.63658 59.3501 3.06645 58.17 1.88679Z" fill="#0086D1"/>
</svg>
