<svg width="20" height="20" viewBox="0 0 20 20" fill="none" xmlns="http://www.w3.org/2000/svg">
<path fill-rule="evenodd" clip-rule="evenodd" d="M7.24129 5.38028L7.74825 4.87324C8.08622 4.53521 8.25521 4.12207 8.25521 3.6338C8.25521 3.14554 8.08622 2.73239 7.74825 2.39437L5.8894 0.507042C5.55143 0.169014 5.13835 0 4.65017 0C4.16199 0 3.74891 0.169014 3.41094 0.507042L2.87582 1.04225L7.24129 5.38028ZM15.1276 12.2535L14.6206 12.7605L18.9579 17.1267L19.493 16.6197C19.831 16.2816 20 15.8591 20 15.3521C20 14.8638 19.831 14.4506 19.493 14.1126L17.6342 12.2535C17.2962 11.9154 16.8785 11.7464 16.3809 11.7464C15.8833 11.7464 15.4655 11.9154 15.1276 12.2535ZM1.29889 2.6198C1.14868 2.77004 0.9797 2.97661 0.791936 3.23952C0.604171 3.50243 0.407023 4.03294 0.200483 4.83107C-0.00605645 5.6292 -0.0529964 6.47895 0.059661 7.38036C0.172318 8.28178 0.622944 9.43669 1.41155 10.8452C2.20015 12.2536 3.33611 13.6996 4.81944 15.1832C8.03019 18.3945 11.025 20.0001 13.8039 20.0001C15.3247 20.0001 16.517 19.5682 17.3807 18.7043L17.8032 18.3099L13.4377 13.9437L12.6773 14.7043C12.4144 14.9672 12.1422 14.9672 11.8605 14.7043L5.29823 8.14093C5.18557 8.02825 5.12924 7.8968 5.12924 7.74656C5.12924 7.57755 5.18557 7.4367 5.29823 7.32403L6.05867 6.56346L1.72136 2.19727L1.29889 2.6198Z" fill="white"/>
</svg>
