<svg width="26" height="26" viewBox="0 0 26 26" fill="none" xmlns="http://www.w3.org/2000/svg">
<path fill-rule="evenodd" clip-rule="evenodd" d="M15.9375 15.953C17.3125 14.578 18 12.927 18 10.9999C18 9.07282 17.3151 7.4244 15.9453 6.0546C14.5755 4.6848 12.9271 3.99992 11 3.99992C9.07292 3.99992 7.4245 4.6848 6.0547 6.0546C4.68491 7.4244 4.00002 9.07282 4.00002 10.9999C4.00002 12.927 4.68491 14.5754 6.0547 15.9452C7.4245 17.315 9.07292 17.9999 11 17.9999C12.9271 17.9999 14.5729 17.3176 15.9375 15.953ZM26 24C26 24.5417 25.8021 25.0104 25.4063 25.4063C25.0104 25.8021 24.5417 26 24 26C23.4375 26 22.9688 25.8021 22.5938 25.4063L17.2344 20.0625C15.3698 21.3542 13.2917 22 11 22C9.51041 22 8.08595 21.7109 6.72656 21.1328C5.36718 20.5547 4.19532 19.7734 3.21094 18.7891C2.22656 17.8047 1.44532 16.6328 0.867188 15.2734C0.28906 13.9141 0 12.4896 0 11C0 9.51041 0.28906 8.08594 0.867188 6.72656C1.44532 5.36718 2.22656 4.19532 3.21094 3.21094C4.19532 2.22656 5.36718 1.44531 6.72656 0.867185C8.08595 0.289058 9.51041 0 11 0C12.4896 0 13.9141 0.289058 15.2734 0.867185C16.6328 1.44531 17.8047 2.22656 18.7891 3.21094C19.7734 4.19532 20.5547 5.36718 21.1328 6.72656C21.7109 8.08594 22 9.51041 22 11C22 13.2917 21.3542 15.3698 20.0625 17.2344L25.4219 22.5938C25.8073 22.9792 26 23.4479 26 24Z" fill="white"/>
</svg>
