<svg width="19" height="19" viewBox="0 0 19 19" fill="none" xmlns="http://www.w3.org/2000/svg">
<path fill-rule="evenodd" clip-rule="evenodd" d="M11.6466 11.658C12.6515 10.6532 13.1539 9.44667 13.1539 8.03841C13.1539 6.63015 12.6534 5.42553 11.6523 4.42453C10.6513 3.42352 9.44673 2.92303 8.03847 2.92303C6.63021 2.92303 5.42559 3.42352 4.42458 4.42453C3.42358 5.42553 2.92308 6.63015 2.92308 8.03841C2.92308 9.44667 3.42358 10.6513 4.42458 11.6523C5.42559 12.6533 6.63021 13.1538 8.03847 13.1538C9.44673 13.1538 10.6494 12.6552 11.6466 11.658ZM19 17.5385C19 17.9343 18.8554 18.2768 18.5661 18.5661C18.2768 18.8554 17.9343 19 17.5385 19C17.1274 19 16.7849 18.8554 16.5108 18.5661L12.5944 14.6611C11.2318 15.605 9.71315 16.0769 8.03846 16.0769C6.94992 16.0769 5.90896 15.8657 4.91557 15.4432C3.92217 15.0207 3.06581 14.4498 2.34645 13.7305C1.6271 13.0111 1.05619 12.1548 0.633714 11.1614C0.211236 10.168 0 9.12701 0 8.03846C0 6.94991 0.211236 5.90896 0.633714 4.91557C1.05619 3.92217 1.6271 3.06581 2.34645 2.34645C3.06581 1.6271 3.92217 1.05619 4.91557 0.633712C5.90896 0.211235 6.94992 0 8.03846 0C9.12701 0 10.168 0.211235 11.1614 0.633712C12.1548 1.05619 13.0111 1.6271 13.7305 2.34645C14.4498 3.06581 15.0207 3.92217 15.4432 4.91557C15.8657 5.90896 16.0769 6.94991 16.0769 8.03846C16.0769 9.71315 15.605 11.2318 14.6611 12.5944L18.5775 16.5108C18.8592 16.7925 19 17.135 19 17.5385Z" fill="#6E6E6E"/>
</svg>
