<svg width="60" height="57" viewBox="0 0 60 57" fill="none" xmlns="http://www.w3.org/2000/svg">
<path d="M58.7533 43.3535L37.5582 4.39142C34.1529 -1.34151 25.8517 -1.34912 22.4417 4.39142L1.24768 43.3535C-2.23349 49.2116 1.98116 56.6298 8.80417 56.6298H51.1951C58.0124 56.6298 62.2345 49.2175 58.7533 43.3535ZM30 49.5985C28.0619 49.5985 26.4844 48.0209 26.4844 46.0829C26.4844 44.1448 28.0619 42.5673 30 42.5673C31.938 42.5673 33.5156 44.1448 33.5156 46.0829C33.5156 48.0209 31.938 49.5985 30 49.5985ZM33.5156 35.536C33.5156 37.4741 31.938 39.0516 30 39.0516C28.0619 39.0516 26.4844 37.4741 26.4844 35.536V17.9579C26.4844 16.0198 28.0619 14.4423 30 14.4423C31.938 14.4423 33.5156 16.0198 33.5156 17.9579V35.536Z" fill="#0086D1"/>
</svg>
