<svg width="35" height="35" viewBox="0 0 35 35" fill="none" xmlns="http://www.w3.org/2000/svg">
<circle cx="17.5" cy="17.5" r="17" stroke="white"/>
<path d="M24.625 10.3809H10.375C9.7194 10.3809 9.15967 10.6087 8.6958 11.0645C8.23193 11.5202 8 12.0701 8 12.7142V22.0475C8 22.6916 8.23193 23.2415 8.6958 23.6973C9.15967 24.153 9.7194 24.3809 10.375 24.3809H24.625C25.2806 24.3809 25.8403 24.153 26.3042 23.6973C26.7681 23.2415 27 22.6916 27 22.0475V12.7142C27 12.0701 26.7681 11.5202 26.3042 11.0645C25.8403 10.6087 25.2806 10.3809 24.625 10.3809ZM25.2188 11.5475L17.5 17.3809L9.78125 11.5475H25.2188ZM9.1875 22.0475V12.7142L14.5313 16.7975L9.24316 22.3757C9.23079 22.327 9.21842 22.2754 9.20606 22.2207C9.19368 22.166 9.1875 22.1083 9.1875 22.0475ZM10.1152 23.1777L15.4775 17.5814L17.5 19.0762L19.4482 17.5632L24.8848 23.1777C24.86 23.1899 24.0807 23.196 22.5469 23.196C21.013 23.196 19.3307 23.196 17.5 23.196C15.6693 23.196 13.987 23.196 12.4531 23.196C10.9193 23.196 10.14 23.1899 10.1152 23.1777ZM25.8125 22.0475C25.8125 22.1083 25.8063 22.166 25.7939 22.2207C25.7816 22.2754 25.7692 22.327 25.7568 22.3757L20.4688 16.7975L25.8125 12.7142V22.0475Z" fill="white"/>
</svg>
