<svg width="35" height="35" viewBox="0 0 35 35" fill="none" xmlns="http://www.w3.org/2000/svg">
<circle cx="17.5" cy="17.5" r="17" stroke="white"/>
<path d="M17.125 9.56836C17.5208 9.56836 17.9136 9.60856 18.3032 9.68897C18.6929 9.76937 19.0732 9.88379 19.4443 10.0322C19.7907 10.1807 20.1216 10.3631 20.437 10.5796C20.7524 10.7961 21.0462 11.0404 21.3184 11.3125C21.5905 11.5846 21.8348 11.8784 22.0513 12.1938C22.2677 12.5093 22.4502 12.8402 22.5986 13.1865C22.7471 13.5576 22.8615 13.938 22.9419 14.3276C23.0223 14.7173 23.0625 15.11 23.0625 15.5059C23.0625 15.6172 23.0223 15.8553 22.9419 16.2202C22.8615 16.5851 22.6543 17.1449 22.3203 17.8994C22.0853 18.4189 21.8039 18.9818 21.4761 19.5879C21.1483 20.194 20.7865 20.8187 20.3906 21.4619C20.0319 22.0557 19.6608 22.6339 19.2773 23.1968C18.8939 23.7596 18.529 24.2699 18.1826 24.7275C17.9352 25.0368 17.7249 25.2935 17.5518 25.4976C17.3786 25.7017 17.2363 25.8594 17.125 25.9707C17.0137 25.8594 16.8683 25.7048 16.689 25.5068C16.5096 25.3089 16.3024 25.0492 16.0674 24.7275C15.7087 24.2699 15.3407 23.7627 14.9634 23.2061C14.5861 22.6494 14.2119 22.0742 13.8408 21.4805C13.4574 20.8496 13.1017 20.2311 12.7739 19.625C12.4461 19.0189 12.1647 18.4499 11.9297 17.918C11.5957 17.1634 11.3885 16.6006 11.3081 16.2295C11.2277 15.8584 11.1875 15.6172 11.1875 15.5059C11.1875 15.11 11.2277 14.7173 11.3081 14.3276C11.3885 13.938 11.5029 13.5576 11.6514 13.1865C11.7998 12.8402 11.9823 12.5093 12.1987 12.1938C12.4152 11.8784 12.6595 11.5846 12.9316 11.3125C13.2038 11.0404 13.4976 10.7961 13.813 10.5796C14.1284 10.3631 14.4593 10.1807 14.8057 10.0322C15.1768 9.88379 15.5571 9.76937 15.9468 9.68897C16.3364 9.60856 16.7292 9.56836 17.125 9.56836ZM17.125 8.38086C16.1354 8.38086 15.2108 8.5664 14.3511 8.9375C13.4914 9.3086 12.7368 9.81884 12.0874 10.4683C11.438 11.1177 10.9277 11.8722 10.5566 12.7319C10.1855 13.5916 10 14.5163 10 15.5059C10 16.2481 10.3154 17.284 10.9463 18.6138C11.5772 19.9435 12.3008 21.2578 13.1172 22.5566C13.9336 23.8555 14.7314 24.9842 15.5107 25.9429C16.29 26.9015 16.8281 27.3809 17.125 27.3809C17.4219 27.3809 17.96 26.9015 18.7393 25.9429C19.5186 24.9842 20.3164 23.8524 21.1328 22.5474C21.9492 21.2423 22.6728 19.925 23.3037 18.5952C23.9346 17.2655 24.25 16.2357 24.25 15.5059C24.25 14.5163 24.0645 13.5916 23.6934 12.7319C23.3223 11.8722 22.812 11.1177 22.1626 10.4683C21.5132 9.81884 20.7586 9.3086 19.8989 8.9375C19.0392 8.5664 18.1146 8.38086 17.125 8.38086ZM17.125 12.5371C16.3086 12.5371 15.6097 12.8278 15.0283 13.4092C14.4469 13.9906 14.1563 14.6894 14.1563 15.5059C14.1563 16.3223 14.4469 17.0212 15.0283 17.6025C15.6097 18.1839 16.3086 18.4746 17.125 18.4746C17.9414 18.4746 18.6403 18.1839 19.2217 17.6025C19.8031 17.0212 20.0938 16.3223 20.0938 15.5059C20.0938 14.6894 19.8031 13.9906 19.2217 13.4092C18.6403 12.8278 17.9414 12.5371 17.125 12.5371ZM17.125 17.2871C16.6302 17.2871 16.2096 17.1139 15.8633 16.7676C15.5169 16.4212 15.3438 16.0007 15.3438 15.5059C15.3438 15.0111 15.5169 14.5905 15.8633 14.2441C16.2096 13.8978 16.6302 13.7246 17.125 13.7246C17.6198 13.7246 18.0404 13.8978 18.3867 14.2441C18.7331 14.5905 18.9063 15.0111 18.9063 15.5059C18.9063 16.0007 18.7331 16.4212 18.3867 16.7676C18.0404 17.1139 17.6198 17.2871 17.125 17.2871Z" fill="white"/>
</svg>
