<svg width="35" height="35" viewBox="0 0 35 35" fill="none" xmlns="http://www.w3.org/2000/svg">
<circle cx="17.5" cy="17.5" r="17" stroke="white"/>
<path d="M23.2173 18.2138C22.9176 18.1817 22.6151 18.1309 22.31 18.0613C22.0048 17.9917 21.7131 17.9087 21.4347 17.8123C21.06 17.6731 20.6799 17.6491 20.2944 17.7401C19.909 17.8311 19.561 18.0158 19.2505 18.2941L18.7687 18.7759C18.1477 18.3584 17.5696 17.89 17.0343 17.3707C16.4989 16.8514 16.0278 16.2652 15.621 15.6121L16.1028 15.1303C16.3705 14.8627 16.5498 14.5254 16.6408 14.1185C16.7318 13.7117 16.7131 13.3209 16.5846 12.9462C16.4775 12.6678 16.3892 12.3787 16.3196 12.0789C16.25 11.7791 16.1991 11.474 16.167 11.1635C16.1028 10.6496 15.8726 10.224 15.4764 9.88675C15.0803 9.54949 14.6253 9.38086 14.1113 9.38086H12.0557C12.0236 9.38086 11.9888 9.38086 11.9513 9.38086C11.9138 9.38086 11.879 9.38086 11.8469 9.38086C11.5792 9.41298 11.3276 9.49596 11.0921 9.62979C10.8565 9.76362 10.6531 9.93225 10.4818 10.1357C10.3105 10.3391 10.1874 10.572 10.1124 10.8343C10.0375 11.0966 10 11.3669 10 11.6453C10.0535 12.1914 10.1392 12.7374 10.257 13.2834C10.3854 13.8295 10.5434 14.3648 10.7307 14.8894C10.9181 15.4141 11.1349 15.928 11.3812 16.4312C11.6274 16.9344 11.8951 17.4162 12.1842 17.8766C12.4625 18.3048 12.7623 18.717 13.0835 19.1132C13.4047 19.52 13.7473 19.9055 14.1113 20.2695C14.4754 20.6335 14.8608 20.9761 15.2677 21.2973C15.6638 21.6185 16.076 21.9183 16.5043 22.1967C16.9647 22.5072 17.4465 22.7856 17.9497 23.0318C18.4529 23.2781 18.9695 23.4922 19.4995 23.6742C20.0294 23.8562 20.5621 24.0061 21.0974 24.1239C21.6435 24.2524 22.1949 24.338 22.7516 24.3809C22.7837 24.3809 22.8158 24.3809 22.848 24.3809C22.8801 24.3809 22.9122 24.3809 22.9443 24.3809C23.2227 24.3809 23.4904 24.33 23.7473 24.2283C24.0043 24.1266 24.2184 23.974 24.3897 23.7706C24.561 23.5672 24.7056 23.345 24.8233 23.1041C24.9411 22.8632 25 22.6036 25 22.3252V20.2695C25 19.7556 24.8314 19.3032 24.4941 18.9124C24.1569 18.5216 23.7313 18.2888 23.2173 18.2138ZM23.6349 20.2695V22.3252C23.6349 22.4323 23.6188 22.5233 23.5867 22.5982C23.5546 22.6732 23.5011 22.7427 23.4261 22.807C23.3619 22.8819 23.2896 22.9355 23.2093 22.9676C23.129 22.9997 23.0193 23.0158 22.8801 23.0158C22.3876 22.9622 21.8951 22.8819 21.4026 22.7749C20.9208 22.6678 20.4443 22.5286 19.9732 22.3573C19.5021 22.186 19.0364 21.9933 18.576 21.7791C18.1263 21.5543 17.6874 21.3027 17.2591 21.0243C16.863 20.7888 16.4882 20.5265 16.1349 20.2374C15.7709 19.9483 15.4256 19.6378 15.099 19.3059C14.7725 18.974 14.4647 18.626 14.1756 18.262C13.8865 17.898 13.6135 17.5179 13.3565 17.1218C13.0782 16.6935 12.8319 16.2545 12.6178 15.8048C12.3929 15.3552 12.1975 14.8948 12.0316 14.4237C11.8656 13.9526 11.7238 13.4708 11.606 12.9783C11.4989 12.4965 11.4186 12.004 11.3651 11.5008C11.3651 11.4044 11.3812 11.3188 11.4133 11.2438C11.4454 11.1689 11.4775 11.0939 11.5096 11.019C11.5739 10.9547 11.6542 10.8932 11.7505 10.8343C11.8469 10.7754 11.9486 10.746 12.0557 10.746H14.1113C14.2827 10.746 14.4299 10.8075 14.553 10.9306C14.6761 11.0538 14.7591 11.201 14.8019 11.3723C14.834 11.7149 14.8983 12.0655 14.9946 12.4242C15.091 12.7829 15.2088 13.1175 15.348 13.428C15.3801 13.5672 15.3828 13.701 15.356 13.8295C15.3292 13.9579 15.2784 14.0757 15.2034 14.1828L14.3201 15.0018C14.2131 15.0982 14.1461 15.224 14.1194 15.3793C14.0926 15.5345 14.1113 15.6817 14.1756 15.8209C14.4325 16.2813 14.7216 16.7203 15.0428 17.1378C15.3533 17.5554 15.6933 17.9488 16.0626 18.3182C16.432 18.6876 16.8255 19.0329 17.243 19.3541C17.6606 19.6646 18.0996 19.9483 18.56 20.2053C18.6991 20.2802 18.8464 20.3097 19.0016 20.2936C19.1569 20.2775 19.2827 20.2053 19.379 20.0768L20.2784 19.1774C20.3854 19.0811 20.5032 19.0168 20.6317 18.9847C20.7602 18.9526 20.894 18.974 21.0332 19.049C21.3758 19.1774 21.7184 19.2818 22.061 19.3621C22.4036 19.4424 22.7463 19.52 23.0889 19.595C23.2281 19.6271 23.3539 19.7047 23.4663 19.8279C23.5787 19.951 23.6349 20.0982 23.6349 20.2695Z" fill="white"/>
</svg>
