<svg width="50" height="50" viewBox="0 0 50 50" fill="none" xmlns="http://www.w3.org/2000/svg">
<path fill-rule="evenodd" clip-rule="evenodd" d="M7.25446 7.36607C12.1652 2.45534 18.0803 0 25 0C31.9197 0 37.8162 2.43673 42.6897 7.31027C47.5633 12.1838 50 18.0803 50 25C50 31.9197 47.5633 37.8162 42.6897 42.6897C37.8162 47.5633 31.9197 50 25 50C18.0803 50 12.1838 47.5633 7.31027 42.6897C2.43673 37.8162 0 31.9197 0 25C0 18.0803 2.41813 12.2024 7.25446 7.36607ZM37.8348 16.6295C37.9092 16.5551 37.9464 16.4435 37.9464 16.2946C37.9464 16.0714 37.9092 15.9226 37.8348 15.8482L34.375 13.1696C34.3006 13.0952 34.1518 13.058 33.9286 13.058C33.7798 13.058 33.6682 13.0952 33.5938 13.1696L21.2054 29.1295C17.9315 26.0045 16.2574 24.4048 16.183 24.3304C15.9598 24.1071 15.7366 23.9955 15.5134 23.9955C15.439 23.9955 15.2902 24.1071 15.067 24.3304L12.2768 27.1205L12.1652 27.2321C12.0908 27.3066 12.0536 27.4554 12.0536 27.6786C12.0536 27.8274 12.0908 27.939 12.1652 28.0134L12.3884 28.125C18.192 33.7054 21.131 36.5327 21.2054 36.6071C21.4286 36.8304 21.6146 36.942 21.7634 36.942C21.9122 36.942 22.0982 36.8304 22.3214 36.6071L37.8348 16.6295Z" fill="#00CD00"/>
</svg>
