<svg width="100" height="100" viewBox="0 0 100 100" fill="none" xmlns="http://www.w3.org/2000/svg">
<g opacity="0.6">
<mask id="mask0" mask-type="alpha" maskUnits="userSpaceOnUse" x="0" y="0" width="100" height="100">
<path fill-rule="evenodd" clip-rule="evenodd" d="M0 0H99.9999V100H0V0Z" fill="white"/>
</mask>
<g mask="url(#mask0)">
<path fill-rule="evenodd" clip-rule="evenodd" d="M17.4762 24.9935C21.3819 25.0252 24.995 21.4216 24.993 17.4965C24.9911 13.5699 21.3997 9.99821 17.4708 10.0154C13.5682 10.0324 10.0696 13.5226 10.0175 17.4506C9.9657 21.3566 13.5302 24.9615 17.4762 24.9935ZM10.0415 89.9347H43.4354V80.1209H10.0415V89.9347ZM56.5772 89.9406H89.944V80.1049H56.5772V89.9406ZM56.5618 70.4523H89.922V60.6041H56.5618V70.4523ZM10.069 70.4482H43.4411V60.5879H10.069V70.4482ZM33.5657 22.6154C33.4231 22.6498 33.3839 22.6478 33.361 22.6662C25.7157 28.8361 18.0677 35.0027 10.4427 41.1976C10.1762 41.4142 10.0204 41.9111 10.0143 42.2808C9.97605 44.5908 9.99285 46.9019 9.99851 49.2127C9.9991 49.4609 10.0464 49.709 10.0682 49.9209H90.0051C90.0051 45.5455 90.0245 41.2523 89.9819 36.9597C89.9762 36.3871 89.7768 35.7404 89.4653 35.2586C85.5473 29.1968 81.5928 23.159 77.6468 17.1156C76.4407 15.2689 75.2321 13.424 73.996 11.5343C63.6471 19.2076 53.3632 26.8328 42.9993 34.5172C39.8331 30.5224 36.7075 26.5791 33.5657 22.6154ZM-0.00012207 100H99.9999V-3.05176e-05H-0.00012207V100Z" fill="#FEFEFE"/>
</g>
</g>
</svg>
