<svg width="94" height="105" viewBox="0 0 94 105" fill="none" xmlns="http://www.w3.org/2000/svg">
<g opacity="0.6">
<path fill-rule="evenodd" clip-rule="evenodd" d="M69.8811 29.0251C70.5365 29.4384 71.2403 30.0492 71.8209 30.9453C73.1346 32.9724 73.3581 35.6918 72.4855 39.0274C70.8534 45.266 67.0461 46.6397 65.0151 46.9153C63.7638 49.4171 61.0136 54.53 58.2616 57.0989C57.1622 58.1249 55.7329 58.9908 54.0136 59.6736C51.8192 60.5442 49.5015 60.9858 47.1258 60.9858C44.7501 60.9858 42.4325 60.5442 40.238 59.6736C38.5187 58.9908 37.0894 58.1249 35.9901 57.0989C33.238 54.53 30.4879 49.4171 29.2365 46.9153C27.2051 46.6397 23.3977 45.2665 21.7662 39.0279C20.8935 35.6914 21.117 32.9724 22.4307 30.9448C23.0113 30.0487 23.7151 29.4379 24.3705 29.0246C24.3725 28.3586 24.4003 27.5249 24.4775 26.5765C23.2975 24.9368 21.6933 21.3989 23.6801 15.6723C25.7801 9.61829 30.5281 8.68384 32.8199 8.60281C33.5947 7.16301 35.0585 5.11767 37.7161 3.23726C40.6671 1.14973 44.52 0 48.5656 0C53.5433 0 58.5521 1.75192 63.0503 5.06685C70.3433 10.441 69.7186 22.3607 69.5397 24.5254C69.8044 26.3397 69.8777 27.9127 69.8811 29.0251ZM64.1037 42.1855C65.0751 42.1855 66.8524 41.6179 67.8468 37.8149C68.3363 35.944 68.332 34.4515 67.8348 33.6139C67.5457 33.1273 67.1353 32.9628 67.001 32.9206C65.7103 32.7811 64.9341 31.6539 65.0472 30.3522C65.0501 30.3186 65.1551 28.9062 64.9753 26.8364C60.6267 26.4658 50.3252 25.3808 45.1706 23.0995C42.1611 21.7676 39.8866 20.2262 38.2799 18.9144C37.6907 20.288 36.8631 21.7853 35.7321 23.0075C33.5098 25.4076 30.8738 26.8062 29.224 27.5153C29.1176 29.2111 29.2015 30.3253 29.2039 30.357C29.3113 31.6549 28.5365 32.7811 27.2501 32.9206C27.1159 32.9628 26.7055 33.1268 26.4164 33.6139C25.9196 34.452 25.9153 35.9445 26.4049 37.8158C27.3997 41.6179 29.177 42.186 30.1479 42.186C30.2165 42.186 30.2683 42.1827 30.299 42.1798C30.4864 42.1323 30.6715 42.1098 30.8518 42.1098C31.7402 42.1098 32.5164 42.6578 32.9201 43.5256C33.8694 45.5662 36.8603 51.3531 39.2614 53.5946C39.9216 54.2107 40.8455 54.7573 42.0067 55.218C45.2646 56.5111 48.9866 56.5111 52.2449 55.218C53.4062 54.7573 54.3301 54.2107 54.9903 53.5946C57.3914 51.3531 60.3822 45.5662 61.3315 43.5256C61.8167 42.4818 62.8427 41.8988 63.9522 42.1793C63.9829 42.1817 64.0346 42.1855 64.1037 42.1855ZM83.2199 69.8322L62.2607 61.449C61.6575 61.2083 60.9829 61.2222 60.3894 61.4873C59.7968 61.7534 59.337 62.2487 59.1164 62.8595L53.8477 77.4262L52.8044 74.4268L54.4643 70.3692C54.7664 69.6299 54.681 68.7884 54.2356 68.1249C53.7902 67.4618 53.0442 67.0638 52.2454 67.0638H42.0067C41.2079 67.0638 40.4614 67.4618 40.0165 68.1249C39.5711 68.7884 39.4857 69.6299 39.7878 70.3692L41.4477 74.4268L40.4044 77.4262L35.1357 62.8595C34.9151 62.2487 34.4553 61.7529 33.8627 61.4873C33.2692 61.2217 32.5941 61.2078 31.9914 61.449L11.0317 69.8322C4.59553 72.4064 0.436768 78.5496 0.436768 85.482V102.402C0.436768 103.727 1.51026 104.8 2.83403 104.8H91.4176C92.7414 104.8 93.8148 103.727 93.8148 102.402V85.482C93.8148 78.5496 89.6561 72.4069 83.2199 69.8322ZM80.0944 94.7963C81.4181 94.7963 82.4916 93.7233 82.4916 92.399V84.9244C82.4916 83.6001 81.4181 82.5271 80.0944 82.5271H63.9992C62.6754 82.5271 61.6019 83.6001 61.6019 84.9244V92.399C61.6019 93.7233 62.6754 94.7963 63.9992 94.7963H80.0944Z" fill="white"/>
</g>
</svg>
