<svg width="90" height="90" viewBox="0 0 90 90" fill="none" xmlns="http://www.w3.org/2000/svg">
<mask id="mask0" mask-type="alpha" maskUnits="userSpaceOnUse" x="0" y="0" width="90" height="90">
<rect width="90" height="90" fill="#C4C4C4"/>
</mask>
<g mask="url(#mask0)">
<path d="M27.9956 29.4561C27.33 29.4561 26.7904 29.9992 26.7904 30.6696C26.7904 31.3399 27.33 31.8831 27.9956 31.8831H61.0991C61.7648 31.8831 62.3044 31.3399 62.3044 30.6696C62.3044 29.9992 61.7648 29.4561 61.0991 29.4561H27.9956Z" fill="white"/>
<path d="M61.0991 42.117C61.7648 42.117 62.3044 41.5739 62.3044 40.9035C62.3044 40.2332 61.7648 39.69 61.0991 39.69H51.3273C49.285 38.4297 46.8854 37.7018 44.3197 37.7018C41.6476 37.7018 39.1571 38.4936 37.0617 39.8518H27.9956C27.33 39.8518 26.7904 40.395 26.7904 41.0653C26.7904 41.7357 27.33 42.2788 27.9956 42.2788H34.2509C32.388 44.3975 31.1739 47.1049 30.9216 50.0858H27.9956C27.33 50.0858 26.7904 50.629 26.7904 51.2993C26.7904 51.9697 27.33 52.5128 27.9956 52.5128H30.9298C31.2104 55.54 32.4834 58.2806 34.4187 60.4007H27.9956C27.33 60.4007 26.7904 60.9439 26.7904 61.6142C26.7904 62.2846 27.33 62.8278 27.9956 62.8278H37.3552C39.3879 64.0715 41.7722 64.7883 44.3197 64.7883C46.8487 64.7883 49.2511 64.0892 51.3129 62.8278H61.0991C61.7648 62.8278 62.3044 62.2846 62.3044 61.6142C62.3044 60.9439 61.7648 60.4007 61.0991 60.4007H54.2421C55.0729 59.4838 55.788 58.441 56.3592 57.2894C56.6567 56.6898 56.4152 55.961 55.8196 55.6614C55.2242 55.362 54.5003 55.6052 54.2029 56.2047C52.319 60.0022 48.5319 62.3611 44.3195 62.3611C38.232 62.3611 33.2793 57.3745 33.2793 51.245C33.2793 45.1154 38.232 40.1287 44.3195 40.1287C50.4072 40.1287 55.3599 45.1154 55.3599 51.245V51.2789C55.3599 51.2828 55.3603 51.2865 55.3603 51.2904C55.3603 51.2933 55.3599 51.2963 55.3599 51.2992C55.3599 51.9695 55.8995 52.5127 56.5651 52.5127H61.0991C61.7648 52.5127 62.3044 51.9695 62.3044 51.2992C62.3044 50.6288 61.7648 50.0857 61.0991 50.0857H57.7178C57.459 47.029 56.1907 44.2583 54.2469 42.1169H61.0991V42.117Z" fill="white"/>
<path d="M61.0991 70.7157H27.9956C27.33 70.7157 26.7904 71.2589 26.7904 71.9292C26.7904 72.5996 27.33 73.1427 27.9956 73.1427H61.0991C61.7648 73.1427 62.3044 72.5996 62.3044 71.9292C62.3044 71.2589 61.7648 70.7157 61.0991 70.7157Z" fill="white"/>
<path fill-rule="evenodd" clip-rule="evenodd" d="M70.6758 10.9986H61.4467C61.173 9.81809 60.1214 8.93497 58.8667 8.93497H52.9841V8.66768C52.9841 6.09388 50.9045 4 48.3484 4H40.7465C38.1905 4 36.1109 6.09388 36.1109 8.66768V8.93497H30.2283C28.9736 8.93497 27.9221 9.81809 27.6483 10.9986H18.4192C15.9824 10.9986 14 12.9948 14 15.4482V82.3933C14 84.8467 15.9824 86.8428 18.4192 86.8428H33.1105C33.7761 86.8428 34.3158 86.2997 34.3158 85.6293C34.3158 84.959 33.7761 84.4158 33.1105 84.4158H18.4192C17.3115 84.4158 16.4105 83.5086 16.4105 82.3933V15.4482C16.4105 14.3329 17.3115 13.4256 18.4192 13.4256H27.5766V15.8527H20.8296C19.7219 15.8527 18.8209 16.7599 18.8209 17.8752V79.9662C18.8209 81.0815 19.7219 81.9887 20.8296 81.9887H68.2653C69.373 81.9887 70.2741 81.0815 70.2741 79.9662V17.8752C70.2741 16.7599 69.373 15.8527 68.2653 15.8527H61.5183V13.4256H70.6758C71.7835 13.4256 72.6845 14.3329 72.6845 15.4482V82.3933C72.6845 83.5086 71.7835 84.4158 70.6758 84.4158H38.7349C38.0693 84.4158 37.5297 84.959 37.5297 85.6293C37.5297 86.2997 38.0693 86.8428 38.7349 86.8428H70.6758C73.1126 86.8428 75.095 84.8467 75.095 82.3933V15.4482C75.095 12.9948 73.1124 10.9986 70.6758 10.9986ZM29.9872 11.6047C29.9872 11.4709 30.0953 11.362 30.2282 11.362H37.3161C37.9817 11.362 38.5213 10.8188 38.5213 10.1485V8.66767C38.5213 7.43215 39.5195 6.42703 40.7465 6.42703H48.3484C49.5753 6.42703 50.5735 7.43215 50.5735 8.66767V10.1485C50.5735 10.8188 51.1132 11.362 51.7788 11.362H58.8666C58.9995 11.362 59.1077 11.4709 59.1077 11.6047C59.1077 14.3549 59.1092 16.3254 59.1103 17.7383C59.1123 20.2903 59.1128 21.0233 59.1004 21.2462C59.0918 21.402 58.9871 21.4755 58.8666 21.4755H30.2282C30.0953 21.4755 29.9872 21.3666 29.9872 21.2328V11.6047ZM21.2313 79.5617H67.8634V18.2797H61.5181V21.2327C61.5181 22.7089 60.3203 23.9025 58.8666 23.9025H30.2281C28.7665 23.9025 27.5766 22.7053 27.5766 21.2327V18.2797H21.2313V79.5617Z" fill="white"/>
<path d="M48.9833 46.2545L41.5614 53.4462L39.9003 50.0659C39.6051 49.4652 38.8818 49.2191 38.2856 49.5165C37.6891 49.8137 37.4447 50.5415 37.7399 51.1422L40.1309 56.0076C40.4912 56.7405 41.4579 56.9142 42.0469 56.3439L50.6548 48.0031C51.1343 47.5384 51.1491 46.7702 50.6875 46.2874C50.226 45.8046 49.463 45.79 48.9833 46.2545Z" fill="white"/>
</g>
</svg>
