<svg width="90" height="90" viewBox="0 0 90 90" fill="none" xmlns="http://www.w3.org/2000/svg">
<mask id="mask0" mask-type="alpha" maskUnits="userSpaceOnUse" x="0" y="0" width="90" height="90">
<rect width="90" height="90" fill="#C4C4C4"/>
</mask>
<g mask="url(#mask0)">
<mask id="mask1" mask-type="alpha" maskUnits="userSpaceOnUse" x="10" y="4" width="70" height="83">
<path fill-rule="evenodd" clip-rule="evenodd" d="M10 4H79.2277V86.8755H10V4Z" fill="white"/>
</mask>
<g mask="url(#mask1)">
<path fill-rule="evenodd" clip-rule="evenodd" d="M41.0187 59.624C39.9553 60.1224 38.9706 60.5995 37.9735 61.0481C36.0712 61.9036 34.4289 61.3214 33.4476 59.4749C32.3688 57.4453 31.2887 55.4163 30.1828 53.4021C30.066 53.1894 29.7902 52.9829 29.5558 52.9343C28.3471 52.6832 27.1229 52.5088 25.915 52.2543C25.5033 52.1676 25.3163 52.2706 25.1175 52.6291C21.5988 58.975 18.0666 65.3134 14.5386 71.654C14.4569 71.8007 14.3887 71.9551 14.2839 72.1672H14.9127C18.314 72.1678 21.7154 72.1799 25.1165 72.16C25.9248 72.1554 26.4763 72.4834 26.8664 73.1809C27.5202 74.3493 28.1922 75.5074 28.8558 76.6702C29.8047 78.3328 30.7531 79.9956 31.7377 81.7215C31.8646 81.5162 31.9616 81.3698 32.0482 81.2173C32.611 80.2261 33.1715 79.2335 33.7327 78.2413C36.6278 73.1231 39.5243 68.0059 42.4107 62.8826C42.5029 62.7189 42.5831 62.444 42.511 62.3057C42.0444 61.4101 41.534 60.5381 41.0187 59.624V59.624ZM74.9547 72.1684C74.4873 71.331 74.0841 70.6073 73.6796 69.8844C70.5074 64.2159 67.3304 58.55 64.1727 52.8732C63.9663 52.5021 63.7709 52.4246 63.3776 52.5059C62.1156 52.7667 60.8467 52.9942 59.5768 53.2123C59.2117 53.275 58.9888 53.4341 58.8066 53.7743C57.7561 55.7368 56.6784 57.6844 55.6099 59.6372C54.5761 61.5268 52.836 62.0852 50.929 61.1397C48.9524 60.1597 46.9722 59.1872 45.0022 58.1936C44.6438 58.013 44.3438 57.9571 44.0045 58.319C48.467 66.1762 52.9355 74.0437 57.4455 81.9847C57.6044 81.7108 57.7055 81.5433 57.8003 81.3723C59.311 78.6512 60.8325 75.9362 62.3231 73.2036C62.7261 72.4648 63.2826 72.1555 64.1049 72.1603C67.4702 72.1797 70.8358 72.1684 74.2013 72.1684H74.9547ZM53.0095 7.52571C50.7134 8.59369 48.4821 9.61827 46.2631 10.6697C45.2683 11.1411 44.3075 11.1469 43.3233 10.6522C41.5117 9.74151 39.6917 8.84847 37.8746 7.94932C37.5095 7.76871 37.1417 7.59398 36.7515 7.40497C36.6226 7.62921 36.5123 7.81375 36.4091 8.00233C35.3402 9.95539 34.264 11.9044 33.2079 13.8646C32.6639 14.8741 31.8599 15.4826 30.7409 15.6793C28.5196 16.0699 26.3032 16.4894 24.0781 16.8556C23.5464 16.9431 23.4208 17.1335 23.4904 17.664C23.7809 19.8787 23.9954 22.104 24.3038 24.3159C24.4761 25.5514 24.1681 26.5558 23.3142 27.4437C21.7887 29.0303 20.2928 30.6464 18.7857 32.2514C18.6528 32.393 18.5291 32.5435 18.3878 32.7051C18.5398 32.8812 18.6657 33.0322 18.7968 33.1784C20.304 34.8577 21.8081 36.5399 23.3217 38.2133C24.021 38.9863 24.3084 39.8822 24.1665 40.9186C23.9573 42.4479 23.7416 43.9762 23.5316 45.5055C23.3965 46.4891 23.2665 47.4736 23.1328 48.4668C23.3107 48.5195 23.4267 48.565 23.547 48.5878C25.8516 49.0228 28.1515 49.4867 30.4639 49.8745C31.613 50.0672 32.3903 50.6775 32.918 51.6841C33.4139 52.63 33.9029 53.5798 34.3973 54.5266C35.0413 55.7598 35.6875 56.992 36.3542 58.2656C36.549 58.1782 36.7103 58.1094 36.8685 58.0339C38.9405 57.0452 41.0159 56.0637 43.082 55.0625C44.0904 54.5738 45.0716 54.5756 46.0737 55.0786C48.1101 56.1008 50.1546 57.1063 52.1967 58.1168C52.334 58.1847 52.4788 58.2375 52.6286 58.301C52.7382 58.1104 52.8308 57.9559 52.9171 57.7979C54.0113 55.7966 55.1079 53.7967 56.1965 51.7923C56.7139 50.8397 57.4941 50.2482 58.541 50.0554C59.8789 49.8089 61.2237 49.6016 62.5651 49.3748C63.6182 49.1967 64.6706 49.0148 65.7528 48.8295C65.729 48.574 65.7148 48.3776 65.6918 48.1824C65.4224 45.8916 65.157 43.6002 64.8788 41.3105C64.7467 40.224 65.0565 39.3062 65.818 38.5337C66.3246 38.0199 66.8175 37.4923 67.3156 36.97C68.5094 35.7183 69.7027 34.4664 70.9119 33.1979C70.7698 33.0341 70.6561 32.8973 70.5365 32.766C68.9805 31.0579 67.4265 29.3482 65.8659 27.6445C65.1882 26.9047 64.8992 26.0291 65.0261 25.0411C65.2667 23.1682 65.5467 21.3004 65.8074 19.43C65.9013 18.7559 65.9869 18.0807 66.0766 17.4029C65.9186 17.3579 65.8346 17.3274 65.7481 17.31C63.4315 16.8435 61.1191 16.3535 58.7959 15.9244C57.7543 15.732 57.0353 15.1601 56.5337 14.2657C56.1355 13.5558 55.7787 12.822 55.4016 12.0999C54.615 10.594 53.8271 9.08885 53.0095 7.52571V7.52571ZM67.1337 51.7115C68.8714 54.8157 70.5857 57.8798 72.3017 60.9428C74.4959 64.8591 76.691 68.7747 78.8869 72.69C79.7145 74.1654 78.9793 75.4222 77.2825 75.4228C73.2711 75.4243 69.2595 75.4318 65.2482 75.4113C64.8227 75.4091 64.6193 75.558 64.4232 75.9162C62.6325 79.1873 60.8167 82.4443 59.0262 85.7156C58.6745 86.3583 58.2635 86.8694 57.4793 86.8755C56.6963 86.8816 56.2628 86.3756 55.904 85.7452C52.2429 79.3111 48.5762 72.8804 44.9103 66.4491C44.8137 66.2796 44.7108 66.1138 44.5702 65.8781C44.4368 66.0893 44.3303 66.2452 44.2362 66.4084C40.5451 72.804 36.8543 79.1997 33.1655 85.5965C32.359 86.995 30.984 87.0089 30.1855 85.6057C28.3595 82.3966 26.539 79.1843 24.7373 75.9611C24.5167 75.5665 24.2907 75.4086 23.8283 75.4111C19.8348 75.433 15.8403 75.3752 11.848 75.4477C10.3022 75.4759 9.55887 73.9872 10.2729 72.723C14.1804 65.8044 18.015 58.8432 21.8739 51.8961C21.9612 51.7391 22.0407 51.5774 22.1378 51.3912C22.0074 51.3085 21.892 51.2314 21.7729 51.1607C20.4828 50.3953 19.8985 49.1226 20.1129 47.6119C20.4368 45.3282 20.7337 43.0407 21.0663 40.7584C21.1173 40.4081 21.0228 40.1875 20.797 39.9429C19.2913 38.3114 17.7982 36.6677 16.3028 35.0263C14.8576 33.44 14.8665 31.5857 16.3292 30.025C17.835 28.4184 19.3392 26.8102 20.8575 25.2157C21.1038 24.957 21.1961 24.7076 21.1517 24.3477C20.8718 22.0762 20.6256 19.8006 20.3408 17.5298C20.09 15.5297 21.2279 13.9384 23.1813 13.5946C25.4205 13.2005 27.6599 12.8064 29.8931 12.3795C30.1268 12.3348 30.3979 12.1136 30.5189 11.8977C31.643 9.89247 32.7345 7.86852 33.8423 5.85383C34.8334 4.05139 36.4892 3.53092 38.3078 4.43498C40.3323 5.44145 42.3621 6.43723 44.3811 7.45483C44.685 7.60796 44.9276 7.6109 45.2322 7.46453C47.1889 6.52459 49.1468 5.58662 51.1212 4.68605C51.6185 4.45919 52.1706 4.27868 52.7094 4.23789C54.0462 4.13657 55.0676 4.72215 55.7147 5.92669C56.837 8.01576 57.9556 10.1071 59.0614 12.2052C59.2274 12.5203 59.423 12.6831 59.7836 12.7519C61.9813 13.1718 64.1737 13.6213 66.3672 14.0641C68.3327 14.4609 69.4249 15.9599 69.1691 17.972C68.8827 20.2241 68.5686 22.4728 68.2376 24.7185C68.1727 25.1588 68.2629 25.4608 68.5643 25.7845C70.0647 27.3961 71.5417 29.0302 73.0251 30.6583C74.4115 32.18 74.3971 34.0869 72.9914 35.5829C71.4589 37.2138 69.9324 38.8506 68.3882 40.4702C68.1487 40.7212 68.0927 40.9562 68.1348 41.293C68.4159 43.5461 68.6863 45.8008 68.9377 48.0576C69.1135 49.6352 68.5485 50.8668 67.1337 51.7115V51.7115Z" fill="white"/>
</g>
<path fill-rule="evenodd" clip-rule="evenodd" d="M44.6015 19.7566C37.5241 19.7288 31.6872 25.6107 31.6625 32.7953C31.6378 39.9985 37.4135 45.9403 44.4725 45.9738C51.5642 46.0075 57.4274 40.1446 57.4661 32.9809C57.5053 25.7142 51.737 19.7846 44.6015 19.7566M44.5678 16.5045C53.49 16.5171 60.6923 23.877 60.6708 32.9603C60.6496 41.9233 53.3549 49.2532 44.4796 49.2299C35.6728 49.2068 28.4444 41.814 28.4568 32.8429C28.4694 23.837 35.7121 16.4921 44.5678 16.5045" fill="white"/>
<path fill-rule="evenodd" clip-rule="evenodd" d="M42.0938 34.695C43.6281 33.1358 45.1436 31.5955 46.6593 30.0555C47.5443 29.1564 48.4272 28.2551 49.3154 27.3594C50.1228 26.5452 51.1586 26.4872 51.8944 27.2068C52.6312 27.9275 52.5967 29.0405 51.7881 29.8644C48.9856 32.72 46.1793 35.572 43.3673 38.4181C42.5648 39.2303 41.5558 39.2273 40.7509 38.4195C39.5933 37.258 38.4445 36.0875 37.2993 34.9131C36.5457 34.1401 36.5098 33.0459 37.1984 32.3338C37.9078 31.6003 38.9832 31.6306 39.7773 32.4195C40.5058 33.1434 41.2226 33.8793 41.9457 34.6088C41.97 34.6334 42.0067 34.6452 42.0938 34.695" fill="white"/>
</g>
</svg>
