<svg width="90" height="90" viewBox="0 0 90 90" fill="none" xmlns="http://www.w3.org/2000/svg">
<path d="M60.8203 56.0742C59.8496 56.0742 59.0625 56.8612 59.0625 57.832V69.9609C59.0625 74.8072 55.1197 78.75 50.2734 78.75H31.2947C30.3242 78.75 29.5376 79.5363 29.5369 80.5066L29.5344 84.0015L25.3389 79.8061C25.0673 79.1826 24.4457 78.75 23.7268 78.75H12.3047C7.4584 78.75 3.51562 74.8072 3.51562 69.9609V42.8906C3.51562 38.0443 7.4584 34.1016 12.3047 34.1016H30.0586C31.0293 34.1016 31.8164 33.3146 31.8164 32.3437C31.8164 31.3729 31.0293 30.5859 30.0586 30.5859H12.3047C5.51988 30.5859 0 36.1058 0 42.8906V69.9609C0 76.7457 5.51988 82.2656 12.3047 82.2656H22.8266L30.0461 89.4851C30.3824 89.8214 30.8319 90 31.2894 90C31.5156 90 31.744 89.9562 31.9611 89.8664C32.618 89.5946 33.0463 88.9541 33.0469 88.2434L33.0511 82.2656H50.2734C57.0582 82.2656 62.5781 76.7457 62.5781 69.9609V57.832C62.5781 56.8612 61.791 56.0742 60.8203 56.0742Z" fill="white"/>
<path fill-rule="evenodd" clip-rule="evenodd" d="M60.0022 0H64.4511C78.5387 0 90 11.4613 90 25.5491C90 29.63 89.0661 33.5304 87.2237 37.1421C85.6016 40.3219 83.2903 43.1684 80.5078 45.4217V55.5917C80.5078 56.3026 80.0796 56.9435 79.4229 57.2156C79.2054 57.3057 78.9769 57.3495 78.7504 57.3495C78.293 57.3495 77.8437 57.1709 77.5074 56.835L70.9355 50.2668C68.8261 50.8187 66.6497 51.098 64.4509 51.098H60.0021C45.9144 51.098 34.4531 39.6369 34.4531 25.5491C34.4531 11.4613 45.9144 0 60.0022 0ZM76.9922 44.5646C76.9922 44.0125 77.2516 43.4925 77.6923 43.1604C83.2799 38.9522 86.4844 32.5331 86.4844 25.5491C86.4844 13.3998 76.6004 3.51562 64.4511 3.51562H60.0022C47.8529 3.51562 37.9688 13.3998 37.9688 25.5491C37.9688 37.6984 47.8528 47.5826 60.0022 47.5826H64.4511C66.6591 47.5826 68.8395 47.2567 70.9318 46.6137C71.1016 46.5615 71.2756 46.536 71.4479 46.536C71.907 46.536 72.356 46.7162 72.6906 47.0505L76.9922 51.3497V44.5646Z" fill="white"/>
<path d="M70.1425 19.2342C69.8888 15.5542 66.9223 12.5877 63.2422 12.334C61.156 12.1908 59.1651 12.8944 57.6413 14.317C56.1383 15.7199 55.2765 17.7031 55.2765 19.7582C55.2765 20.729 56.0636 21.516 57.0343 21.516C58.005 21.516 58.7921 20.729 58.7921 19.7582C58.7921 18.658 59.2354 17.6382 60.0402 16.8871C60.8442 16.1367 61.895 15.7653 63.0007 15.8416C64.9392 15.9752 66.5017 17.5377 66.6353 19.476C66.7703 21.4337 65.4859 23.1638 63.5815 23.5898C62.0384 23.9351 60.9609 25.2759 60.9609 26.8504V31.0736C60.9609 32.0444 61.7481 32.8314 62.7187 32.8314C63.6896 32.8314 64.4765 32.0444 64.4764 31.0736V26.9909C68.0183 26.1352 70.3947 22.8941 70.1425 19.2342Z" fill="white"/>
<path d="M63.9615 36.784C63.6346 36.4571 63.1811 36.269 62.7187 36.269C62.2564 36.269 61.8029 36.4571 61.476 36.784C61.149 37.111 60.9609 37.5645 60.9609 38.0268C60.9609 38.4909 61.1492 38.9444 61.476 39.2713C61.8029 39.5983 62.2564 39.7846 62.7187 39.7846C63.1811 39.7846 63.6346 39.5983 63.9615 39.2713C64.2885 38.9426 64.4766 38.4909 64.4766 38.0268C64.4766 37.5645 64.2883 37.111 63.9615 36.784Z" fill="white"/>
<path d="M48.3398 54.4922H11.25C10.2793 54.4922 9.49219 55.2792 9.49219 56.25C9.49219 57.2208 10.2793 58.0078 11.25 58.0078H48.3398C49.3107 58.0078 50.0977 57.2208 50.0977 56.25C50.0977 55.2792 49.3105 54.4922 48.3398 54.4922Z" fill="white"/>
<path d="M49.5824 64.851C49.2557 64.524 48.8021 64.3359 48.3398 64.3359C47.8775 64.3359 47.424 64.524 47.0971 64.851C46.7699 65.1779 46.582 65.6314 46.582 66.0937C46.582 66.5561 46.7701 67.0096 47.0971 67.3365C47.424 67.6635 47.8775 67.8516 48.3398 67.8516C48.8021 67.8516 49.2557 67.6635 49.5824 67.3365C49.9096 67.0096 50.0977 66.5578 50.0977 66.0937C50.0977 65.6314 49.9094 65.1779 49.5824 64.851Z" fill="white"/>
<path d="M41.4258 64.3359H11.25C10.2793 64.3359 9.49219 65.1229 9.49219 66.0937C9.49219 67.0646 10.2793 67.8516 11.25 67.8516H41.4258C42.3967 67.8516 43.1837 67.0646 43.1837 66.0937C43.1837 65.1229 42.3965 64.3359 41.4258 64.3359Z" fill="white"/>
<path d="M36.9141 44.6484H11.25C10.2793 44.6484 9.49219 45.4354 9.49219 46.4062C9.49219 47.3771 10.2793 48.1641 11.25 48.1641H36.9141C37.8849 48.1641 38.6719 47.3771 38.6719 46.4062C38.6719 45.4354 37.8847 44.6484 36.9141 44.6484Z" fill="white"/>
</svg>
