<svg width="90" height="90" viewBox="0 0 90 90" fill="none" xmlns="http://www.w3.org/2000/svg">
<mask id="mask0" mask-type="alpha" maskUnits="userSpaceOnUse" x="0" y="14" width="74" height="76">
<path fill-rule="evenodd" clip-rule="evenodd" d="M0 14.5256H73.0094V90H0V14.5256Z" fill="white"/>
</mask>
<g mask="url(#mask0)">
<path fill-rule="evenodd" clip-rule="evenodd" d="M59.5145 45.9512C60.5248 45.3071 60.9441 44.4513 60.8728 43.3532C60.8114 42.4096 60.3873 41.6822 59.4605 41.1253C59.4605 42.6884 59.4596 44.1139 59.4622 45.5397C59.4626 45.6468 59.4886 45.7538 59.5145 45.9512V45.9512ZM30.3283 41.1144C29.3052 41.7901 28.8972 42.6337 28.9479 43.7019C28.9934 44.6573 29.4036 45.4026 30.3283 45.9445V41.1144ZM58.3324 52.1752C60.7177 52.5226 61.2425 51.5458 60.7255 48.5803C60.1634 48.9131 59.4208 49.1029 59.1583 49.5647C58.7243 50.3281 58.5999 51.2668 58.3324 52.1752V52.1752ZM44.8746 64.39C46.1913 63.077 47.5783 61.694 48.8865 60.3895C46.2831 61.1473 43.5155 61.1169 40.8633 60.3777C42.2131 61.7277 43.6069 63.1219 44.8746 64.39V64.39ZM14.5554 58.6696C15.0428 58.1982 15.5385 57.7192 15.9385 57.3325C13.7876 55.1765 11.6076 52.9916 9.43833 50.8173C9.00237 51.267 8.52167 51.763 8.08817 52.2102C10.2599 54.3794 12.4462 56.5629 14.5554 58.6696V58.6696ZM38.0754 82.1736C38.6635 81.6227 39.2536 81.0698 39.6997 80.6518C37.4617 78.4066 35.2809 76.219 33.055 73.986C32.5404 74.4585 31.9497 75.0008 31.3944 75.5109C33.6444 77.7548 35.8177 79.9222 38.0754 82.1736V82.1736ZM12.4203 61.0226C10.187 58.7972 7.99156 56.6093 5.79193 54.4173C2.23015 57.3785 1.9097 62.1575 5.20423 65.4778C11.6268 71.9508 18.1015 78.3722 24.5623 84.8074C25.9646 86.204 27.6426 87.0093 29.6562 87.0615C32.1828 87.1268 34.1298 86.018 35.6694 84.2999C33.4098 82.0482 31.2141 79.8599 29.0088 77.6624C26.6474 79.4053 24.6023 79.251 22.4439 77.0991C19.2253 73.8903 16.0141 70.6743 12.7888 67.4726C12.0188 66.7081 11.4473 65.8527 11.2678 64.7661C11.0261 63.3018 11.5484 62.0696 12.4203 61.0226V61.0226ZM44.76 34.1435C44.7933 34.1205 44.6899 34.1762 44.6045 34.2521C41.5374 36.9824 37.9872 38.6424 33.8793 39.046C33.3146 39.1016 33.2464 39.4006 33.2501 39.8708C33.2666 42.0083 33.2252 44.1467 33.264 46.2838C33.3919 53.3436 38.7738 58.376 45.8292 58.0026C48.2867 57.8726 50.4464 56.9293 52.2805 55.152H44.982V52.2411H46.0299C48.7592 52.2411 51.4888 52.2208 54.2178 52.2569C54.812 52.2648 55.179 52.0962 55.3319 51.5397C55.7239 50.1127 56.317 48.6987 56.434 47.2476C56.631 44.8027 56.5036 42.3328 56.5538 39.8741C56.5665 39.2506 56.317 39.0782 55.7455 39.0258C53.6222 38.8311 51.5737 38.2837 49.7125 37.2585C48.0315 36.3325 46.4539 35.2191 44.76 34.1435V34.1435ZM28.9493 38.4752C29.4741 38.2659 29.9031 38.0946 30.4062 37.8939V36.2688C33.2377 36.3581 35.9076 36.0013 38.452 34.8599C40.9985 33.7177 42.9895 31.8813 44.9471 29.8354C48.7569 34.335 53.5313 36.6126 59.4608 36.2619V37.9124C59.9283 38.101 60.3555 38.2736 60.8467 38.4719C60.8671 38.2135 60.8999 38.0191 60.8951 37.8255C60.8386 35.5743 60.9716 33.2977 60.6807 31.0768C59.62 22.9803 52.2467 16.9761 44.1207 17.444C35.7608 17.9255 29.3317 24.4219 28.9614 32.8133C28.8795 34.6708 28.9493 36.5349 28.9493 38.4752V38.4752ZM33.3052 69.8481C33.543 70.0715 33.7572 70.2628 33.9605 70.4651C35.4352 71.9332 36.9238 73.388 38.3712 74.8825C38.7951 75.3203 39.2295 75.4822 39.8327 75.4812C49.222 75.4647 58.6112 75.4696 68.0005 75.4696H69.0731C68.3279 73.2549 67.6707 71.1687 66.9239 69.1153C66.0036 66.5851 64.1838 64.9832 61.5478 64.4286C59.0543 63.9039 56.4949 63.6536 54.0382 63.0051C51.9929 62.4653 50.5418 62.788 49.1876 64.491C47.9432 66.0562 46.3774 67.3668 44.9289 68.8136C44.6497 68.5501 44.4335 68.3559 44.2281 68.1509C42.5054 66.4334 40.7983 64.6998 39.0479 63.0109C38.8021 62.7738 38.3219 62.5985 37.994 62.6541C34.8452 63.1863 31.7015 63.7504 28.5653 64.3535C25.8219 64.8811 23.9045 66.452 22.8984 69.0704C22.5527 69.9701 22.2303 70.8838 21.9886 71.8147C21.9146 72.0992 22.0505 72.547 22.2539 72.7745C22.956 73.5597 23.7297 74.2813 24.4774 75.0256C25.652 76.1949 26.2387 76.2145 27.455 75.12C29.3921 73.3767 31.3271 71.6309 33.3052 69.8481V69.8481ZM28.6303 90C28.0393 89.8483 27.4421 89.7168 26.8584 89.5408C25.1343 89.0212 23.6906 88.0511 22.4244 86.7863C16.0353 80.403 9.62968 74.0359 3.25028 67.6431C-1.10196 63.2817 -1.07536 57.1414 3.28199 52.7651C5.32889 50.7092 7.38741 48.6647 9.38234 46.6731C12.9757 50.2549 16.5364 53.8041 20.2558 57.5117C19.4123 58.2991 18.4853 59.1402 17.5863 60.0101C16.6172 60.9481 15.6615 61.901 14.7238 62.8701C13.9578 63.6613 13.909 64.443 14.6359 65.1916C16.1867 66.7888 17.7778 68.3464 19.4704 70.0381C19.6177 69.6195 19.7359 69.3117 19.8351 68.9982C21.2274 64.5991 24.2275 62.0963 28.7769 61.3504C31.6976 60.8718 34.6037 60.3049 37.8075 59.7248C37.5388 59.3012 37.4155 58.8844 37.1375 58.7021C33.8493 56.5441 31.7312 53.5744 30.744 49.7763C30.6733 49.5044 30.37 49.1874 30.1019 49.0885C27.4806 48.1215 26.019 46.1417 25.9994 43.3624C25.9762 40.0526 25.9582 36.7421 26.0015 33.4329C26.1227 24.1792 32.462 16.5584 41.4166 14.8552C51.5252 12.9325 61.4869 19.6203 63.4445 29.6926C63.7109 31.0633 63.8073 32.4847 63.818 33.8839C63.8598 39.3024 63.8372 44.7214 63.8342 50.1402C63.8325 53.4378 62.0845 55.244 58.7757 55.1427C57.2684 55.0965 56.1189 55.3498 55.1549 56.6372C54.5438 57.4535 53.5405 57.9719 52.7407 58.6559C52.4722 58.8856 52.2888 59.2143 51.9164 59.6891C53.8032 60.0403 55.4037 60.3399 57.0049 60.6359C58.5615 60.9236 60.1201 61.2014 61.6755 61.4946C65.6428 62.2422 68.363 64.5054 69.7195 68.2901C70.8737 71.5108 71.9063 74.7747 72.9893 78.0203C73.0154 78.0989 73.0006 78.191 73.0094 78.3678H41.8778C42.7916 79.1462 43.5121 79.76 44.325 80.4526C41.2679 83.1811 38.4824 85.7336 35.6173 88.1942C34.3484 89.284 32.6968 89.627 31.0967 90H28.6303Z" fill="white"/>
</g>
<mask id="mask1" mask-type="alpha" maskUnits="userSpaceOnUse" x="60" y="0" width="30" height="30">
<path fill-rule="evenodd" clip-rule="evenodd" d="M60.8655 0H89.9999V29.0306H60.8655V0Z" fill="white"/>
</mask>
<g mask="url(#mask1)">
<path fill-rule="evenodd" clip-rule="evenodd" d="M71.6453 23.1154C72.0131 22.9087 72.2619 22.7811 72.4985 22.6341C74.0917 21.6448 75.7739 20.77 77.2529 19.6323C79.6009 17.8262 82.1391 17.0728 85.0892 17.3814C86.6305 17.5426 87.1069 16.9362 87.1079 15.3445C87.1104 11.9185 87.1097 8.49254 87.1083 5.06656C87.1076 3.3309 86.6835 2.91324 84.9092 2.91254C79.7735 2.91025 74.6378 2.91148 69.5024 2.91183C68.1524 2.91201 66.8019 2.88828 65.4528 2.92414C64.3507 2.9535 63.8461 3.4717 63.8417 4.57191C63.8267 8.29074 63.8273 12.0094 63.8408 15.7282C63.8451 16.8685 64.3769 17.3918 65.5162 17.4057C67.0714 17.4245 68.627 17.4108 70.1824 17.411C70.9628 17.4111 71.7436 17.4111 72.5987 17.4111C72.2761 19.3412 71.9735 21.1512 71.6453 23.1154V23.1154ZM86.5896 0C86.8176 0.110566 87.0432 0.226055 87.2738 0.33082C88.872 1.05645 89.9125 2.25457 89.9423 4.03031C90.0103 8.06783 90.0229 12.1082 89.9546 16.1457C89.916 18.4157 88.3347 19.9807 86.0518 20.2686C85.7616 20.3052 85.4604 20.3701 85.1776 20.3296C82.6829 19.9731 80.614 20.8318 78.566 22.2268C75.3249 24.4345 71.9273 26.4132 68.5951 28.4876C68.3502 28.64 68.0984 28.7814 67.6751 29.0306C68.1797 26.0685 68.6567 23.268 69.156 20.3377C67.9394 20.3377 66.7754 20.356 65.6122 20.3338C63.3496 20.2911 61.669 19.1405 61.1289 17.2188C60.9652 16.6365 60.9116 16.0072 60.9078 15.399C60.887 12.15 60.9826 8.89805 60.872 5.65277C60.7785 2.91217 61.6767 0.92918 64.3924 0H86.5896Z" fill="white"/>
</g>
<path fill-rule="evenodd" clip-rule="evenodd" d="M56.9649 6.18264C56.6781 7.11235 56.4133 7.97086 56.1365 8.86788C42.4081 5.25979 30.0761 7.77223 19.3929 17.2027C13.2328 22.6402 9.43974 30.2547 8.37005 35.8499C9.64392 35.0927 10.8715 34.3628 12.1547 33.6001C12.6638 34.4432 13.1423 35.2352 13.6539 36.0827C10.7987 37.7934 8.01489 39.4614 5.13771 41.1851C3.43434 38.3561 1.75281 35.5634 0.0216064 32.6878C0.859815 32.1849 1.65028 31.7106 2.50893 31.1956C3.41637 32.6963 4.28858 34.1387 5.21928 35.6777C9.10256 21.6183 17.6291 11.7976 31.2663 6.74655C39.6822 3.62942 48.2974 3.58178 56.9649 6.18264" fill="white"/>
<path fill-rule="evenodd" clip-rule="evenodd" d="M76.5401 70.5697C75.7933 69.9688 75.0927 69.4051 74.292 68.7609C78.3358 63.707 80.9661 58.0233 82.1112 51.7016C83.2595 45.3628 82.8131 39.1166 80.6936 32.8401C79.8233 34.2805 79.0168 35.6154 78.1621 37.0302C77.3126 36.5201 76.5232 36.046 75.673 35.5354C77.3836 32.69 79.0533 29.9127 80.7797 27.0408C83.6152 28.7372 86.4152 30.4124 89.2917 32.1335C88.7942 32.9693 88.3224 33.7616 87.8104 34.6215C86.409 33.7909 85.0594 32.991 83.5179 32.0773C85.7257 38.8155 86.1999 45.5185 84.956 52.3025C83.7158 59.0649 80.9201 65.1415 76.5401 70.5697" fill="white"/>
<mask id="mask2" mask-type="alpha" maskUnits="userSpaceOnUse" x="0" y="0" width="90" height="90">
<path fill-rule="evenodd" clip-rule="evenodd" d="M0 90H90V0H0V90Z" fill="white"/>
</mask>
<g mask="url(#mask2)">
<path fill-rule="evenodd" clip-rule="evenodd" d="M66.7649 8.66304H84.1129V5.86548H66.7649V8.66304Z" fill="white"/>
<path fill-rule="evenodd" clip-rule="evenodd" d="M66.7589 14.4664H78.3034V11.6661H66.7589V14.4664Z" fill="white"/>
<path fill-rule="evenodd" clip-rule="evenodd" d="M81.3483 14.4758H84.1136V11.6543H81.3483V14.4758Z" fill="white"/>
</g>
</svg>
