<svg width="20" height="54" viewBox="0 0 20 54" fill="none" xmlns="http://www.w3.org/2000/svg">
<path opacity="0.8" fill-rule="evenodd" clip-rule="evenodd" d="M15.9322 27L0.466102 3.68182C0.155366 3.27272 0 2.77159 0 2.17841C0 1.58523 0.155366 1.06364 0.466102 0.613636C0.748589 0.20454 1.09463 0 1.50424 0C1.91384 0 2.25989 0.20454 2.54237 0.613636L19.5339 25.4659C19.8446 25.875 20 26.3864 20 27C20 27.6136 19.8446 28.125 19.5339 28.5341L2.54237 53.3864C2.25989 53.7955 1.91384 54 1.50424 54C1.09463 54 0.748589 53.7955 0.466102 53.3864C0.155366 52.9773 0 52.4659 0 51.8523C0 51.2386 0.155366 50.7273 0.466102 50.3182L15.9322 27Z" fill="white"/>
</svg>
