<svg width="19" height="54" viewBox="0 0 19 54" fill="none" xmlns="http://www.w3.org/2000/svg">
<path opacity="0.7" fill-rule="evenodd" clip-rule="evenodd" d="M3.86441 27L18.5572 3.68182C18.8524 3.27272 19 2.77159 19 2.17841C19 1.58523 18.8524 1.06364 18.5572 0.613636C18.2888 0.20454 17.9601 0 17.571 0C17.1818 0 16.8531 0.20454 16.5847 0.613636L0.442794 25.4659C0.147595 25.875 2.38419e-07 26.3864 2.38419e-07 27C2.38419e-07 27.6136 0.147595 28.125 0.442794 28.5341L16.5847 53.3864C16.8531 53.7955 17.1818 54 17.571 54C17.9601 54 18.2888 53.7955 18.5572 53.3864C18.8524 52.9773 19 52.4659 19 51.8523C19 51.2386 18.8524 50.7273 18.5572 50.3182L3.86441 27Z" fill="white"/>
</svg>
