<svg width="570" height="563" viewBox="0 0 570 563" fill="none" xmlns="http://www.w3.org/2000/svg">
<g opacity="0.2">
<path d="M292.953 220.104C278.527 218.811 264.286 217.703 249.86 216.595" stroke="#5CB8EA" stroke-width="0.3868" stroke-miterlimit="10"/>
<path d="M291.658 302.643C277.972 320.184 264.656 337.542 251.895 355.083" stroke="#92CEEA" stroke-width="0.2417" stroke-miterlimit="10"/>
<path d="M249.86 216.78C236.914 224.166 223.968 231.737 211.207 239.492" stroke="#5CB8EA" stroke-width="0.3868" stroke-miterlimit="10"/>
<path d="M249.861 216.78C241.723 206.44 233.77 196.284 226.372 186.128" stroke="#92CEEA" stroke-width="0.2417" stroke-miterlimit="10"/>
<path d="M226.372 186.128C220.824 203.485 215.831 221.212 211.207 239.307" stroke="#5CB8EA" stroke-width="0.3868" stroke-miterlimit="10"/>
<path d="M241.353 175.418C257.813 190.19 275.198 204.962 292.953 220.288" stroke="#5CB8EA" stroke-width="0.3868" stroke-miterlimit="10"/>
<path d="M226.372 186.128C214.536 191.852 202.7 197.761 191.233 203.67" stroke="#92CEEA" stroke-width="0.2417" stroke-miterlimit="10"/>
<path d="M249.86 216.78C215.646 263.312 183.095 310.583 161.642 360.069" stroke="#5CB8EA" stroke-width="0.3868" stroke-miterlimit="10"/>
<path d="M251.895 355.083C220.454 356.007 190.308 357.484 161.642 360.069" stroke="#92CEEA" stroke-width="0.2417" stroke-miterlimit="10"/>
<path d="M133.9 315.199C142.777 330.34 152.21 345.297 161.642 360.069" stroke="#5CB8EA" stroke-width="0.3868" stroke-miterlimit="10"/>
<path d="M133.9 315.199C134.27 322.585 134.64 329.971 135.38 337.172" stroke="#5CB8EA" stroke-width="0.3868" stroke-miterlimit="10"/>
<path d="M161.642 359.884C152.764 352.314 144.072 344.743 135.38 337.172" stroke="#5CB8EA" stroke-width="0.3868" stroke-miterlimit="10"/>
<path d="M224.893 407.709C266.69 415.095 308.303 423.589 348.066 432.637" stroke="#5CB8EA" stroke-width="0.3868" stroke-miterlimit="10"/>
<path d="M348.066 432.637C320.879 406.601 287.774 381.304 251.895 355.083" stroke="#92CEEA" stroke-width="0.2417" stroke-miterlimit="10"/>
<path d="M146.846 376.134C151.47 370.594 156.463 365.239 161.642 359.884" stroke="#5CB8EA" stroke-width="0.3868" stroke-miterlimit="10"/>
<path d="M349.916 197.022C385.055 238.938 419.825 281.408 445.717 326.462" stroke="#52A4D8" stroke-width="0.4835" stroke-miterlimit="10"/>
<path d="M182.541 143.289C222.119 136.457 261.882 131.102 300.905 125.932" stroke="#92CEEA" stroke-width="0.2417" stroke-miterlimit="10"/>
<path d="M349.546 452.579C349.361 445.931 348.806 439.284 347.881 432.637" stroke="#5CB8EA" stroke-width="0.3868" stroke-miterlimit="10"/>
<path d="M349.546 452.579C384.685 414.726 418.53 372.81 445.532 326.463" stroke="#52A4D8" stroke-width="0.4835" stroke-miterlimit="10"/>
<path d="M386.535 128.886C343.997 145.135 294.247 158.8 241.353 175.418" stroke="#5CB8EA" stroke-width="0.3868" stroke-miterlimit="10"/>
<path d="M419.64 305.043C438.689 289.163 456.074 272.729 471.055 255.557" stroke="#5CB8EA" stroke-width="0.3868" stroke-miterlimit="10"/>
<path d="M292.398 474.552C310.522 467.166 329.757 459.965 349.546 452.579" stroke="#52A4D8" stroke-width="0.4835" stroke-miterlimit="10"/>
<path d="M156.278 137.38C181.986 149.567 210.467 162.123 241.353 175.234" stroke="#5CB8EA" stroke-width="0.3868" stroke-miterlimit="10"/>
<path d="M442.388 160.646C447.197 169.879 451.82 179.296 456.259 188.713" stroke="#92CEEA" stroke-width="0.2417" stroke-miterlimit="10"/>
<path d="M300.72 125.932C349.731 137.195 397.631 148.828 442.388 160.646" stroke="#92CEEA" stroke-width="0.2417" stroke-miterlimit="10"/>
<path d="M389.679 108.205C406.879 124.824 424.818 142.181 442.388 160.646" stroke="#92CEEA" stroke-width="0.2417" stroke-miterlimit="10"/>
<path d="M349.916 197.022C352.135 157.692 352.69 121.131 351.58 88.2631" stroke="#52A4D8" stroke-width="0.4835" stroke-miterlimit="10"/>
<path d="M351.58 88.2631C340.668 95.4644 328.647 102.481 315.516 109.867" stroke="#52A4D8" stroke-width="0.4835" stroke-miterlimit="10"/>
<path d="M328.092 487.478C335.675 476.583 342.703 464.766 349.546 452.579" stroke="#52A4D8" stroke-width="0.4835" stroke-miterlimit="10"/>
<path d="M300.72 125.932C291.843 108.021 284.075 91.0328 278.712 75.1528" stroke="#92CEEA" stroke-width="0.2417" stroke-miterlimit="10"/>
<path d="M278.712 75.1528C302.94 79.3998 327.167 83.8314 351.58 88.4477" stroke="#92CEEA" stroke-width="0.2417" stroke-miterlimit="10"/>
<path d="M349.546 452.579C316.811 469.013 286.48 483.969 260.772 499.295" stroke="#92CEEA" stroke-width="0.2417" stroke-miterlimit="10"/>
<path d="M471.24 255.741C484.371 286.209 494.358 317.415 498.796 348.251" stroke="#5CB8EA" stroke-width="0.3868" stroke-miterlimit="10"/>
<path d="M161.642 359.884C149.805 395.337 143.702 430.605 147.031 462.365" stroke="#5CB8EA" stroke-width="0.3868" stroke-miterlimit="10"/>
<path d="M499.906 214.749C486.22 205.886 471.609 197.207 456.444 188.713" stroke="#92CEEA" stroke-width="0.2417" stroke-miterlimit="10"/>
<path d="M442.388 160.646C462.732 178.188 482.151 196.099 499.721 214.933" stroke="#92CEEA" stroke-width="0.2417" stroke-miterlimit="10"/>
<path d="M147.216 462.55C142.962 461.073 138.709 459.596 134.64 458.118" stroke="#92CEEA" stroke-width="0.2417" stroke-miterlimit="10"/>
<path d="M520.62 261.835C501.94 285.47 475.678 306.52 445.717 326.462" stroke="#52A4D8" stroke-width="0.4835" stroke-miterlimit="10"/>
<path d="M477.528 428.02C488.254 403.092 495.282 375.949 498.796 348.251" stroke="#52A4D8" stroke-width="0.4835" stroke-miterlimit="10"/>
<path d="M477.528 428.02C438.689 438.176 394.857 445.008 349.546 452.579" stroke="#52A4D8" stroke-width="0.4835" stroke-miterlimit="10"/>
<path d="M471.24 255.741C487.515 227.12 498.611 197.207 500.461 168.032" stroke="#5CB8EA" stroke-width="0.3868" stroke-miterlimit="10"/>
<path d="M383.76 96.757C392.268 86.0472 398.556 75.3375 401.515 64.9971" stroke="#52A4D8" stroke-width="0.4835" stroke-miterlimit="10"/>
<path d="M401.7 64.8124C389.494 73.491 372.109 80.877 351.58 88.263" stroke="#52A4D8" stroke-width="0.4835" stroke-miterlimit="10"/>
<path d="M260.772 499.296C277.972 511.298 292.028 522.377 300.535 533.456" stroke="#92CEEA" stroke-width="0.2417" stroke-miterlimit="10"/>
<path d="M146.846 376.133C117.255 396.445 94.8767 419.896 89.3284 444.454" stroke="#52A4D8" stroke-width="0.4835" stroke-miterlimit="10"/>
<path d="M173.848 56.6877C133.715 87.7091 98.9455 128.517 73.9779 175.603" stroke="#52A4D8" stroke-width="0.4835" stroke-miterlimit="10"/>
<path d="M386.535 128.886C419.27 122.793 446.457 116.699 464.951 107.097" stroke="#5CB8EA" stroke-width="0.3868" stroke-miterlimit="10"/>
<path d="M464.951 107.097C478.267 125.932 490.104 146.428 500.461 168.032" stroke="#5CB8EA" stroke-width="0.3868" stroke-miterlimit="10"/>
<path d="M453.855 94.9105C457.554 98.9728 461.252 102.85 464.766 107.097" stroke="#5CB8EA" stroke-width="0.3868" stroke-miterlimit="10"/>
<path d="M27.002 254.079C25.7074 280.854 27.9267 307.997 33.4751 334.402" stroke="#92CEEA" stroke-width="0.2417" stroke-miterlimit="10"/>
<path d="M191.048 203.67C157.018 209.579 124.838 216.041 95.4315 224.72C68.6145 232.66 44.9416 241.708 27.002 254.079" stroke="#92CEEA" stroke-width="0.2417" stroke-miterlimit="10"/>
<path d="M27.002 254.079C28.2966 320.738 51.7846 387.213 88.5886 443.162" stroke="#52A4D8" stroke-width="0.4835" stroke-miterlimit="10"/>
<path d="M74.1629 175.603C54.3738 199.792 37.9137 226.197 27.002 254.079" stroke="#52A4D8" stroke-width="0.4835" stroke-miterlimit="10"/>
<path d="M50.49 170.802C86.1843 156.399 131.866 149.198 182.541 143.289" stroke="#92CEEA" stroke-width="0.2417" stroke-miterlimit="10"/>
<path d="M206.398 36.9302C195.487 42.839 184.575 49.4864 173.848 56.5032" stroke="#52A4D8" stroke-width="0.4835" stroke-miterlimit="10"/>
<path d="M85.9993 113.191C100.61 100.635 116.145 89.1862 132.42 78.6611" stroke="#5CB8EA" stroke-width="0.3868" stroke-miterlimit="10"/>
<path d="M50.49 170.802C45.3115 179.296 40.318 187.79 35.8793 196.653" stroke="#92CEEA" stroke-width="0.2417" stroke-miterlimit="10"/>
<path d="M251.895 355.083C199.371 416.757 159.607 482.492 180.321 525.516" stroke="#92CEEA" stroke-width="0.2417" stroke-miterlimit="10"/>
<path d="M156.278 137.38C160.162 91.0329 178.657 48.3785 211.022 24.5586" stroke="#5CB8EA" stroke-width="0.3868" stroke-miterlimit="10"/>
<path d="M44.3868 156.214C45.8663 161.015 47.9007 165.816 50.49 170.802" stroke="#92CEEA" stroke-width="0.2417" stroke-miterlimit="10"/>
<path d="M373.589 25.1124C379.322 26.7743 385.24 28.2515 390.973 29.9133" stroke="#52A4D8" stroke-width="0.4835" stroke-miterlimit="10"/>
<path d="M50.4899 170.802C38.8384 179.111 28.6664 188.159 20.5289 198.13" stroke="#92CEEA" stroke-width="0.2417" stroke-miterlimit="10"/>
<path d="M44.3868 156.214C35.3245 169.509 27.1869 183.543 20.7139 198.13" stroke="#92CEEA" stroke-width="0.2417" stroke-miterlimit="10"/>
<path d="M92.4725 484.154C85.9994 471.413 84.3349 456.641 88.5887 443.162" stroke="#52A4D8" stroke-width="0.4835" stroke-miterlimit="10"/>
<path d="M446.827 460.888C479.192 447.224 508.598 431.713 529.867 411.586" stroke="#92CEEA" stroke-width="0.2417" stroke-miterlimit="10"/>
<path d="M529.682 411.586C548.546 350.652 532.641 279.007 499.906 215.118" stroke="#92CEEA" stroke-width="0.2417" stroke-miterlimit="10"/>
<path d="M300.535 533.456C291.658 547.305 277.047 557.276 260.402 561.154" stroke="#92CEEA" stroke-width="0.2417" stroke-miterlimit="10"/>
<path d="M555.389 344.928C549.656 368.009 540.964 390.536 529.682 411.586" stroke="#92CEEA" stroke-width="0.2417" stroke-miterlimit="10"/>
<path d="M189.014 29.3594C195.487 24.1892 202.699 19.5729 210.282 15.8799" stroke="#5CB8EA" stroke-width="0.3868" stroke-miterlimit="10"/>
<path d="M210.282 15.6953C209.358 18.2804 209.727 21.6041 211.207 24.5585" stroke="#5CB8EA" stroke-width="0.3868" stroke-miterlimit="10"/>
<path d="M160.347 36.5608C176.622 28.2516 193.267 21.2348 210.282 15.6953" stroke="#5CB8EA" stroke-width="0.3868" stroke-miterlimit="10"/>
<path d="M210.282 15.6953C161.827 34.5297 118.18 69.244 86.1843 113.191" stroke="#5CB8EA" stroke-width="0.3868" stroke-miterlimit="10"/>
<path d="M487.884 92.3253C465.876 83.0928 436.1 74.4142 401.515 64.8124" stroke="#52A4D8" stroke-width="0.4835" stroke-miterlimit="10"/>
<path d="M354.169 13.1102C365.636 27.8823 361.567 56.6878 351.395 88.4477" stroke="#52A4D8" stroke-width="0.4835" stroke-miterlimit="10"/>
<path d="M354.169 13.1102C359.903 16.6186 366.376 20.6809 373.589 25.2972" stroke="#52A4D8" stroke-width="0.4835" stroke-miterlimit="10"/>
<path d="M401.7 64.8124C384.685 42.4697 368.78 24.7432 354.169 13.1102" stroke="#52A4D8" stroke-width="0.4835" stroke-miterlimit="10"/>
<path d="M529.682 411.586C514.331 443.9 492.693 473.075 466.431 497.08" stroke="#92CEEA" stroke-width="0.2417" stroke-miterlimit="10"/>
<path d="M272.979 3.50842C253.004 5.90888 231.921 9.78655 210.282 15.6954" stroke="#5CB8EA" stroke-width="0.3868" stroke-miterlimit="10"/>
<path d="M562.787 339.203C560.938 341.419 558.349 343.266 555.389 345.112" stroke="#92CEEA" stroke-width="0.2417" stroke-miterlimit="10"/>
<path d="M562.787 339.203C561.862 337.172 560.198 335.141 558.164 333.11" stroke="#52A4D8" stroke-width="0.4835" stroke-miterlimit="10"/>
<path d="M113.001 56.1338C80.8209 82.1695 56.5931 117.438 44.3868 156.214" stroke="#92CEEA" stroke-width="0.2417" stroke-miterlimit="10"/>
<path d="M529.682 411.586C531.901 415.095 533.196 418.788 533.011 422.112" stroke="#92CEEA" stroke-width="0.2417" stroke-miterlimit="10"/>
<path d="M27.002 254.079C8.32252 285.839 1.29462 322.954 8.13758 357.853" stroke="#52A4D8" stroke-width="0.4835" stroke-miterlimit="10"/>
<path d="M557.054 202.747C563.342 224.72 566.856 247.432 567.781 270.144" stroke="#92CEEA" stroke-width="0.2417" stroke-miterlimit="10"/>
<path d="M557.054 202.747C548.362 190.19 527.093 179.665 500.461 167.848" stroke="#5CB8EA" stroke-width="0.3868" stroke-miterlimit="10"/>
<path d="M557.054 202.746C550.766 183.174 542.443 164.339 532.271 146.613" stroke="#92CEEA" stroke-width="0.2417" stroke-miterlimit="10"/>
<path d="M566.856 317.415C564.637 298.949 545.402 279.93 520.435 261.835" stroke="#52A4D8" stroke-width="0.4835" stroke-miterlimit="10"/>
<path d="M566.856 317.415C574.624 236.538 542.813 152.706 487.885 92.3253" stroke="#52A4D8" stroke-width="0.4835" stroke-miterlimit="10"/>
<path d="M566.856 317.415C565.746 324.616 564.452 332.002 562.787 339.019" stroke="#52A4D8" stroke-width="0.4835" stroke-miterlimit="10"/>
<path d="M555.574 370.779C549.656 385.366 540.779 399.03 529.682 411.586" stroke="#92CEEA" stroke-width="0.2417" stroke-miterlimit="10"/>
<path d="M480.117 77.1841C484.186 82.1697 487.145 87.3399 488.069 92.5101" stroke="#52A4D8" stroke-width="0.4835" stroke-miterlimit="10"/>
<path d="M480.302 76.8147C493.988 90.2942 501.385 107.282 495.652 120.762C488.994 136.457 468.465 149.382 442.388 160.646" stroke="#92CEEA" stroke-width="0.2417" stroke-miterlimit="10"/>
<path d="M528.942 431.159C549.656 396.63 562.787 357.484 566.856 317.599" stroke="#52A4D8" stroke-width="0.4835" stroke-miterlimit="10"/>
<path d="M47.7158 433.191C51.0448 447.963 59.7372 462.55 71.5737 475.66" stroke="#92CEEA" stroke-width="0.2417" stroke-miterlimit="10"/>
<path d="M478.082 493.571C497.871 475.291 515.071 454.056 528.942 430.975" stroke="#52A4D8" stroke-width="0.4835" stroke-miterlimit="10"/>
<path d="M478.082 493.571C495.097 478.245 494.543 450.363 477.528 428.02" stroke="#52A4D8" stroke-width="0.4835" stroke-miterlimit="10"/>
<path d="M566.856 317.415C571.664 284.731 569.815 250.94 561.678 218.442" stroke="#52A4D8" stroke-width="0.4835" stroke-miterlimit="10"/>
<path d="M85.9994 113.191C55.6685 124.824 30.7009 141.627 25.5225 163.047" stroke="#5CB8EA" stroke-width="0.3868" stroke-miterlimit="10"/>
<path d="M196.411 13.1102C164.971 22.3428 135.749 36.5609 113.001 56.1338" stroke="#92CEEA" stroke-width="0.2417" stroke-miterlimit="10"/>
<path d="M44.3868 156.214C21.8235 171.725 7.21284 194.806 9.24723 217.703" stroke="#92CEEA" stroke-width="0.2417" stroke-miterlimit="10"/>
<path d="M29.9611 415.464C-0.369873 355.453 -7.95261 283.439 9.24726 217.703" stroke="#92CEEA" stroke-width="0.2417" stroke-miterlimit="10"/>
<path d="M162.751 29.9133C142.038 36.3761 124.098 44.3161 113.001 56.1337" stroke="#92CEEA" stroke-width="0.2417" stroke-miterlimit="10"/>
<path d="M33.1052 411.956C40.503 435.037 54.0039 456.826 71.3887 475.66" stroke="#92CEEA" stroke-width="0.2417" stroke-miterlimit="10"/>
<path d="M34.0299 409.925C31.4407 411.217 29.5912 413.433 29.7762 415.464" stroke="#92CEEA" stroke-width="0.2417" stroke-miterlimit="10"/>
<path d="M14.9806 347.143C12.2064 346.589 9.80215 346.035 7.76776 345.666" stroke="#5CB8EA" stroke-width="0.3868" stroke-miterlimit="10"/>
<path d="M14.9806 347.143C8.1376 349.174 5.17848 354.345 8.1376 357.853" stroke="#52A4D8" stroke-width="0.4835" stroke-miterlimit="10"/>
<path d="M480.117 77.1841C498.057 92.3254 511.557 110.421 510.818 127.963" stroke="#52A4D8" stroke-width="0.4835" stroke-miterlimit="10"/>
<path d="M14.9806 347.143C11.0968 329.601 8.87742 311.875 7.9527 293.964" stroke="#52A4D8" stroke-width="0.4835" stroke-miterlimit="10"/>
<path d="M6.65802 255.741C6.28814 268.482 6.84297 281.223 8.13758 293.964" stroke="#52A4D8" stroke-width="0.4835" stroke-miterlimit="10"/>
<path d="M56.4082 131.102C43.6471 140.704 33.1052 151.414 25.5225 163.047" stroke="#5CB8EA" stroke-width="0.3868" stroke-miterlimit="10"/>
<path d="M45.8663 149.752C30.146 170.802 17.5698 193.699 9.24725 217.703" stroke="#92CEEA" stroke-width="0.2417" stroke-miterlimit="10"/>
<path d="M9.24733 217.703C8.32261 232.291 9.80217 247.617 13.1312 262.758" stroke="#92CEEA" stroke-width="0.2417" stroke-miterlimit="10"/>
<path d="M6.65802 255.741C8.50747 258.142 10.7268 260.357 13.1311 262.573" stroke="#52A4D8" stroke-width="0.4835" stroke-miterlimit="10"/>
<path d="M149.62 48.7477C152.025 41.5463 156.648 35.0836 162.751 29.9133" stroke="#92CEEA" stroke-width="0.2417" stroke-miterlimit="10"/>
<path d="M149.62 48.7478C114.111 70.5366 81.9306 98.4188 56.4082 131.102" stroke="#5CB8EA" stroke-width="0.3868" stroke-miterlimit="10"/>
<path d="M19.6041 344.374C20.3439 367.64 24.9675 390.536 33.1051 411.956" stroke="#5CB8EA" stroke-width="0.3868" stroke-miterlimit="10"/>
<path d="M296.282 2.95435C278.342 5.72411 260.402 12.1869 243.572 21.9734" stroke="#92CEEA" stroke-width="0.2417" stroke-miterlimit="10"/>
<path d="M228.222 9.23254C229.147 13.2949 235.25 17.5418 243.572 22.1581" stroke="#52A4D8" stroke-width="0.4835" stroke-miterlimit="10"/>
<path d="M13.131 262.573C18.1246 241.523 25.8922 221.027 36.0642 201.085" stroke="#92CEEA" stroke-width="0.2417" stroke-miterlimit="10"/>
<path d="M243.387 22.1581C186.609 43.3929 127.612 76.4454 79.3414 122.793" stroke="#52A4D8" stroke-width="0.4835" stroke-miterlimit="10"/>
<path d="M27.0019 254.079C12.9461 229.706 7.95259 202.931 16.645 181.327C26.0772 158.246 49.9351 138.673 79.3413 122.608" stroke="#52A4D8" stroke-width="0.4835" stroke-miterlimit="10"/>
<path d="M279.267 26.2204C267.06 24.7432 255.039 23.4506 243.387 22.1581" stroke="#5CB8EA" stroke-width="0.3868" stroke-miterlimit="10"/>
<path d="M53.8189 226.013C55.8533 189.452 64.1758 153.999 79.3413 122.608" stroke="#52A4D8" stroke-width="0.4835" stroke-miterlimit="10"/>
<path d="M39.5782 281.408C42.7222 262.758 47.5308 244.293 54.0039 226.012" stroke="#5CB8EA" stroke-width="0.3868" stroke-miterlimit="10"/>
<path d="M226.188 42.4697C203.254 54.8413 179.951 69.2441 157.018 85.8626" stroke="#92CEEA" stroke-width="0.2417" stroke-miterlimit="10"/>
<path d="M188.644 522.931C167.19 501.696 143.332 476.399 119.659 447.039" stroke="#92CEEA" stroke-width="0.2417" stroke-miterlimit="10"/>
<path d="M344.922 65.1818C376.363 76.8148 408.358 88.2631 439.429 100.081" stroke="#5CB8EA" stroke-width="0.3868" stroke-miterlimit="10"/>
<path d="M470.87 125.932C464.766 127.594 458.108 129.255 450.896 130.548" stroke="#5CB8EA" stroke-width="0.3868" stroke-miterlimit="10"/>
<path d="M439.429 100.081C443.683 109.867 447.566 120.023 450.895 130.548" stroke="#5CB8EA" stroke-width="0.3868" stroke-miterlimit="10"/>
<path d="M103.014 404.016C108.008 418.973 113.556 433.375 119.659 447.039" stroke="#92CEEA" stroke-width="0.2417" stroke-miterlimit="10"/>
<path d="M103.014 404.016C71.0188 404.57 47.1609 404.57 34.0298 409.925" stroke="#92CEEA" stroke-width="0.2417" stroke-miterlimit="10"/>
<path d="M76.0124 252.787C67.6899 243.924 60.2921 234.876 54.004 226.012" stroke="#5CB8EA" stroke-width="0.3868" stroke-miterlimit="10"/>
<path d="M226.188 42.4697C216.201 55.9492 208.618 72.3831 203.439 90.6636" stroke="#92CEEA" stroke-width="0.2417" stroke-miterlimit="10"/>
<path d="M177.547 463.104C179.581 485.816 183.095 505.943 188.829 522.931" stroke="#92CEEA" stroke-width="0.2417" stroke-miterlimit="10"/>
<path d="M119.659 447.039C137.969 452.579 157.203 457.934 177.362 463.104" stroke="#5CB8EA" stroke-width="0.3868" stroke-miterlimit="10"/>
<path d="M180.506 103.035C173.293 109.867 166.08 116.699 159.053 124.085" stroke="#5CB8EA" stroke-width="0.3868" stroke-miterlimit="10"/>
<path d="M157.018 85.678C155.908 97.6803 156.648 110.606 159.053 123.901" stroke="#5CB8EA" stroke-width="0.3868" stroke-miterlimit="10"/>
<path d="M240.613 477.876C254.669 507.235 265.766 531.24 266.506 549.705" stroke="#5CB8EA" stroke-width="0.3868" stroke-miterlimit="10"/>
<path d="M444.977 444.085C456.444 415.279 463.472 383.335 466.801 350.282" stroke="#5CB8EA" stroke-width="0.3868" stroke-miterlimit="10"/>
<path d="M456.814 371.887C464.212 359.515 471.239 346.959 477.343 334.033" stroke="#52A4D8" stroke-width="0.4835" stroke-miterlimit="10"/>
<path d="M243.387 22.1581C240.058 40.2538 258.183 64.997 283.705 91.956" stroke="#52A4D8" stroke-width="0.4835" stroke-miterlimit="10"/>
<path d="M344.922 65.1818C327.537 74.2296 306.823 82.7236 283.705 91.7715" stroke="#5CB8EA" stroke-width="0.3868" stroke-miterlimit="10"/>
<path d="M120.769 377.057C138.894 407.893 158.498 436.514 177.547 463.104" stroke="#52A4D8" stroke-width="0.4835" stroke-miterlimit="10"/>
<path d="M120.769 377.057C89.6983 328.124 63.991 277.161 54.004 226.012" stroke="#52A4D8" stroke-width="0.4835" stroke-miterlimit="10"/>
<path d="M120.769 377.057C98.7605 371.148 78.4166 365.239 60.292 359.33C44.2018 354.16 30.5159 349.175 19.6041 344.189" stroke="#5CB8EA" stroke-width="0.3868" stroke-miterlimit="10"/>
<path d="M296.652 468.09C300.535 483.046 303.125 496.895 304.234 509.636" stroke="#92CEEA" stroke-width="0.2417" stroke-miterlimit="10"/>
<path d="M425.743 481.569C430.552 456.457 428.147 427.466 421.119 397.184" stroke="#5CB8EA" stroke-width="0.3868" stroke-miterlimit="10"/>
<path d="M125.578 209.394C99.1304 214.379 74.9026 219.55 53.8189 226.012" stroke="#52A4D8" stroke-width="0.4835" stroke-miterlimit="10"/>
<path d="M289.439 81.8003C284.075 91.4021 278.342 101.373 272.609 111.898" stroke="#92CEEA" stroke-width="0.2417" stroke-miterlimit="10"/>
<path d="M226.188 42.4697C230.996 63.3353 248.936 86.4166 272.609 112.083" stroke="#92CEEA" stroke-width="0.2417" stroke-miterlimit="10"/>
<path d="M275.568 453.502C282.781 458.488 289.994 463.289 296.836 468.09" stroke="#52A4D8" stroke-width="0.4835" stroke-miterlimit="10"/>
<path d="M126.687 267.559C95.9864 290.456 69.7242 314.091 52.5243 339.573C37.5438 362.1 30.3309 387.212 34.0298 409.925" stroke="#92CEEA" stroke-width="0.2417" stroke-miterlimit="10"/>
<path d="M76.0123 252.787C91.7326 257.588 108.563 262.573 126.872 267.559" stroke="#5CB8EA" stroke-width="0.3868" stroke-miterlimit="10"/>
<path d="M289.439 81.8003C303.494 99.3421 320.509 117.623 339.374 137.196" stroke="#92CEEA" stroke-width="0.2417" stroke-miterlimit="10"/>
<path d="M339.374 137.195C316.441 128.702 294.062 120.392 272.609 112.083" stroke="#92CEEA" stroke-width="0.2417" stroke-miterlimit="10"/>
<path d="M421.304 134.61C396.337 136.088 368.78 136.826 339.374 137.011" stroke="#92CEEA" stroke-width="0.2417" stroke-miterlimit="10"/>
<path d="M472.534 252.417C457.369 241.338 441.463 230.075 424.818 218.811" stroke="#92CEEA" stroke-width="0.2417" stroke-miterlimit="10"/>
<path d="M466.801 350.282C458.848 306.52 443.313 262.389 424.633 218.996" stroke="#5CB8EA" stroke-width="0.3868" stroke-miterlimit="10"/>
<path d="M424.818 218.996C426.298 189.636 425.188 161.2 421.489 134.61" stroke="#92CEEA" stroke-width="0.2417" stroke-miterlimit="10"/>
<path d="M203.439 90.6635C193.267 113.929 185.87 140.15 181.061 168.217" stroke="#52A4D8" stroke-width="0.4835" stroke-miterlimit="10"/>
<path d="M466.801 350.282C432.401 377.057 392.823 399.953 352.135 421.558C312.372 442.423 274.273 460.519 240.613 477.876" stroke="#5CB8EA" stroke-width="0.3868" stroke-miterlimit="10"/>
<path d="M296.652 468.09C303.31 456.087 310.153 443.531 316.995 430.421" stroke="#52A4D8" stroke-width="0.4835" stroke-miterlimit="10"/>
<path d="M456.814 371.886C447.936 354.529 437.21 336.988 425.188 319.076" stroke="#52A4D8" stroke-width="0.4835" stroke-miterlimit="10"/>
<path d="M470.87 125.932C482.336 184.835 461.252 254.079 425.188 318.892" stroke="#52A4D8" stroke-width="0.4835" stroke-miterlimit="10"/>
<path d="M425.188 318.892C443.683 324.247 461.068 329.232 477.343 333.848" stroke="#52A4D8" stroke-width="0.4835" stroke-miterlimit="10"/>
<path d="M337.154 411.032C277.787 430.79 222.674 446.116 177.362 463.104" stroke="#52A4D8" stroke-width="0.4835" stroke-miterlimit="10"/>
<path d="M316.995 430.421C323.653 424.143 330.496 417.68 337.154 411.032" stroke="#52A4D8" stroke-width="0.4835" stroke-miterlimit="10"/>
<path d="M421.119 397.184C394.117 402.723 366.006 407.155 337.154 411.032" stroke="#5CB8EA" stroke-width="0.3868" stroke-miterlimit="10"/>
<path d="M126.687 267.559C137.044 262.389 147.771 257.403 158.868 252.417" stroke="#5CB8EA" stroke-width="0.3868" stroke-miterlimit="10"/>
<path d="M158.868 252.418C152.395 207.178 151.285 163.231 159.053 123.901" stroke="#5CB8EA" stroke-width="0.3868" stroke-miterlimit="10"/>
<path d="M456.814 371.887C440.169 359.7 421.674 347.513 401.7 334.772" stroke="#52A4D8" stroke-width="0.4835" stroke-miterlimit="10"/>
<path d="M138.894 337.726C138.894 335.695 137.414 333.848 135.565 333.664C133.715 333.479 132.051 334.772 132.051 336.803C132.051 338.834 133.53 340.68 135.38 340.865C137.229 341.05 138.709 339.757 138.894 337.726Z" fill="#5CB8EA"/>
<path d="M455.889 95.2797C455.149 93.8024 453.67 92.5099 452.56 92.1406C451.45 91.9559 451.265 92.8792 452.005 94.3564C452.745 95.8336 454.224 97.1262 455.334 97.4955C456.444 97.6801 456.629 96.7569 455.889 95.2797Z" fill="#5CB8EA"/>
<path d="M137.414 315.568C137.599 313.537 136.119 311.69 134.085 311.321C132.236 310.952 130.571 312.429 130.386 314.46C130.201 316.491 131.681 318.338 133.715 318.522C135.75 319.076 137.414 317.599 137.414 315.568Z" fill="#5CB8EA"/>
<path d="M391.898 129.994C391.713 127.224 389.309 124.455 386.35 123.901C383.391 123.347 380.986 125.008 380.986 127.778C380.986 130.548 383.576 133.318 386.535 134.056C389.679 134.61 392.083 132.764 391.898 129.994Z" fill="#5CB8EA"/>
<path d="M476.233 256.849C476.418 253.525 474.383 250.386 471.424 249.648C468.65 248.909 466.061 251.125 465.876 254.449C465.691 257.772 467.725 260.911 470.685 261.65C473.644 262.389 476.048 260.173 476.233 256.849Z" fill="#5CB8EA"/>
<path d="M166.635 360.807C166.635 358.038 164.601 355.637 161.827 355.083C159.053 354.714 156.833 356.561 156.833 359.146C156.833 361.915 159.053 364.316 161.642 364.685C164.231 365.239 166.45 363.393 166.635 360.807Z" fill="#5CB8EA"/>
<path d="M434.62 99.3421C433.326 96.0183 434.066 93.8025 436.655 94.1718C439.244 94.5411 442.573 97.6802 444.053 101.004C445.532 104.328 444.607 106.728 442.018 106.359C439.244 105.805 435.915 102.666 434.62 99.3421Z" fill="#5CB8EA"/>
<path d="M170.704 461.627C170.334 458.303 173.293 456.087 176.992 457.01C180.876 457.934 184.02 461.257 184.205 464.766C184.39 468.089 181.616 470.121 177.917 469.197C174.218 468.274 171.074 464.95 170.704 461.627Z" fill="#5CB8EA"/>
<path d="M502.68 349.359C503.605 346.22 502.495 343.266 500.276 342.527C498.056 341.973 495.467 344.004 494.542 347.143C493.618 350.282 494.727 353.237 496.947 353.975C499.351 354.529 501.755 352.498 502.68 349.359Z" fill="#5CB8EA"/>
<path d="M503.79 168.771C503.05 165.816 500.831 163.231 498.981 162.677C497.132 162.308 496.207 164.154 496.947 167.109C497.687 170.063 499.906 172.648 501.755 173.202C503.605 173.756 504.529 171.725 503.79 168.771Z" fill="#5CB8EA"/>
<path d="M557.609 203.3C556.314 199.238 555.019 195.73 554.649 195.36C554.28 195.176 554.834 198.13 555.944 202.377C557.054 206.439 558.533 210.132 558.903 210.317C559.458 210.502 558.903 207.363 557.609 203.3Z" fill="#5CB8EA"/>
<path d="M233.585 476.399C233.955 473.26 237.654 471.229 241.538 471.967C245.422 472.706 248.196 475.845 247.641 478.984C247.086 482.123 243.572 483.969 239.689 483.231C235.805 482.677 233.031 479.538 233.585 476.399Z" fill="#5CB8EA"/>
<path d="M467.356 107.651C466.431 105.62 464.397 103.774 463.102 103.589C461.807 103.22 461.437 104.697 462.362 106.543C463.287 108.575 465.136 110.421 466.616 110.606C468.095 110.975 468.465 109.498 467.356 107.651Z" fill="#5CB8EA"/>
<path d="M447.751 130.179C447.197 128.148 447.936 126.67 449.601 127.04C451.265 127.224 453.115 129.255 453.67 131.287C454.409 133.318 453.485 134.795 451.82 134.61C450.341 134.056 448.491 132.21 447.751 130.179Z" fill="#5CB8EA"/>
<path d="M32.1804 411.402C31.2557 409.37 30.8858 407.893 31.6256 408.263C32.1804 408.632 33.475 410.478 34.3998 412.51C35.3245 414.541 35.6944 416.018 34.9546 415.649C34.2148 415.279 33.1052 413.433 32.1804 411.402Z" fill="#5CB8EA"/>
<path d="M243.757 175.787C244.127 174.495 243.203 173.387 241.908 173.202C240.428 173.018 239.134 173.756 238.764 174.864C238.394 176.157 239.319 177.265 240.613 177.449C242.093 177.819 243.387 177.08 243.757 175.787Z" fill="#5CB8EA"/>
<path d="M257.998 218.257C258.923 214.379 255.779 210.502 251.34 209.578C246.901 208.84 242.463 211.24 241.538 215.118C240.613 218.996 243.572 222.873 248.196 223.797C252.82 224.72 257.258 222.135 257.998 218.257Z" fill="#5CB8EA"/>
<path d="M88.7735 113.56C90.438 111.16 90.623 109.128 89.1434 108.944C87.6638 108.759 85.2596 110.606 83.5951 113.006C81.9306 115.407 81.7456 117.622 83.2252 117.622C84.5198 117.807 87.109 115.96 88.7735 113.56Z" fill="#5CB8EA"/>
<path d="M18.1247 343.82C17.7548 341.788 18.1247 340.311 19.0494 340.496C19.9741 340.865 20.8988 342.896 21.0838 344.928C21.4537 346.959 21.0838 348.436 20.159 348.067C19.4193 347.882 18.4945 345.851 18.1247 343.82Z" fill="#5CB8EA"/>
<path d="M215.646 240.046C216.016 238.015 214.536 235.799 212.132 235.43C209.727 235.06 207.508 236.353 207.138 238.569C206.768 240.6 208.248 242.816 210.652 243.185C212.872 243.554 215.091 242.262 215.646 240.046Z" fill="#5CB8EA"/>
<path d="M462.732 349.728C463.287 347.143 465.506 345.481 467.726 345.666C469.945 346.035 471.24 348.251 470.685 350.836C470.13 353.421 467.911 355.083 465.691 354.899C463.472 354.529 462.177 352.313 462.732 349.728Z" fill="#5CB8EA"/>
<path d="M25.1526 162.493C27.002 158.615 28.6665 155.66 29.0364 155.845C29.4063 156.214 28.1117 159.538 26.2622 163.416C24.4128 167.293 22.5633 170.248 22.3784 170.063C22.0085 169.879 23.3031 166.37 25.1526 162.493Z" fill="#5CB8EA"/>
<path d="M162.012 138.303C163.491 135.164 162.012 132.21 158.868 131.841C155.724 131.287 152.025 133.502 150.545 136.641C149.066 139.781 150.36 142.735 153.504 143.289C156.833 143.658 160.532 141.442 162.012 138.303Z" fill="#5CB8EA"/>
<path d="M299.241 221.396C299.796 218.442 297.391 215.487 293.877 214.749C290.363 214.01 287.034 216.041 286.48 218.996C285.925 221.95 288.329 225.089 291.843 225.643C295.357 226.382 298.686 224.535 299.241 221.396Z" fill="#5CB8EA"/>
<path d="M211.762 16.0646C214.351 14.9567 215.831 14.0334 214.906 14.0334C214.166 13.8488 211.207 14.5874 208.618 15.6953C205.844 16.8032 204.549 17.7264 205.289 17.9111C206.398 17.9111 209.173 16.9878 211.762 16.0646Z" fill="#5CB8EA"/>
<path d="M439.244 443.346C441.093 439.838 445.162 437.068 448.491 437.437C451.635 437.807 452.745 440.946 450.711 444.454C448.676 447.963 444.607 450.548 441.463 450.178C438.319 449.994 437.395 447.039 439.244 443.346Z" fill="#5CB8EA"/>
<path d="M232.291 187.051C233.03 184.097 230.996 181.327 227.667 180.773C224.338 180.219 221.194 182.066 220.269 184.835C219.529 187.79 221.564 190.559 224.893 191.113C228.222 191.852 231.551 190.005 232.291 187.051Z" fill="#5CB8EA"/>
<path d="M212.502 24.9278C213.981 24.0045 214.536 23.2659 213.796 23.0813C213.056 22.8966 211.022 23.4506 209.542 24.3738C208.063 25.2971 207.323 26.0357 208.248 26.2203C209.173 26.405 211.022 25.851 212.502 24.9278Z" fill="#5CB8EA"/>
<path d="M54.7437 130.548C56.5931 127.594 58.9974 125.562 59.9221 125.932C61.0318 126.301 60.292 128.886 58.4426 131.841C56.5931 134.795 54.1888 136.826 53.0792 136.457C52.1544 136.272 52.7093 133.502 54.7437 130.548Z" fill="#5CB8EA"/>
<path d="M118.92 265.712C119.844 261.096 124.098 258.326 128.352 259.25C132.79 260.357 135.565 264.789 134.64 269.405C133.715 274.022 129.461 276.791 125.023 275.868C120.769 274.76 117.995 270.329 118.92 265.712Z" stroke="#5CB8EA" stroke-width="0.5663" stroke-miterlimit="10"/>
<path d="M456.814 95.4644C455.704 93.2486 453.3 91.2174 451.82 91.0328C450.341 90.6635 449.971 92.1407 451.081 94.3565C452.19 96.5723 454.41 98.6034 456.074 98.9727C457.554 99.1574 457.923 97.6802 456.814 95.4644Z" stroke="#5CB8EA" stroke-width="0.2417" stroke-miterlimit="10"/>
<path d="M392.268 129.994C392.083 127.04 389.494 124.085 386.35 123.531C383.206 122.977 380.616 124.824 380.801 127.778C380.801 130.733 383.391 133.687 386.72 134.426C389.864 134.98 392.268 132.948 392.268 129.994Z" stroke="#5CB8EA" stroke-width="0.5126" stroke-miterlimit="10"/>
<path d="M240.058 21.4195C243.387 19.7576 247.456 18.6497 249.306 19.019C251.155 19.3883 250.23 21.0502 247.086 22.8967C243.942 24.7432 239.873 25.8511 237.839 25.4818C235.62 25.1125 236.729 23.0814 240.058 21.4195Z" stroke="#5CB8EA" stroke-width="0.5363" stroke-miterlimit="10"/>
<path d="M258.738 356.376C259.293 353.052 256.703 349.728 253.004 348.99C249.306 348.251 245.792 350.467 245.237 353.791C244.682 357.114 247.271 360.438 250.97 361.177C254.669 361.731 258.183 359.699 258.738 356.376Z" stroke="#5CB8EA" stroke-width="0.5127" stroke-miterlimit="10"/>
<path d="M557.794 203.485C556.129 197.576 554.095 192.406 553.54 192.221C552.8 191.852 553.725 196.284 555.574 202.192C557.239 208.101 559.273 213.272 559.828 213.825C560.568 214.01 559.643 209.394 557.794 203.485Z" stroke="#5CB8EA" stroke-width="0.7002" stroke-miterlimit="10"/>
<path d="M233.4 476.399C233.77 473.075 237.469 471.044 241.538 471.967C245.607 472.706 248.381 476.029 247.826 479.169C247.271 482.308 243.572 484.339 239.689 483.6C235.62 482.677 232.846 479.538 233.4 476.399Z" stroke="#5CB8EA" stroke-width="0.498" stroke-miterlimit="10"/>
<path d="M354.539 453.687C356.019 451.102 354.909 448.516 352.135 447.778C349.361 447.224 346.032 448.701 344.737 451.286C343.443 453.871 344.552 456.456 347.141 457.01C349.731 457.934 353.06 456.272 354.539 453.687Z" stroke="#5CB8EA" stroke-width="0.7057" stroke-miterlimit="10"/>
<path d="M31.8106 411.217C30.7009 408.632 30.331 406.785 31.0708 407.155C31.8106 407.524 33.4751 409.924 34.5847 412.694C35.6944 415.279 36.0643 417.126 35.3245 416.757C34.5847 416.387 33.1052 413.802 31.8106 411.217Z" stroke="#5CB8EA" stroke-width="0.2417" stroke-miterlimit="10"/>
<path d="M355.834 198.315C356.204 195.36 353.799 192.591 350.47 191.852C347.141 191.113 344.182 192.96 343.812 195.914C343.443 198.869 345.847 201.823 349.176 202.377C352.505 203.116 355.464 201.269 355.834 198.315Z" stroke="#5CB8EA" stroke-width="0.5742" stroke-miterlimit="10"/>
<path d="M245.237 175.972C245.792 174.126 244.312 172.094 242.093 171.725C239.873 171.356 237.654 172.648 237.099 174.495C236.544 176.341 238.024 178.373 240.243 178.742C242.648 179.296 244.867 178.003 245.237 175.972Z" stroke="#5CB8EA" stroke-width="0.5441" stroke-miterlimit="10"/>
<path d="M221.934 41.5463C224.523 39.3305 228.407 38.038 230.626 38.5919C232.846 39.1459 232.661 41.177 230.256 43.3929C227.852 45.6087 223.783 47.0859 221.379 46.5319C219.16 45.978 219.345 43.7622 221.934 41.5463Z" stroke="#5CB8EA" stroke-width="0.2417" stroke-miterlimit="10"/>
<path d="M148.141 48.5631C149.99 47.2706 152.21 46.3473 153.134 46.532C153.874 46.7166 153.134 48.0092 151.285 49.3017C149.435 50.5943 147.216 51.7022 146.291 51.5175C145.367 51.1482 146.291 49.8557 148.141 48.5631Z" stroke="#5CB8EA" stroke-width="0.4873" stroke-miterlimit="10"/>
<path d="M91.3628 108.575C90.9929 106.728 88.4037 107.097 85.4445 109.683C82.6704 112.268 80.636 115.776 81.0059 117.807C81.3758 119.654 84.1499 119.284 86.9241 116.699" stroke="#5CB8EA" stroke-width="0.2417" stroke-miterlimit="10"/>
<path d="M17.015 263.866C16.4601 269.405 14.4257 273.283 12.3914 272.544C10.5419 271.806 9.43223 267.005 9.98707 261.465" stroke="#5CB8EA" stroke-width="0.6879" stroke-miterlimit="10"/>
<path d="M341.223 64.443C341.408 62.5965 343.073 61.304 345.107 61.6733C347.142 62.0426 348.806 63.8891 348.621 65.7356C348.621 67.7667 346.772 68.8746 344.737 68.5053C342.703 68.3207 341.038 66.4742 341.223 64.443Z" fill="#5CB8EA"/>
<path d="M425.743 306.52C426.483 303.196 424.263 299.873 420.934 298.949C417.605 298.211 414.276 300.242 413.537 303.75C412.797 307.074 415.016 310.398 418.345 311.321C421.674 312.06 425.003 309.844 425.743 306.52Z" fill="#5CB8EA"/>
<path d="M230.811 408.632C231.181 405.493 228.777 402.539 225.448 401.985C222.119 401.431 219.16 403.462 218.975 406.601C218.79 409.74 221.194 412.694 224.338 413.248C227.667 413.802 230.441 411.771 230.811 408.632Z" fill="#5CB8EA"/>
<path d="M420.38 481.015C422.784 477.876 427.038 475.476 429.997 475.845C432.956 476.214 433.326 478.984 430.921 482.123C428.517 485.262 424.263 487.478 421.489 487.293C418.53 486.924 418.16 484.154 420.38 481.015Z" fill="#5CB8EA"/>
<path d="M324.948 7.9399C325.318 7.5706 325.318 7.38594 324.948 7.20129C324.578 7.20129 323.838 7.38594 323.469 7.5706C323.099 7.9399 323.099 8.12455 323.469 8.3092C323.838 8.49385 324.578 8.3092 324.948 7.9399Z" fill="#5CB8EA"/>
<path d="M274.273 3.8776C276.677 3.32365 277.972 2.95435 277.417 2.7697C276.677 2.58504 274.273 2.95435 271.684 3.32365C269.28 3.8776 267.8 4.2469 268.54 4.43155C269.28 4.6162 271.869 4.2469 274.273 3.8776Z" fill="#5CB8EA"/>
<path d="M426.668 298.58C427.038 296.918 425.928 295.441 424.448 295.072C422.969 294.703 421.489 295.81 421.119 297.288C420.75 298.949 421.859 300.427 423.339 300.796C424.818 301.165 426.298 300.242 426.668 298.58Z" fill="#5CB8EA"/>
<path d="M152.21 251.494C152.949 247.986 156.648 245.77 160.347 246.509C164.046 247.247 166.265 250.94 165.526 254.449C164.786 257.957 161.087 260.357 157.388 259.434C153.689 258.696 151.285 255.003 152.21 251.494Z" fill="#5CB8EA"/>
<path d="M506.934 105.805C505.269 103.774 503.975 102.112 503.975 102.112C503.975 102.112 505.454 103.589 506.934 105.805C508.598 107.651 509.893 109.498 509.893 109.498C509.893 109.498 508.598 107.836 506.934 105.805Z" fill="#5CB8EA"/>
<path d="M446.087 404.016C447.382 401.43 446.457 398.661 444.238 398.107C441.833 397.553 439.059 399.215 437.764 401.8C436.47 404.385 437.395 407.155 439.799 407.709C441.833 408.263 444.792 406.601 446.087 404.016Z" fill="#5CB8EA"/>
<path d="M174.958 166.739C176.252 163.416 179.951 161.385 183.28 162.123C186.609 162.862 188.274 166.001 187.164 169.325C185.87 172.648 182.171 174.679 178.842 173.941C175.513 173.202 173.663 170.063 174.958 166.739Z" fill="#5CB8EA"/>
<path d="M417.051 396.63C417.79 394.414 420.195 392.752 422.414 393.121C424.633 393.491 425.743 395.522 425.003 397.737C424.263 399.953 421.859 401.431 419.64 401.246C417.605 400.877 416.311 398.845 417.051 396.63Z" fill="#5CB8EA"/>
<path d="M558.903 333.294C559.273 331.817 559.088 330.34 558.718 330.155C558.348 329.971 557.794 331.079 557.609 332.556C557.239 334.033 557.424 335.51 557.794 335.695C557.979 335.88 558.533 334.772 558.903 333.294Z" fill="#5CB8EA"/>
<path d="M243.942 548.228C244.312 547.489 244.312 546.935 243.572 546.751C243.018 546.566 242.278 547.12 241.723 547.674C241.353 548.413 241.538 548.966 242.093 549.151C242.833 549.336 243.572 548.782 243.942 548.228Z" fill="#5CB8EA"/>
<path d="M311.817 559.307C315.146 558.568 317.365 557.645 316.626 557.46C315.886 557.276 312.742 557.645 309.598 558.384C306.454 559.122 304.234 559.861 304.789 560.046C305.344 560.415 308.488 560.046 311.817 559.307Z" fill="#5CB8EA"/>
<path d="M34.7696 279.93C35.1395 275.314 37.7287 272.175 40.5029 273.098C43.2771 274.022 45.1265 278.269 44.7566 282.885C44.3867 287.501 41.7975 290.64 39.0233 289.717C36.2492 288.794 34.3997 284.547 34.7696 279.93Z" fill="#5CB8EA"/>
<path d="M25.7074 162.493C27.1869 159.538 27.9267 157.138 27.7418 157.322C27.5568 157.507 26.0773 159.907 24.7827 162.862C23.3031 165.816 22.5633 168.217 22.7483 168.032C22.9332 167.847 24.4128 165.447 25.7074 162.493Z" fill="#5CB8EA"/>
<path d="M354.539 434.114C356.204 430.605 354.354 427.097 350.655 426.358C346.956 425.435 342.703 427.651 341.223 431.159C339.744 434.668 341.408 437.991 345.107 438.915C348.806 439.653 353.06 437.437 354.539 434.114Z" fill="#5CB8EA"/>
<path d="M281.301 156.399C281.671 154.922 283.15 153.999 284.815 154.368C286.479 154.737 287.404 156.03 287.034 157.507C286.664 158.984 285.185 159.907 283.52 159.538C281.856 159.354 280.931 157.876 281.301 156.399Z" fill="#5CB8EA"/>
<path d="M135.565 79.0305C137.599 76.8147 137.784 74.7835 136.119 74.4142C134.455 74.2295 131.311 75.7068 129.276 78.1072C127.242 80.323 126.872 82.5388 128.722 82.7235C130.386 82.9081 133.53 81.2463 135.565 79.0305Z" fill="#5CB8EA"/>
<path d="M191.048 29.5441C193.452 28.2516 194.377 26.959 193.267 26.7744C192.158 26.5897 189.384 27.513 186.979 28.8055C184.575 30.0981 183.465 31.3907 184.76 31.5753C185.87 31.9446 188.644 31.0213 191.048 29.5441Z" fill="#5CB8EA"/>
<path d="M150.915 462.919C149.99 460.334 147.771 458.118 145.552 457.749C143.517 457.564 142.593 459.411 143.517 461.996C144.442 464.581 146.846 466.797 148.881 466.982C150.73 467.351 151.655 465.504 150.915 462.919Z" fill="#5CB8EA"/>
<path d="M6.84297 345.112C6.10319 341.788 6.28814 339.573 6.84297 339.942C7.58275 340.311 8.50748 343.266 9.24726 346.589C9.80209 349.913 9.98704 352.129 9.24726 351.759C8.50748 351.206 7.39781 348.251 6.84297 345.112Z" fill="#5CB8EA"/>
<path d="M70.0941 251.863C71.0189 247.616 74.1629 244.847 77.4919 245.77C80.8209 246.693 82.6704 250.756 81.9306 255.003C81.0059 259.249 77.8618 262.019 74.5328 261.096C71.2038 260.357 69.1694 256.11 70.0941 251.863Z" fill="#5CB8EA"/>
<path d="M276.493 25.6663C277.972 24.3738 280.376 23.6352 281.856 24.0045C283.336 24.3738 283.336 25.4817 282.041 26.7742C280.746 28.0668 278.342 28.8054 276.678 28.6208C275.013 28.2515 275.013 26.7742 276.493 25.6663Z" fill="#5CB8EA"/>
<path d="M262.807 548.967C263.731 547.674 266.321 546.751 268.355 547.12C270.389 547.489 271.129 548.782 270.02 550.074C268.91 551.367 266.321 552.106 264.471 551.736C262.622 551.552 261.882 550.259 262.807 548.967Z" fill="#5CB8EA"/>
<path d="M209.543 528.47C209.173 527.547 208.433 526.624 207.693 526.439C206.953 526.255 206.583 526.993 206.953 527.916C207.323 528.84 208.063 529.763 208.803 529.763C209.543 530.132 209.912 529.394 209.543 528.47Z" fill="#5CB8EA"/>
<path d="M144.442 532.348C140.558 530.317 137.599 528.655 137.599 528.839C137.784 529.024 140.928 531.055 144.627 533.086C148.511 535.118 151.47 536.595 151.47 536.41C151.47 536.226 148.141 534.379 144.442 532.348Z" fill="#5CB8EA"/>
<path d="M356.019 8.86319C353.799 7.93994 351.95 7.38599 351.58 7.38599C351.21 7.38599 352.505 7.75529 354.539 8.67854C356.574 9.41714 358.423 10.3404 358.978 10.3404C359.533 10.3404 358.238 9.6018 356.019 8.86319Z" fill="#5CB8EA"/>
<path d="M155.539 123.162C157.018 120.762 159.977 119.284 162.197 119.654C164.416 120.208 165.156 122.423 163.861 125.009C162.566 127.409 159.607 129.071 157.203 128.517C154.984 127.963 154.244 125.562 155.539 123.162Z" fill="#5CB8EA"/>
<path d="M568.335 271.99C568.15 269.036 567.781 266.636 567.596 266.451C567.226 266.266 567.041 268.297 567.041 271.252C567.226 274.206 567.596 276.607 567.966 276.976C568.15 277.161 568.52 274.945 568.335 271.99Z" fill="#5CB8EA"/>
<path d="M115.775 446.116C115.036 443.716 116.33 442.238 118.55 442.792C120.769 443.346 122.988 445.747 123.543 448.147C124.098 450.548 122.988 452.025 120.769 451.471C118.735 450.917 116.515 448.517 115.775 446.116Z" fill="#5CB8EA"/>
<path d="M230.256 389.613C193.637 350.282 157.018 310.029 126.687 267.559" stroke="#92CEEA" stroke-width="0.2417" stroke-miterlimit="10"/>
<path d="M106.713 340.311C144.997 357.484 186.794 373.733 230.256 389.613" stroke="#92CEEA" stroke-width="0.2417" stroke-miterlimit="10"/>
<path d="M339.374 137.196C345.292 160.277 351.21 191.668 357.683 216.78" stroke="#92CEEA" stroke-width="0.2417" stroke-miterlimit="10"/>
<path d="M284.075 156.953C283.52 166.555 282.966 176.341 282.596 186.497" stroke="#5CB8EA" stroke-width="0.3868" stroke-miterlimit="10"/>
<path d="M181.061 168.032C213.426 174.126 247.641 180.404 282.781 186.497" stroke="#5CB8EA" stroke-width="0.3868" stroke-miterlimit="10"/>
<path d="M314.776 325.908C285.925 347.882 257.073 368.932 230.256 389.613" stroke="#92CEEA" stroke-width="0.2417" stroke-miterlimit="10"/>
<path d="M327.907 291.563C312.372 255.926 296.467 220.842 282.596 186.497" stroke="#5CB8EA" stroke-width="0.3868" stroke-miterlimit="10"/>
<path d="M327.907 291.563C332.716 332.741 336.6 372.81 337.154 411.033" stroke="#52A4D8" stroke-width="0.4835" stroke-miterlimit="10"/>
<path d="M425.188 318.892C394.302 310.398 361.752 301.165 327.907 291.379" stroke="#52A4D8" stroke-width="0.4835" stroke-miterlimit="10"/>
<path d="M327.907 291.563C364.896 264.05 399.111 236.353 425.928 206.624C449.786 180.219 466.801 152.521 470.87 125.932" stroke="#52A4D8" stroke-width="0.4835" stroke-miterlimit="10"/>
<path d="M243.387 22.1581C224.708 43.9469 228.407 85.124 244.312 127.963C263.731 180.034 295.727 234.137 327.907 291.563" stroke="#52A4D8" stroke-width="0.4835" stroke-miterlimit="10"/>
<path d="M327.907 291.563C323.653 303.012 319.215 314.46 314.591 325.909" stroke="#92CEEA" stroke-width="0.2417" stroke-miterlimit="10"/>
<path d="M528.572 431.529C530.422 428.574 531.901 425.804 532.086 425.62C532.271 425.435 530.792 427.651 528.942 430.605C527.093 433.56 525.613 436.33 525.428 436.514C525.428 436.699 526.908 434.668 528.572 431.529Z" fill="#52A4D8"/>
<path d="M328.462 409.555C329.757 405.308 334.565 402.723 339.559 403.462C344.367 404.2 347.326 408.263 346.032 412.51C344.737 416.572 339.744 419.342 335.12 418.603C330.127 417.68 327.167 413.618 328.462 409.555Z" fill="#52A4D8"/>
<path d="M318.66 289.717C319.585 285.101 324.393 282.331 329.572 283.254C334.75 284.177 338.264 288.609 337.339 293.225C336.6 297.842 331.606 300.796 326.428 299.873C321.249 298.765 317.735 294.333 318.66 289.717Z" fill="#52A4D8"/>
<path d="M240.983 21.6041C243.202 20.3115 246.162 19.5729 247.456 19.9422C248.751 20.1269 248.011 21.4194 245.977 22.712C243.757 24.0045 240.798 24.7432 239.504 24.5585C238.024 24.1892 238.764 22.8966 240.983 21.6041Z" fill="#52A4D8"/>
<path d="M489.734 92.8793C486.96 89.5556 483.816 86.7858 482.891 86.6012C481.781 86.4165 483.261 88.6323 485.85 91.956C488.624 95.2798 491.583 98.2342 492.693 98.4188C493.803 98.6035 492.508 96.203 489.734 92.8793Z" fill="#52A4D8"/>
<path d="M416.866 317.599C417.605 312.983 422.044 310.028 426.483 310.582C430.921 311.321 434.066 315.568 433.141 320C432.401 324.616 427.962 327.755 423.524 327.016C419.085 326.462 416.126 322.215 416.866 317.599Z" fill="#52A4D8"/>
<path d="M30.8858 254.264C31.2557 250.202 29.9611 246.693 27.9267 246.509C25.8923 246.324 23.8579 249.648 23.488 253.895C23.1181 257.957 24.4128 261.466 26.4471 261.65C28.2966 261.65 30.331 258.326 30.8858 254.264Z" fill="#52A4D8"/>
<path d="M352.875 453.317C353.799 451.471 353.06 449.809 351.21 449.255C349.361 448.886 347.141 449.994 346.217 451.656C345.292 453.502 346.032 455.164 347.881 455.718C349.731 456.272 351.95 455.164 352.875 453.317Z" fill="#52A4D8"/>
<path d="M450.156 370.963C451.265 366.901 455.334 363.946 459.033 364.5C462.732 365.054 464.766 368.747 463.472 372.81C462.362 376.872 458.293 379.826 454.779 379.272C450.895 378.719 449.046 375.026 450.156 370.963Z" fill="#52A4D8"/>
<path d="M398.001 334.033C398.371 332.002 400.406 330.709 402.625 330.894C404.659 331.263 406.139 333.11 405.769 335.141C405.399 337.172 403.365 338.465 401.145 338.28C398.926 338.095 397.446 336.064 398.001 334.033Z" fill="#52A4D8"/>
<path d="M452.005 327.94C452.93 324.062 450.895 320.369 447.382 319.446C443.868 318.523 440.169 320.923 439.244 324.801C438.319 328.678 440.354 332.371 443.868 333.295C447.382 334.218 451.08 331.817 452.005 327.94Z" fill="#52A4D8"/>
<path d="M353.984 197.946C354.169 195.914 352.505 193.883 350.286 193.329C347.881 192.775 345.847 194.068 345.477 196.284C345.107 198.315 346.772 200.346 349.176 200.9C351.765 201.269 353.799 199.977 353.984 197.946Z" fill="#52A4D8"/>
<path d="M524.873 262.943C524.873 259.065 523.024 255.372 520.62 254.818C518.215 254.079 516.181 256.664 515.996 260.542C515.996 264.42 517.845 268.113 520.25 268.667C522.839 269.405 524.873 266.82 524.873 262.943Z" fill="#52A4D8"/>
<path d="M477.343 494.125C480.302 491.355 483.076 488.77 483.446 488.401C483.816 488.216 481.596 490.248 478.452 493.017C475.493 495.787 472.719 498.372 472.349 498.557C472.164 498.926 474.383 496.895 477.343 494.125Z" fill="#52A4D8"/>
<path d="M76.5671 121.87C78.6015 118.915 81.3757 117.069 82.8553 117.438C84.3348 117.807 84.1499 120.577 82.1155 123.347C80.0811 126.301 77.3069 128.332 75.6424 127.778C74.3478 127.594 74.7177 124.824 76.5671 121.87Z" fill="#52A4D8"/>
<path d="M387.09 97.3109C386.905 95.4644 385.24 93.8025 383.391 93.4332C381.541 93.0639 380.247 94.1718 380.432 95.8337C380.616 97.6802 382.281 99.342 384.13 99.7113C385.98 100.265 387.274 99.1574 387.09 97.3109Z" fill="#52A4D8"/>
<path d="M117.07 376.318C117.07 374.102 118.55 372.81 120.584 373.364C122.618 373.918 124.283 375.949 124.283 378.165C124.283 380.38 122.803 381.673 120.769 381.119C118.735 380.565 117.07 378.349 117.07 376.318Z" fill="#52A4D8"/>
<path d="M567.411 318.153C567.966 313.906 568.151 310.213 567.781 309.844C567.411 309.475 566.671 312.614 566.116 316.861C565.561 321.108 565.376 324.801 565.746 325.17C566.116 325.539 566.856 322.4 567.411 318.153Z" fill="#52A4D8"/>
<path d="M406.139 65.7357C404.844 63.1506 401.885 60.5655 399.666 60.0116C397.261 59.4576 396.337 61.3041 397.261 63.8892C398.371 66.4743 401.145 69.2441 403.735 69.6134C406.139 70.1673 407.249 68.5055 406.139 65.7357Z" fill="#52A4D8"/>
<path d="M480.487 77.3687C478.267 75.1529 476.048 73.3064 475.863 73.3064C475.678 73.3064 477.158 74.9683 479.562 76.9994C481.781 79.2152 483.816 81.0617 484.186 81.2464C484.371 81.2464 482.706 79.5845 480.487 77.3687Z" fill="#52A4D8"/>
<path d="M356.204 89.1863C356.204 86.7858 354.169 84.57 351.58 84.2007C348.991 83.6467 346.772 85.1239 346.587 87.3397C346.402 89.7402 348.436 91.956 351.21 92.51C353.984 93.0639 356.204 91.5867 356.204 89.1863Z" fill="#52A4D8"/>
<path d="M176.437 57.057C178.102 55.5798 178.287 54.1026 176.807 53.918C175.328 53.7333 172.923 54.6566 171.259 56.3184C169.594 57.7956 169.409 59.2728 170.889 59.6421C172.369 59.6421 174.958 58.5342 176.437 57.057Z" fill="#52A4D8"/>
<path d="M210.467 37.6687C213.241 35.6375 213.796 33.6064 211.577 33.2371C209.543 32.8678 205.474 34.1603 202.7 36.1915C199.74 38.2226 199.186 40.2538 201.405 40.6231C203.624 41.1771 207.693 39.6998 210.467 37.6687Z" fill="#52A4D8"/>
<path d="M149.99 376.687C149.99 374.841 148.511 373.179 146.661 372.994C144.997 372.81 143.702 374.102 143.702 375.764C143.887 377.611 145.182 379.273 147.031 379.457C148.696 379.642 150.175 378.349 149.99 376.687Z" fill="#52A4D8"/>
<path d="M76.7521 175.972C77.4919 173.941 76.9371 172.279 75.4575 172.094C73.978 171.91 72.3135 173.387 71.5737 175.418C70.8339 177.449 71.3887 179.111 72.8683 179.296C74.1629 179.48 76.0124 178.003 76.7521 175.972Z" fill="#52A4D8"/>
<path d="M189.014 144.397C190.308 141.073 188.644 137.934 185.13 137.38C181.616 136.826 177.732 139.042 176.252 142.181C174.958 145.505 176.622 148.644 180.136 149.198C183.65 149.936 187.534 147.721 189.014 144.397Z" stroke="#5FB9EA" stroke-width="0.4897" stroke-miterlimit="10"/>
<path d="M115.221 375.764C115.036 372.625 117.44 370.594 120.584 371.333C123.728 372.071 126.132 375.21 126.132 378.349C126.132 381.488 123.728 383.52 120.769 382.781C117.81 382.042 115.406 378.903 115.221 375.764Z" stroke="#5FB9EA" stroke-width="0.717" stroke-miterlimit="10"/>
<path d="M416.866 217.703C417.051 213.272 420.565 210.317 424.818 211.056C429.072 211.794 432.586 215.857 432.586 220.288C432.586 224.72 429.072 227.859 424.633 227.12C420.195 226.382 416.681 222.135 416.866 217.703Z" stroke="#5FB9EA" stroke-width="0.5302" stroke-miterlimit="10"/>
<path d="M217.31 240.415C217.865 237.461 215.646 234.506 212.317 233.952C208.988 233.398 205.844 235.245 205.104 238.384C204.549 241.338 206.768 244.293 210.097 244.847C213.426 245.401 216.755 243.37 217.31 240.415Z" stroke="#5FB9EA" stroke-width="0.5498" stroke-miterlimit="10"/>
<path d="M407.988 66.105C406.139 62.2273 401.885 58.5343 398.371 57.9804C395.042 57.2417 393.563 59.6422 394.857 63.5199C396.337 67.3975 400.591 71.2752 404.289 72.0138C408.358 72.7524 410.023 70.1673 407.988 66.105Z" stroke="#5FB9EA" stroke-width="0.7053" stroke-miterlimit="10"/>
<path d="M357.683 89.5556C357.683 86.6012 355.094 83.6468 351.765 83.0928C348.436 82.5389 345.662 84.2007 345.477 87.1551C345.292 90.1095 347.881 93.0639 351.21 93.8025C354.724 94.3565 357.498 92.51 357.683 89.5556Z" stroke="#5FB9EA" stroke-width="0.6182" stroke-miterlimit="10"/>
<path d="M212.502 16.0646C216.2 14.5874 218.235 13.2949 217.125 13.1102C216.016 12.9256 211.947 13.8488 208.063 15.326C204.179 16.8032 202.145 18.2804 203.439 18.4651C204.734 18.8344 208.803 17.5418 212.502 16.0646Z" stroke="#5FB9EA" stroke-width="0.5" stroke-miterlimit="10"/>
<path d="M434.805 91.5867C438.134 91.7713 442.943 95.4643 445.532 100.265C448.121 105.066 447.382 109.128 443.868 108.944" stroke="#5FB9EA" stroke-width="0.6858" stroke-miterlimit="10"/>
<path d="M166.635 454.425C169.964 449.994 177.917 450.363 184.02 455.164C189.938 459.965 191.603 467.166 188.089 471.229C184.575 475.291 177.362 474.922 171.629 470.49" stroke="#5FB9EA" stroke-width="0.8776" stroke-miterlimit="10"/>
<path d="M27.5568 244.293C24.9676 244.847 22.5633 249.832 22.3784 255.187C22.1934 260.542 24.2278 264.235 27.002 263.681C29.7762 262.943 31.9955 258.142 32.1804 252.787" stroke="#5FB9EA" stroke-width="0.6263" stroke-miterlimit="10"/>
<path d="M503.235 218.442C503.975 216.226 503.235 213.087 501.386 211.24C499.536 209.394 497.317 209.579 496.577 211.794C495.837 214.01 496.577 217.149 498.426 218.996" stroke="#5FB9EA" stroke-width="0.2417" stroke-miterlimit="10"/>
<path d="M478.452 262.389C474.199 265.343 468.465 263.312 465.506 257.957C462.547 252.602 463.657 245.955 467.91 243C471.979 240.046 477.713 242.077 480.672 247.432" stroke="#5FB9EA" stroke-width="0.6465" stroke-miterlimit="10"/>
<path d="M523.949 415.833C522.284 421.004 523.394 423.219 526.353 420.819C529.127 418.419 533.011 412.14 534.676 406.97C536.34 401.615 535.23 399.4 532.271 401.8" stroke="#5FB9EA" stroke-width="0.691" stroke-miterlimit="10"/>
<path d="M300.905 223.427C302.57 219.55 300.535 215.118 296.097 213.456C291.658 211.794 286.664 213.456 284.815 217.149C282.966 221.027 285.185 225.459 289.624 227.12" stroke="#5FB9EA" stroke-width="0.2417" stroke-miterlimit="10"/>
<path d="M467.541 125.378C466.431 122.793 466.986 120.946 468.65 121.315C470.315 121.685 472.719 123.901 473.829 126.486C474.938 129.071 474.384 130.917 472.719 130.733C471.055 130.363 468.65 127.963 467.541 125.378Z" fill="#52A4D8"/>
<path d="M278.897 185.759C279.267 183.912 281.486 182.62 283.52 182.989C285.74 183.358 287.034 185.389 286.665 187.236C286.295 189.267 284.075 190.375 282.041 190.006C279.822 189.636 278.342 187.605 278.897 185.759Z" fill="#52A4D8"/>
<path d="M272.239 452.764C272.609 451.286 274.458 450.363 276.123 450.548C277.972 450.917 279.082 452.394 278.712 453.871C278.342 455.349 276.493 456.272 274.828 455.903C272.979 455.903 271.869 454.425 272.239 452.764Z" fill="#52A4D8"/>
<path d="M227.297 9.04789C229.332 8.49393 231.366 8.12463 231.736 8.12463C232.106 8.30928 230.811 8.67859 228.777 9.41719C226.742 9.97114 224.708 10.5251 224.153 10.3404C223.968 10.1558 225.263 9.60184 227.297 9.04789Z" fill="#52A4D8"/>
<path d="M480.117 429.128C481.781 426.358 481.596 423.589 479.932 423.035C478.082 422.481 475.308 424.327 473.644 427.097C471.979 429.867 472.164 432.637 474.014 433.191C475.678 433.745 478.452 431.898 480.117 429.128Z" fill="#52A4D8"/>
<path d="M295.172 475.106C295.727 473.629 294.987 472.336 293.507 471.967C292.028 471.598 290.363 472.521 289.809 473.998C289.254 475.476 289.994 476.768 291.473 477.137C292.953 477.507 294.617 476.583 295.172 475.106Z" fill="#52A4D8"/>
<path d="M375.623 25.4817C374.513 24.1892 372.664 23.0813 371.739 22.8966C370.814 22.712 370.814 23.4506 371.739 24.7431C372.849 26.0357 374.513 27.1436 375.623 27.5129C376.733 27.6975 376.733 26.7743 375.623 25.4817Z" fill="#52A4D8"/>
<path d="M199.925 89.9249C201.22 88.0784 203.809 86.9705 205.659 87.3398C207.508 87.7091 208.063 89.5556 206.953 91.4021C205.659 93.2486 203.069 94.5412 201.22 94.1719C199.186 93.6179 198.631 91.7714 199.925 89.9249Z" fill="#52A4D8"/>
<path d="M8.3225 357.668C7.76766 356.007 7.21283 354.899 7.21283 354.899C7.21283 354.899 7.39777 356.561 7.76766 358.222C8.3225 359.884 8.87733 360.992 8.87733 360.992C8.87733 360.992 8.87733 359.33 8.3225 357.668Z" fill="#52A4D8"/>
<path d="M289.069 466.797C290.178 463.289 294.617 461.073 298.871 461.811C303.125 462.55 305.714 465.874 304.419 469.382C303.125 472.706 298.871 474.922 294.617 474.183C290.363 473.444 287.959 470.121 289.069 466.797Z" fill="#52A4D8"/>
<path d="M322.359 111.16C322.914 108.021 320.324 104.882 316.626 104.143C312.927 103.404 309.413 105.436 308.673 108.575C307.933 111.714 310.522 115.037 314.406 115.776C318.29 116.515 321.804 114.483 322.359 111.16Z" fill="#52A4D8"/>
<path d="M48.8255 225.458C49.9352 221.027 53.0792 218.072 55.8534 218.996C58.6276 219.734 60.1071 223.981 58.8125 228.413C57.7028 232.844 54.5588 235.799 51.5997 234.876C49.0104 233.952 47.5309 229.705 48.8255 225.458Z" fill="#52A4D8"/>
<path d="M561.308 218.811C560.568 215.487 560.198 212.718 560.198 212.718C560.198 212.718 561.123 215.118 561.862 218.442C562.602 221.766 562.972 224.72 562.972 224.72C562.972 224.72 562.232 222.135 561.308 218.811Z" fill="#52A4D8"/>
<path d="M393.008 30.4674C391.158 28.8055 388.569 27.3283 387.459 27.1437C386.35 26.959 386.905 28.0669 388.754 29.5441C390.603 31.206 393.008 32.6832 394.302 33.0525C395.597 33.2371 395.042 32.1292 393.008 30.4674Z" fill="#52A4D8"/>
<path d="M5.36342 255.187C5.73331 252.417 6.65804 250.386 7.21287 250.571C7.95265 250.94 8.32254 253.525 7.95265 256.295C7.58276 259.065 6.65804 261.281 5.91826 260.911C5.36342 260.542 5.17848 257.957 5.36342 255.187Z" fill="#52A4D8"/>
<path d="M6.84302 293.41C6.84302 290.825 7.39785 289.163 8.13763 289.348C8.87741 289.717 9.61719 292.117 9.61719 294.518C9.61719 297.103 9.06236 298.765 8.13763 298.58C7.39785 298.211 6.84302 295.995 6.84302 293.41Z" fill="#52A4D8"/>
<path d="M394.672 383.52C395.412 381.673 394.302 379.642 392.453 379.273C390.418 378.903 388.384 380.011 387.644 382.042C386.905 383.889 388.014 385.92 389.864 386.289C391.713 386.659 393.932 385.366 394.672 383.52Z" fill="#52A4D8"/>
<path d="M91.9176 444.639C90.623 442.054 88.4037 440.023 86.9241 439.838C85.4445 439.838 85.4445 441.685 86.7392 444.27C88.0338 446.855 90.2531 448.886 91.7327 448.886C93.2122 449.071 93.2122 447.224 91.9176 444.639Z" fill="#52A4D8"/>
<path d="M161.457 36.7455C163.121 35.6376 164.046 34.899 163.306 34.7144C162.751 34.7144 160.902 35.453 159.053 36.3762C157.388 37.4841 156.463 38.4074 157.203 38.4074C157.943 38.592 159.792 37.8534 161.457 36.7455Z" fill="#52A4D8"/>
<path d="M375.993 532.163C379.137 529.763 383.576 528.101 385.98 528.286C388.384 528.47 387.829 530.502 384.5 532.902C381.356 535.118 376.918 536.78 374.698 536.595C372.294 536.41 372.849 534.379 375.993 532.163Z" fill="#52A4D8"/>
<path d="M122.064 208.471C122.803 206.255 124.838 204.962 126.872 205.516C128.722 205.886 129.831 208.101 129.092 210.133C128.352 212.348 126.317 213.641 124.283 213.272C122.433 212.718 121.509 210.686 122.064 208.471Z" fill="#52A4D8"/>
<path d="M475.493 338.834C476.048 336.434 477.897 334.772 479.747 334.956C481.596 335.141 482.891 337.357 482.336 339.573C481.781 341.973 479.932 343.635 478.082 343.45C476.233 343.266 475.123 341.234 475.493 338.834Z" fill="#52A4D8"/>
<path d="M309.968 429.128C310.892 425.804 314.961 423.589 318.845 424.327C322.729 425.066 325.133 428.205 324.023 431.529C322.914 434.852 319.03 436.884 315.146 436.33C311.262 435.591 308.858 432.452 309.968 429.128Z" fill="#52A4D8"/>
<path d="M93.767 483.97C91.5477 481.569 89.1434 479.723 88.4036 479.723C87.6638 479.723 88.9585 481.938 91.1778 484.154C93.3971 486.555 95.8014 488.401 96.5412 488.216C97.281 488.401 95.9864 486.37 93.767 483.97Z" fill="#52A4D8"/>
<path d="M13.316 346.405C12.7612 343.266 13.1311 341.05 14.0558 341.419C15.1655 341.973 16.4601 344.928 17.0149 348.067C17.5698 351.206 17.1999 353.422 16.0902 352.868C15.1655 352.498 13.8709 349.544 13.316 346.405Z" fill="#52A4D8"/>
<path d="M563.342 339.757C564.082 336.434 564.267 333.479 563.897 333.295C563.527 332.925 562.787 335.51 562.047 338.834C561.308 342.158 561.123 345.112 561.493 345.297C561.862 345.481 562.787 343.081 563.342 339.757Z" fill="#52A4D8"/>
<path d="M356.204 13.4795C354.909 12.3716 353.245 11.2637 352.32 11.0791C351.395 10.8944 351.395 11.633 352.505 12.7409C353.43 13.8488 355.279 15.1414 356.389 15.326C357.313 15.5107 357.313 14.5874 356.204 13.4795Z" fill="#52A4D8"/>
<path d="M277.602 90.6635C278.712 87.7091 282.411 85.8626 285.74 86.4166C289.069 87.1552 290.918 90.1096 289.993 93.064C289.069 96.203 285.37 98.0495 281.856 97.4956C278.342 96.757 276.493 93.8026 277.602 90.6635Z" fill="#52A4D8"/>
<path d="M471.794 333.11C472.534 329.417 475.678 326.647 478.822 327.016C481.966 327.386 483.816 330.709 483.076 334.587C482.336 338.28 479.192 341.05 476.233 340.681C472.904 340.311 471.054 336.988 471.794 333.11Z" fill="#52A4D8"/>
<path d="M331.421 488.216C332.531 486.555 332.161 484.708 330.312 484.339C328.462 483.969 326.058 485.077 324.948 486.739C323.838 488.401 324.393 490.248 326.058 490.617C327.722 490.986 330.127 490.063 331.421 488.216Z" fill="#52A4D8"/>
<path opacity="0.74" d="M276.862 130.179C275.938 129.994 275.383 129.071 275.568 128.332C275.753 127.409 276.862 127.04 277.787 127.224C278.712 127.409 279.267 128.332 279.082 129.071C278.897 129.809 277.787 130.363 276.862 130.179Z" fill="#64BAEA"/>
<path opacity="0.41" d="M286.665 37.4841C285.74 37.2994 285.555 36.5608 286.11 35.8222C286.665 35.0836 287.774 34.7143 288.699 34.899C289.439 35.0836 289.809 35.8222 289.254 36.5608C288.514 37.1148 287.404 37.6687 286.665 37.4841Z" fill="#64BAEA"/>
<path d="M516.366 340.311C515.441 340.127 514.886 339.019 515.071 337.542C515.441 336.064 516.366 334.956 517.291 334.956C518.215 335.141 518.77 336.249 518.585 337.726C518.215 339.203 517.291 340.311 516.366 340.311Z" fill="#64BAEA"/>
<path opacity="0.8" d="M535.785 149.382C535.785 149.382 535.6 149.013 535.23 148.459C535.045 147.905 534.675 147.536 534.675 147.536C534.675 147.536 534.86 147.905 535.23 148.459C535.6 148.828 535.785 149.382 535.785 149.382Z" fill="#64BAEA"/>
<path opacity="0.52" d="M8.13757 256.48C8.87735 256.48 9.80208 254.079 10.172 251.31C10.5419 248.54 9.98702 246.324 9.24724 246.324C8.50746 246.324 7.58274 248.725 7.21285 251.494C6.84296 254.264 7.21285 256.48 8.13757 256.48Z" fill="#64BAEA"/>
<path opacity="0.07" d="M154.429 68.6901C157.203 69.0594 162.012 66.8436 164.971 63.8892C168.115 60.7501 168.485 57.9804 165.711 57.6111C163.121 57.2418 158.313 59.2729 155.169 62.412C152.21 65.3664 151.84 68.3208 154.429 68.6901Z" fill="#64BAEA"/>
<path opacity="0.72" d="M81.7457 102.297C81.1909 102.112 81.5608 100.819 82.8554 99.5268C83.965 98.0496 85.4446 97.1264 85.9994 97.311C86.5543 97.4957 86.1844 98.7882 84.8898 100.081C83.7801 101.373 82.3005 102.481 81.7457 102.297Z" fill="#64BAEA"/>
<path opacity="0.47" d="M326.983 10.1558C326.798 10.1558 326.983 9.78646 326.983 9.78646C326.983 9.78646 327.352 9.60181 327.537 9.60181C327.722 9.60181 327.722 9.97111 327.722 9.97111C327.722 9.97111 327.168 10.1558 326.983 10.1558Z" fill="#64BAEA"/>
<path opacity="0.47" d="M347.696 88.263C343.258 87.3397 339.929 83.4621 340.299 79.3998C340.668 75.5221 344.182 73.1216 348.251 73.8602C352.32 74.5988 355.649 78.4765 355.649 82.3542C355.649 86.4165 352.135 89.0016 347.696 88.263Z" fill="#64BAEA"/>
<path opacity="0.3" d="M192.528 529.024C192.897 529.024 192.897 528.655 192.528 528.286C192.158 527.916 191.788 527.362 191.418 527.362C191.048 527.362 191.048 527.732 191.418 528.101C191.788 528.655 192.158 529.024 192.528 529.024Z" fill="#64BAEA"/>
<path opacity="0.5" d="M370.075 13.6641C370.075 13.6641 369.89 13.4795 369.335 13.2948C368.78 13.1102 368.225 12.9255 368.225 12.9255C368.225 12.9255 368.41 13.1102 368.965 13.2948C369.52 13.4795 370.075 13.6641 370.075 13.6641Z" fill="#64BAEA"/>
<path opacity="0.17" d="M102.829 83.6467C103.384 83.6467 104.864 82.9081 105.788 81.8002C106.898 80.6923 107.083 79.769 106.528 79.769C105.973 79.769 104.679 80.5076 103.569 81.6156C102.459 82.7235 102.275 83.6467 102.829 83.6467Z" fill="#64BAEA"/>
<path opacity="0.51" d="M112.077 510.19C112.262 510.005 109.857 507.974 106.713 505.389C103.569 502.989 100.98 500.957 100.795 501.142C100.61 501.327 103.014 503.543 106.158 506.128C109.117 508.528 111.892 510.375 112.077 510.19Z" fill="#64BAEA"/>
<path opacity="0.94" d="M298.871 84.016C299.981 84.2007 301.275 83.6467 301.46 82.7235C301.83 81.8002 301.09 80.877 299.981 80.5077C298.871 80.323 297.576 80.877 297.391 81.8002C296.837 82.9081 297.576 83.8314 298.871 84.016Z" fill="#64BAEA"/>
<path opacity="0.26" d="M423.709 477.691C424.818 478.061 426.853 477.137 428.147 475.66C429.442 474.183 429.627 472.706 428.332 472.336C427.223 471.967 425.188 472.89 423.894 474.368C422.784 475.845 422.599 477.322 423.709 477.691Z" fill="#64BAEA"/>
<path opacity="0.85" d="M345.847 5.53958C345.847 5.53958 343.812 4.98563 341.593 4.43168C339.374 3.87772 337.524 3.50842 337.524 3.50842C337.524 3.50842 339.559 3.87772 341.778 4.43168C344.182 5.17028 345.847 5.53958 345.847 5.53958Z" fill="#64BAEA"/>
<path opacity="0.09" d="M74.1629 212.533C76.7521 212.902 79.7112 210.317 80.636 206.809C81.5607 203.3 80.2661 200.346 77.4919 199.977C74.9027 199.607 71.9435 202.193 71.0188 205.701C70.0941 209.025 71.5736 212.164 74.1629 212.533Z" fill="#64BAEA"/>
<path opacity="0.35" d="M38.4686 161.2C37.7288 160.831 38.0987 158.8 39.2083 156.399C40.503 153.999 41.9825 152.337 42.9072 152.521C43.647 152.891 43.2771 154.922 42.1675 157.322C40.8728 159.907 39.2083 161.569 38.4686 161.2Z" fill="#64BAEA"/>
<path opacity="0.42" d="M149.99 85.8627C149.435 85.678 149.435 85.1241 149.99 84.5701C150.545 84.0162 151.285 83.6469 151.84 83.6469C152.395 83.8315 152.395 84.3855 151.84 84.9394C151.285 85.4934 150.545 85.8627 149.99 85.8627Z" fill="#64BAEA"/>
<path opacity="0.48" d="M103.939 195.176C103.569 194.991 103.384 194.622 103.569 194.068C103.754 193.514 104.309 193.145 104.679 193.329C105.049 193.514 105.234 193.883 105.049 194.437C104.864 194.991 104.309 195.36 103.939 195.176Z" fill="#64BAEA"/>
<path opacity="0.42" d="M564.637 293.041C565.191 293.225 565.746 291.379 565.746 288.609C565.746 285.839 565.376 283.439 564.822 283.254C564.267 283.07 563.712 284.916 563.712 287.686C563.712 290.456 564.082 292.856 564.637 293.041Z" fill="#64BAEA"/>
<path opacity="0.69" d="M358.423 99.3421C356.759 98.9728 355.464 97.4956 355.649 96.0184C355.649 94.5412 356.944 93.6179 358.608 93.8026C360.088 94.1719 361.382 95.4644 361.382 96.9416C361.382 98.6035 360.088 99.5268 358.423 99.3421Z" fill="#64BAEA"/>
<path opacity="0.49" d="M182.541 17.7264C182.356 17.7264 184.39 16.8031 187.164 15.8799C189.938 14.9566 192.158 14.218 192.343 14.218C192.528 14.218 190.493 15.1413 187.719 16.0645C184.945 16.9878 182.726 17.7264 182.541 17.7264Z" fill="#64BAEA"/>
<path opacity="0.95" d="M416.681 47.2705C417.236 47.4552 417.051 46.7166 416.126 45.7933C415.201 44.8701 413.907 43.9468 413.352 43.9468C412.797 43.7622 412.982 44.5008 413.907 45.424C414.646 46.3473 415.941 47.0859 416.681 47.2705Z" fill="#64BAEA"/>
<path opacity="0.46" d="M205.659 27.6977C206.583 27.8823 208.618 27.1437 210.282 26.2204C211.947 25.2972 212.502 24.3739 211.577 24.3739C210.652 24.1893 208.618 24.9279 206.953 25.8511C205.289 26.5898 204.734 27.513 205.659 27.6977Z" fill="#64BAEA"/>
<path opacity="0.06" d="M492.323 103.958C490.104 103.589 484.74 98.6035 480.302 92.8793C475.863 87.1551 473.644 83.0928 475.678 83.4621C477.528 83.6468 482.891 88.263 487.7 93.9872C492.508 99.7114 494.543 104.328 492.323 103.958Z" fill="#64BAEA"/>
<path opacity="0.36" d="M378.952 14.772C378.952 14.772 378.212 14.4027 377.103 14.0334C375.993 13.6641 375.068 13.2948 375.068 13.2948C375.068 13.2948 375.808 13.6641 376.918 14.0334C378.027 14.5874 378.952 14.772 378.952 14.772Z" fill="#64BAEA"/>
<path opacity="0.85" d="M428.702 38.038C428.887 38.038 424.818 35.6376 419.27 32.6832C413.907 29.7288 409.098 27.5129 409.098 27.5129C408.913 27.5129 413.167 29.5441 418.53 32.4985C423.894 35.2683 428.517 37.8534 428.702 38.038Z" fill="#64BAEA"/>
<path opacity="0.62" d="M194.007 62.9659C191.788 62.412 191.788 60.1962 194.192 57.9804C196.596 55.7646 200.11 54.2874 202.33 54.8413C204.549 55.3953 204.549 57.4264 202.33 59.8269C199.925 61.858 196.411 63.3352 194.007 62.9659Z" fill="#64BAEA"/>
<path opacity="0.43" d="M253.374 389.613C250.23 389.059 248.011 386.289 248.566 383.519C249.121 380.75 252.08 379.088 255.224 379.642C258.368 380.196 260.587 382.966 260.032 385.735C259.478 388.69 256.519 390.352 253.374 389.613Z" fill="#64BAEA"/>
<path opacity="0.06" d="M246.901 2.21581C247.456 2.21581 251.525 1.84651 256.149 1.1079C260.587 0.553952 263.731 0.184651 263.361 0C262.807 0 258.738 0.184651 254.299 0.738603C249.676 1.29255 246.347 2.03116 246.901 2.21581Z" fill="#64BAEA"/>
<path opacity="0.57" d="M464.951 425.251C464.212 425.251 464.027 424.512 464.396 423.589C464.766 422.85 465.691 422.112 466.246 422.296C466.986 422.296 467.171 423.035 466.801 423.958C466.431 424.697 465.691 425.251 464.951 425.251Z" fill="#64BAEA"/>
<path opacity="0.2" d="M420.935 98.2341C419.27 97.8648 417.236 96.0183 416.681 94.1718C415.941 92.1407 416.866 90.8481 418.53 91.2174C420.195 91.5867 422.044 93.2486 422.784 95.2797C423.524 97.1262 422.784 98.6034 420.935 98.2341Z" fill="#64BAEA"/>
<path opacity="0.29" d="M12.7612 375.949C12.3913 375.395 10.7268 370.04 8.87738 363.947C7.02794 357.853 5.91827 353.237 6.28816 353.791C6.65805 354.529 8.32255 360.069 10.172 366.162C12.0214 372.256 13.1311 376.503 12.7612 375.949Z" fill="#64BAEA"/>
<path opacity="0.97" d="M400.406 34.7144C398.926 34.5297 395.227 32.1293 392.453 29.9135C389.494 27.6976 388.199 26.0358 389.494 26.2204C390.788 26.4051 394.302 28.4362 397.446 30.6521C400.59 33.0525 401.885 34.899 400.406 34.7144Z" fill="#64BAEA"/>
<path opacity="0.01" d="M408.543 62.0427C406.324 61.6734 403.365 59.0883 401.7 56.5032C400.221 53.9181 400.591 52.0716 402.625 52.4409C404.659 52.8102 407.803 55.2106 409.468 57.7957C411.132 60.5655 410.763 62.412 408.543 62.0427Z" fill="#64BAEA"/>
<path opacity="0.96" d="M502.31 137.565C503.605 137.934 503.605 136.272 502.495 134.056C501.385 131.841 499.536 129.81 498.426 129.44C497.317 129.071 497.132 130.733 498.241 132.949C499.166 135.164 501.016 137.196 502.31 137.565Z" fill="#64BAEA"/>
<path opacity="0.13" d="M294.802 4.06229C294.617 4.06229 294.987 3.87764 295.542 3.87764C296.097 3.69299 296.652 3.69299 296.837 3.69299C297.021 3.69299 296.652 3.87764 296.097 3.87764C295.542 3.87764 294.987 4.06229 294.802 4.06229Z" fill="#64BAEA"/>
<path opacity="0.77" d="M405.214 237.091C404.474 236.907 403.92 236.353 403.92 235.614C403.92 234.876 404.659 234.506 405.399 234.506C406.139 234.691 406.694 235.245 406.694 235.984C406.509 236.722 405.954 237.276 405.214 237.091Z" fill="#64BAEA"/>
<path opacity="0.2" d="M281.671 101.927C282.781 102.112 283.705 101.558 284.075 100.635C284.26 99.7113 283.705 98.9727 282.781 98.7881C281.671 98.6034 280.746 99.1574 280.376 100.081C280.007 100.819 280.561 101.558 281.671 101.927Z" fill="#64BAEA"/>
<path opacity="0.48" d="M247.641 26.5897C246.162 26.2204 246.716 24.9278 248.751 23.8199C250.785 22.5274 253.559 21.7888 254.854 22.1581C256.149 22.5274 255.779 23.6353 253.929 24.9278C251.895 26.0357 249.121 26.959 247.641 26.5897Z" fill="#64BAEA"/>
<path opacity="0.13" d="M280.376 69.798C278.712 69.4287 277.972 67.9515 278.527 66.4743C279.267 64.9971 281.116 64.0738 282.781 64.4431C284.445 64.8124 285.185 66.2896 284.63 67.5822C284.075 69.0594 282.041 69.9826 280.376 69.798Z" fill="#64BAEA"/>
<path opacity="0.43" d="M422.599 70.3519C423.339 70.5366 423.524 69.9826 422.969 69.0594C422.414 68.1361 421.489 67.3975 420.75 67.2129C420.01 67.0282 419.825 67.5822 420.38 68.5054C420.75 69.4287 421.859 70.1673 422.599 70.3519Z" fill="#64BAEA"/>
<path opacity="0.25" d="M300.35 29.1748C300.72 29.1748 301.275 28.9901 301.46 28.8055C301.645 28.4362 301.46 28.2515 301.09 28.0669C300.72 28.0669 300.165 28.2515 299.981 28.4362C299.796 28.8055 299.981 29.1748 300.35 29.1748Z" fill="#64BAEA"/>
<path opacity="0.46" d="M515.626 429.867C515.996 430.052 516.921 429.128 517.661 428.02C518.4 426.728 518.77 425.62 518.216 425.435C517.846 425.251 516.921 426.174 516.181 427.282C515.626 428.39 515.256 429.682 515.626 429.867Z" fill="#64BAEA"/>
<path opacity="0.49" d="M119.289 305.228C115.96 304.489 113.556 300.796 114.111 297.288C114.666 293.779 117.625 291.379 121.139 292.302C124.468 293.041 126.872 296.734 126.502 300.242C125.763 303.75 122.618 305.966 119.289 305.228Z" fill="#64BAEA"/>
<path opacity="0.1" d="M435.36 525.147C434.99 525.147 435.915 524.408 437.579 523.485C439.059 522.377 440.724 521.454 441.093 521.454C441.463 521.454 440.539 522.192 438.874 523.115C437.21 524.223 435.73 525.147 435.36 525.147Z" fill="#64BAEA"/>
<path opacity="0.75" d="M130.386 501.327C130.756 501.327 130.571 500.773 129.831 499.85C129.091 499.111 128.167 498.372 127.797 498.372C127.427 498.372 127.612 498.926 128.352 499.85C129.091 500.588 130.016 501.327 130.386 501.327Z" fill="#64BAEA"/>
<path opacity="0.14" d="M414.646 47.4552L414.277 47.2706L414.092 47.0859L414.461 47.2706L414.646 47.4552Z" fill="#64BAEA"/>
<path opacity="0.45" d="M138.524 115.222C137.969 115.037 137.784 114.483 138.339 113.745C138.709 113.006 139.633 112.637 140.188 112.821C140.743 113.006 140.928 113.56 140.373 114.299C140.003 114.853 139.079 115.407 138.524 115.222Z" fill="#64BAEA"/>
<path opacity="0.58" d="M351.395 145.874C349.176 145.505 347.511 143.474 347.696 141.442C347.881 139.411 349.731 138.119 351.95 138.488C354.169 138.857 355.834 140.889 355.649 142.92C355.649 144.951 353.615 146.243 351.395 145.874Z" fill="#64BAEA"/>
<path opacity="0.79" d="M325.503 29.3595C327.167 29.7288 328.832 28.8056 329.202 27.513C329.572 26.2205 328.647 24.9279 326.982 24.5586C325.503 24.1893 323.838 25.1126 323.284 26.4051C322.914 27.6977 323.838 28.9902 325.503 29.3595Z" fill="#64BAEA"/>
<path opacity="0.37" d="M243.387 6.83206C243.018 6.83206 244.127 6.27811 245.792 5.90881C247.456 5.53951 249.121 5.35486 249.491 5.35486C249.86 5.35486 248.751 5.72416 247.086 6.27811C245.422 6.64741 243.757 7.01671 243.387 6.83206Z" fill="#64BAEA"/>
<path opacity="0.95" d="M83.2251 162.677C84.7047 162.862 86.7391 161.385 87.6638 159.354C88.5886 157.322 88.0337 155.476 86.5542 155.291C85.0746 155.107 83.0402 156.584 82.1155 158.615C81.1908 160.646 81.7456 162.493 83.2251 162.677Z" fill="#64BAEA"/>
<path opacity="0.5" d="M393.193 388.32C393.563 388.505 394.118 388.136 394.118 387.766C394.302 387.397 394.117 387.028 393.563 386.843C393.193 386.659 392.638 387.028 392.638 387.397C392.638 387.767 392.823 388.136 393.193 388.32Z" fill="#64BAEA"/>
<path opacity="0.8" d="M316.441 28.9902C314.221 28.6209 313.297 26.7744 314.406 24.9279C315.331 23.2661 317.735 22.1582 319.585 22.5275C321.434 22.8968 322.359 24.5586 321.619 26.2205C320.879 28.2516 318.66 29.5442 316.441 28.9902Z" fill="#64BAEA"/>
<path opacity="0.03" d="M403.365 533.087C403.735 533.271 405.769 532.717 407.803 531.609C409.838 530.501 411.132 529.394 410.578 529.209C410.208 529.024 408.173 529.763 406.139 530.871C404.105 531.794 402.995 532.902 403.365 533.087Z" fill="#64BAEA"/>
<path opacity="0.31" d="M122.249 48.7478C122.249 48.7478 122.988 48.0092 124.098 47.2706C125.208 46.532 126.132 45.978 126.132 45.978C126.132 45.978 125.393 46.7166 124.283 47.4552C123.173 48.1938 122.249 48.7478 122.249 48.7478Z" fill="#64BAEA"/>
<path opacity="0.25" d="M261.142 12.0022C262.807 12.3715 266.506 11.4483 269.465 10.3404C272.424 9.23245 273.718 8.12455 272.239 7.9399C270.759 7.75525 267.06 8.3092 263.916 9.4171C260.772 10.525 259.478 11.8176 261.142 12.0022Z" fill="#64BAEA"/>
<path opacity="0.34" d="M357.313 13.2949C357.683 13.2949 357.498 13.1102 357.129 12.7409C356.574 12.3716 356.019 12.0023 355.649 12.0023C355.279 12.0023 355.464 12.187 355.834 12.5563C356.389 12.7409 356.944 13.1102 357.313 13.2949Z" fill="#64BAEA"/>
<path opacity="0.16" d="M218.42 10.7098C218.42 10.7098 218.605 10.7098 218.79 10.5251C218.975 10.5251 219.345 10.3405 219.345 10.3405C219.345 10.3405 219.16 10.3405 218.975 10.5251C218.79 10.7098 218.42 10.7098 218.42 10.7098Z" fill="#64BAEA"/>
<path opacity="0.87" d="M531.346 358.407C530.237 358.407 529.682 356.561 530.237 354.345C530.792 352.129 532.086 350.467 533.196 350.467C534.306 350.467 534.86 352.314 534.306 354.529C533.751 356.745 532.456 358.592 531.346 358.407Z" fill="#64BAEA"/>
<path opacity="0.67" d="M383.206 92.6948C381.726 92.5101 380.432 91.0329 380.247 89.5557C380.062 88.0785 380.986 87.1552 382.466 87.5245C383.946 87.7092 385.24 89.1864 385.425 90.479C385.61 91.9562 384.685 92.8794 383.206 92.6948Z" fill="#64BAEA"/>
<path opacity="0.18" d="M294.987 6.83207C294.987 6.83207 295.357 6.83207 295.727 6.64742C295.912 6.64742 295.912 6.46277 295.912 6.46277C295.912 6.46277 295.542 6.46277 295.172 6.64742C294.987 6.64742 294.987 6.83207 294.987 6.83207Z" fill="#64BAEA"/>
<path opacity="0.41" d="M309.598 42.839C310.522 43.0236 311.632 42.4697 312.002 41.731C312.372 40.9924 311.817 40.0692 310.892 39.8845C309.968 39.6999 308.858 40.2538 308.488 40.9924C308.118 41.9157 308.488 42.6543 309.598 42.839Z" fill="#64BAEA"/>
<path opacity="0.68" d="M451.081 249.648C453.485 250.202 455.519 248.54 455.704 246.139C455.889 243.554 454.04 241.154 451.82 240.6C449.416 240.046 447.382 241.708 447.197 244.108C447.012 246.693 448.676 249.094 451.081 249.648Z" fill="#64BAEA"/>
<path d="M334.935 24.0046C335.49 24.1893 336.045 23.82 336.045 23.266C336.045 22.7121 335.675 22.3428 335.12 22.1581C334.565 21.9735 334.011 22.3428 334.011 22.8967C333.826 23.4507 334.195 24.0046 334.935 24.0046Z" fill="#64BAEA"/>
<path opacity="0.03" d="M483.816 136.272C485.295 136.642 485.665 135.164 484.925 133.133C484.001 131.102 482.336 129.071 480.857 128.886C479.562 128.517 479.007 129.994 479.747 132.025C480.672 134.056 482.521 136.088 483.816 136.272Z" fill="#64BAEA"/>
<path opacity="0.73" d="M374.513 430.605C372.479 430.236 371.369 428.574 372.109 426.543C372.849 424.697 375.068 423.404 377.288 423.773C379.322 424.143 380.432 425.805 379.692 427.836C378.952 429.682 376.548 430.975 374.513 430.605Z" fill="#64BAEA"/>
<path opacity="0.77" d="M299.981 15.1414C301.645 15.5107 304.234 14.7721 305.714 13.4795C307.193 12.3716 307.193 11.2637 305.714 11.0791C304.234 10.8944 301.83 11.4484 300.166 12.5563C298.316 13.4795 298.316 14.7721 299.981 15.1414Z" fill="#64BAEA"/>
<path opacity="0.64" d="M344.737 10.7097C344.922 10.7097 345.107 10.7097 344.922 10.5251C344.737 10.3404 344.552 10.1558 344.367 10.1558C344.182 10.1558 343.998 10.1558 344.182 10.3404C344.367 10.3404 344.552 10.5251 344.737 10.7097Z" fill="#64BAEA"/>
<path opacity="0.57" d="M309.968 1.66195C310.152 1.66195 311.262 1.66195 312.187 1.66195C313.112 1.66195 313.851 1.47729 313.481 1.47729C313.297 1.47729 312.372 1.47729 311.262 1.47729C310.337 1.47729 309.598 1.66195 309.968 1.66195Z" fill="#64BAEA"/>
<path opacity="0.67" d="M22.5633 261.096C20.8988 260.542 20.159 257.218 20.5289 253.525C21.0837 250.017 22.7482 247.432 24.4127 247.986C26.0772 248.54 27.002 251.864 26.4471 255.557C25.8923 259.065 24.0428 261.65 22.5633 261.096Z" fill="#64BAEA"/>
<path opacity="0.99" d="M413.907 61.3041C414.276 61.3041 414.461 61.1194 414.091 60.5655C413.722 60.0115 413.167 59.6422 412.797 59.6422C412.427 59.6422 412.242 59.8269 412.612 60.3808C412.982 60.7501 413.537 61.1194 413.907 61.3041Z" fill="#64BAEA"/>
<path opacity="0.61" d="M273.349 25.6664C274.273 25.851 275.753 25.2971 276.678 24.5585C277.602 23.8199 277.417 23.0813 276.493 22.8966C275.568 22.712 274.088 23.2659 273.164 24.0045C272.424 24.7431 272.424 25.4817 273.349 25.6664Z" fill="#64BAEA"/>
<path opacity="0.74" d="M489.919 427.466C491.028 427.836 492.878 426.543 493.988 424.697C495.097 422.85 495.097 421.004 493.988 420.634C492.878 420.265 491.028 421.558 489.919 423.404C488.809 425.251 488.809 427.097 489.919 427.466Z" fill="#64BAEA"/>
<path opacity="0.71" d="M287.219 27.8823C284.445 27.3283 284.075 25.1125 286.665 22.8967C289.069 20.8655 292.953 19.573 295.357 20.1269C297.761 20.6809 298.131 22.5274 296.097 24.7432C294.062 26.959 289.994 28.4362 287.219 27.8823Z" fill="#64BAEA"/>
<path opacity="0.67" d="M506.009 114.483C507.304 114.853 506.009 111.714 503.05 107.836C500.091 103.774 496.762 100.45 495.652 100.081C494.358 99.7113 495.837 102.666 498.611 106.543C501.385 110.606 504.714 114.114 506.009 114.483Z" fill="#64BAEA"/>
<path opacity="0.14" d="M230.071 563C230.071 563 226.742 562.446 222.674 561.523C218.605 560.6 215.276 559.861 215.276 559.861C215.276 559.861 218.605 560.784 222.674 561.523C226.927 562.446 230.071 563 230.071 563Z" fill="#64BAEA"/>
<path d="M7.95262 216.78C9.06229 212.164 10.7268 208.84 11.4666 209.394C12.2064 209.948 12.0214 214.01 10.9117 218.442C9.80207 223.058 8.13757 226.382 7.39779 225.828C6.65801 225.459 6.84295 221.396 7.95262 216.78Z" stroke="#92CEEA" stroke-width="0.2417" stroke-miterlimit="10"/>
<path d="M223.968 388.32C224.338 385.366 227.482 383.52 230.996 384.258C234.51 384.997 236.914 387.951 236.36 390.906C235.99 393.86 232.846 395.706 229.332 394.968C226.003 394.229 223.598 391.275 223.968 388.32Z" stroke="#92CEEA" stroke-width="0.2417" stroke-miterlimit="10"/>
<path d="M415.571 133.687C415.016 130.179 417.051 127.963 420.38 128.517C423.524 129.071 426.668 132.21 427.223 135.718C427.962 139.227 425.743 141.627 422.414 141.073C419.085 140.335 416.126 137.011 415.571 133.687Z" stroke="#92CEEA" stroke-width="0.2417" stroke-miterlimit="10"/>
<path d="M114.296 56.1338C117.995 53.364 120.399 51.1482 119.844 51.1482C119.289 51.1482 115.96 53.364 112.262 56.1338C108.563 58.9035 106.158 61.304 106.713 61.304C107.083 61.304 110.597 58.9035 114.296 56.1338Z" stroke="#92CEEA" stroke-width="0.2417" stroke-miterlimit="10"/>
<path d="M379.322 97.6802C380.617 100.265 383.761 102.112 386.35 101.558C388.754 101.004 389.679 98.4188 388.199 95.649C386.72 93.0639 383.761 91.4021 381.356 91.956C378.952 92.51 378.027 95.0951 379.322 97.6802Z" stroke="#92CEEA" stroke-width="0.2417" stroke-miterlimit="10"/>
<path d="M332.346 135.718C332.901 132.21 336.23 129.994 340.114 130.733C343.997 131.471 346.772 134.98 346.587 138.488C346.217 141.996 342.703 144.397 338.819 143.658C334.565 142.92 331.791 139.411 332.346 135.718Z" fill="#92CEEA"/>
<path d="M96.7262 402.354C96.1713 398.292 98.5756 395.706 102.09 396.63C105.788 397.553 109.117 401.615 109.672 405.678C110.227 409.74 107.823 412.14 104.309 411.217C100.61 410.478 97.281 406.416 96.7262 402.354Z" fill="#92CEEA"/>
<path d="M187.719 144.212C188.829 141.627 187.349 139.042 184.575 138.488C181.801 137.934 178.657 139.781 177.547 142.366C176.437 144.951 177.917 147.536 180.691 148.09C183.465 148.644 186.609 146.982 187.719 144.212Z" fill="#92CEEA"/>
<path d="M285.925 81.0617C286.48 79.3998 288.514 78.4765 290.363 78.8458C292.213 79.2151 293.138 80.877 292.583 82.3542C292.028 84.0161 289.994 85.124 288.144 84.7547C286.48 84.3854 285.37 82.7235 285.925 81.0617Z" fill="#92CEEA"/>
<path d="M44.3867 149.198C45.6813 146.982 47.3458 145.32 48.0856 145.505C48.8254 145.874 48.6404 147.905 47.3458 150.121C46.0512 152.337 44.3867 153.999 43.6469 153.814C42.9071 153.629 43.277 151.414 44.3867 149.198Z" fill="#92CEEA"/>
<path d="M394.117 109.129C393.933 106.728 391.713 104.512 389.309 103.958C386.905 103.404 385.055 104.882 385.24 107.282C385.425 109.683 387.644 111.898 390.049 112.452C392.638 113.006 394.487 111.344 394.117 109.129Z" fill="#92CEEA"/>
<path d="M256.703 356.007C257.073 353.606 255.224 351.206 252.635 350.836C250.045 350.282 247.456 351.944 247.086 354.345C246.716 356.745 248.566 358.961 251.155 359.515C253.744 359.884 256.334 358.407 256.703 356.007Z" fill="#92CEEA"/>
<path d="M446.272 161.385C445.902 158.984 444.053 156.768 441.833 156.215C439.614 155.845 438.134 157.322 438.319 159.538C438.504 161.939 440.539 164.155 442.758 164.708C445.162 165.262 446.642 163.785 446.272 161.385Z" fill="#92CEEA"/>
<path d="M502.495 215.857C502.31 213.826 501.016 211.979 499.536 211.61C498.056 211.24 497.132 212.533 497.317 214.564C497.502 216.595 498.796 218.442 500.276 218.811C501.57 219.18 502.68 217.888 502.495 215.857Z" fill="#92CEEA"/>
<path d="M466.246 251.494C466.246 246.878 469.39 243.739 473.274 244.293C476.973 244.847 480.117 248.909 480.117 253.525C480.117 258.142 476.973 261.281 473.089 260.727C469.205 260.357 466.246 256.111 466.246 251.494Z" fill="#92CEEA"/>
<path d="M305.899 126.855C306.454 124.455 304.604 122.054 301.83 121.5C299.056 120.946 296.282 122.423 295.727 124.824C295.172 127.224 297.021 129.625 299.796 130.179C302.755 130.917 305.344 129.256 305.899 126.855Z" fill="#92CEEA"/>
<path d="M268.91 111.16C269.465 109.313 271.684 108.205 273.718 108.575C275.753 108.944 276.862 110.79 276.308 112.452C275.753 114.299 273.533 115.407 271.499 115.037C269.465 114.853 268.355 113.006 268.91 111.16Z" fill="#92CEEA"/>
<path d="M531.346 412.51C533.381 408.447 534.306 404.754 533.196 404.2C532.086 403.646 529.497 406.416 527.463 410.479C525.428 414.541 524.688 418.234 525.798 418.788C526.723 419.157 529.312 416.387 531.346 412.51Z" fill="#92CEEA"/>
<path d="M29.2212 414.726C27.5567 411.217 26.4471 408.817 26.8169 409.186C27.1868 409.555 29.0363 412.694 30.7008 416.203C32.3653 419.526 33.475 421.927 33.1051 421.558C32.7352 421.188 31.0707 418.049 29.2212 414.726Z" fill="#92CEEA"/>
<path d="M8.3225 216.965C9.24723 213.456 10.3569 210.871 10.9117 211.24C11.4666 211.61 11.2816 214.749 10.3569 218.257C9.43217 221.766 8.3225 224.351 7.58272 223.981C7.21283 223.612 7.39778 220.473 8.3225 216.965Z" fill="#92CEEA"/>
<path d="M419.085 218.073C419.085 214.933 421.674 212.902 424.633 213.272C427.592 213.826 429.997 216.78 429.997 219.919C429.997 223.058 427.407 225.274 424.448 224.72C421.489 224.166 419.085 221.212 419.085 218.073Z" fill="#92CEEA"/>
<path d="M480.487 76.8147C477.343 73.6756 474.383 71.2751 474.383 71.2751C474.383 71.2751 476.788 73.491 479.932 76.63C483.076 79.5844 485.85 82.3542 486.035 82.3542C486.22 82.3542 483.816 79.9537 480.487 76.8147Z" fill="#92CEEA"/>
<path d="M10.9117 261.65C11.2816 257.772 12.7612 255.187 14.0558 255.741C15.5353 256.295 16.2751 259.804 15.7203 263.681C15.3504 267.559 13.8708 270.144 12.3913 269.59C11.0967 269.036 10.3569 265.528 10.9117 261.65Z" fill="#92CEEA"/>
<path d="M309.598 324.985C310.152 322.4 312.927 320.923 315.701 321.477C318.66 322.031 320.509 324.431 319.955 327.016C319.4 329.601 316.626 331.079 313.851 330.525C310.892 329.786 309.043 327.386 309.598 324.985Z" fill="#92CEEA"/>
<path d="M46.791 156.399C48.2706 153.26 48.4555 150.675 46.976 150.49C45.6814 150.49 43.2771 152.891 41.7975 156.03C40.318 159.169 40.133 161.754 41.4276 161.939C43.0921 162.123 45.3115 159.538 46.791 156.399Z" fill="#92CEEA"/>
<path d="M223.228 41.731C225.078 40.2538 227.852 39.1459 229.517 39.5152C231.181 39.8845 230.996 41.3617 229.332 42.8389C227.482 44.5007 224.708 45.424 223.044 45.0547C221.194 44.87 221.379 43.3928 223.228 41.731Z" fill="#92CEEA"/>
<path d="M148.511 48.5632C149.805 47.6399 151.47 46.9013 152.025 47.086C152.579 47.2706 152.025 48.1939 150.73 49.1171C149.435 50.0404 147.771 50.779 147.216 50.5943C146.661 50.4097 147.216 49.4864 148.511 48.5632Z" fill="#92CEEA"/>
<path d="M154.614 85.1239C155.909 83.6467 158.128 82.5388 159.422 82.9081C160.717 83.2774 160.902 84.7546 159.607 86.2318C158.313 87.709 156.278 88.8169 154.799 88.4476C153.319 88.263 153.319 86.7858 154.614 85.1239Z" fill="#92CEEA"/>
<path d="M54.5587 171.171C56.2232 167.109 55.6684 163.785 53.449 163.601C51.4146 163.416 48.2706 166.555 46.6061 170.433C44.9416 174.495 45.4964 177.819 47.5308 178.003C49.9351 178.373 53.0791 175.234 54.5587 171.171Z" fill="#92CEEA"/>
<path d="M225.818 388.69C226.188 386.474 228.407 385.181 230.811 385.735C233.215 386.289 235.065 388.32 234.695 390.536C234.325 392.567 232.106 394.045 229.701 393.491C227.112 392.937 225.448 390.721 225.818 388.69Z" fill="#92CEEA"/>
<path d="M417.42 133.872C417.051 131.471 418.53 129.994 420.565 130.363C422.599 130.733 424.818 132.948 425.188 135.164C425.558 137.565 424.263 139.042 422.044 138.673C419.825 138.488 417.79 136.272 417.42 133.872Z" fill="#92CEEA"/>
<path d="M113.926 56.1338C116.885 53.918 118.919 52.0715 118.365 52.0715C117.995 52.0715 115.221 53.918 112.261 56.1338C109.302 58.3497 107.268 60.1962 107.638 60.1962C108.193 60.1962 110.967 58.3497 113.926 56.1338Z" fill="#92CEEA"/>
<path d="M22.5632 198.13C23.4879 194.991 23.4879 192.406 22.3783 192.406C21.4535 192.406 19.789 194.991 18.8643 198.13C17.9396 201.269 17.9396 203.854 18.8643 203.854C19.974 204.039 21.6385 201.454 22.5632 198.13Z" fill="#92CEEA"/>
<path d="M32.5503 409.186C31.4406 406.416 31.0707 404.57 31.9954 404.939C32.9201 405.308 34.5846 407.893 35.6943 410.663C36.804 413.433 37.1739 415.095 36.2492 414.725C35.3244 414.356 33.8449 411.956 32.5503 409.186Z" fill="#92CEEA"/>
<path d="M449.416 461.811C451.08 459.596 451.265 457.564 449.601 457.01C448.121 456.457 445.532 457.934 443.868 459.965C442.203 462.181 442.018 464.212 443.683 464.766C445.162 465.32 447.751 464.027 449.416 461.811Z" fill="#92CEEA"/>
<path d="M329.202 135.164C329.942 130.179 334.935 127.04 340.299 127.963C345.662 129.071 349.731 133.872 349.361 138.857C348.991 144.028 343.997 147.351 338.264 146.243C332.531 145.32 328.462 140.335 329.202 135.164Z" stroke="#92CEEA" stroke-width="0.6866" stroke-miterlimit="10"/>
<path d="M168.67 360.992C168.855 357.114 165.711 353.606 161.827 353.052C157.943 352.498 154.799 355.083 154.799 358.961C154.799 362.839 157.758 366.347 161.642 366.901C165.341 367.455 168.485 364.87 168.67 360.992Z" stroke="#92CEEA" stroke-width="0.5221" stroke-miterlimit="10"/>
<path d="M454.594 328.678C455.889 323.323 452.93 317.968 447.936 316.676C442.758 315.383 437.764 318.892 436.285 324.247C434.99 329.601 437.949 334.956 442.943 336.249C448.121 337.357 453.3 334.033 454.594 328.678Z" stroke="#92CEEA" stroke-width="0.6866" stroke-miterlimit="10"/>
<path d="M164.046 138.673C165.895 134.426 164.046 130.548 159.977 129.809C155.908 129.071 150.73 132.025 148.696 136.272C146.661 140.519 148.511 144.582 152.764 145.135C157.018 145.874 162.197 142.92 164.046 138.673Z" stroke="#92CEEA" stroke-width="0.6547" stroke-miterlimit="10"/>
<path d="M56.0383 171.356C58.2577 166.001 57.7028 161.385 54.5588 161.015C51.7846 160.831 47.5309 164.893 45.3115 170.248C43.0922 175.603 43.647 180.404 46.6062 180.588C49.7502 180.958 54.0039 176.895 56.0383 171.356Z" stroke="#92CEEA" stroke-width="0.6565" stroke-miterlimit="10"/>
<path d="M234.695 187.605C235.805 183.543 232.846 179.665 228.222 178.742C223.598 178.003 218.975 180.588 217.865 184.651C216.755 188.713 219.529 192.775 224.338 193.514C229.147 194.253 233.77 191.667 234.695 187.605Z" stroke="#92CEEA" stroke-width="0.5046" stroke-miterlimit="10"/>
<path d="M54.1889 130.363C56.5932 126.486 59.7372 123.901 61.0318 124.27C62.5114 124.639 61.5867 128.148 59.1824 132.025C56.7781 135.903 53.6341 138.673 52.1545 138.119C50.8599 137.749 51.5997 134.241 54.1889 130.363Z" stroke="#92CEEA" stroke-width="0.5362" stroke-miterlimit="10"/>
<path d="M32.5503 409.186C31.2557 406.416 31.0708 404.385 31.9955 404.754C32.9202 405.124 34.5847 407.893 35.8793 410.663C37.1739 413.433 37.3589 415.464 36.4342 414.91C35.5094 414.541 33.66 411.956 32.5503 409.186Z" stroke="#92CEEA" stroke-width="0.5069" stroke-miterlimit="10"/>
<path d="M489.734 96.757C493.248 100.265 495.282 101.189 494.173 98.7882C493.063 96.3877 489.179 91.5868 485.665 88.2631" stroke="#92CEEA" stroke-width="0.6095" stroke-miterlimit="10"/>
<path d="M449.786 462.55C452.19 459.965 452.56 457.01 450.896 456.087C449.231 455.164 445.902 456.641 443.683 459.226" stroke="#92CEEA" stroke-width="0.6091" stroke-miterlimit="10"/>
<path d="M175.882 101.927C177.547 99.3421 180.876 97.8649 183.28 98.4189C185.685 98.9728 186.424 101.373 184.945 103.958C183.28 106.544 179.951 108.205 177.547 107.651C174.958 107.097 174.218 104.512 175.882 101.927Z" fill="#92CEEA"/>
<path d="M343.813 6.09346C343.258 5.72416 342.518 5.35486 342.148 5.35486C341.778 5.35486 341.963 5.53951 342.518 5.90881C343.073 6.27811 343.628 6.64741 344.182 6.83206C344.552 6.83206 344.367 6.46276 343.813 6.09346Z" fill="#92CEEA"/>
<path d="M196.041 12.9255C199.925 11.633 203.254 10.7097 203.439 10.8944C203.809 11.079 201.035 12.0023 197.151 13.2948C193.267 14.5874 189.938 15.5106 189.568 15.5106C189.383 15.5106 192.158 14.2181 196.041 12.9255Z" fill="#92CEEA"/>
<path d="M71.2037 475.291C69.5392 473.444 68.4296 472.337 68.6145 472.521C68.7995 472.706 70.0941 474.368 71.7586 476.029C73.4231 477.691 74.5328 478.984 74.3478 478.799C74.1629 478.615 72.8683 477.137 71.2037 475.291Z" fill="#92CEEA"/>
<path d="M43.647 128.886C45.6813 125.932 46.976 123.716 46.976 123.716C46.976 123.716 45.1265 126.486 43.2771 129.44C41.2427 132.395 39.9481 134.795 39.9481 134.795C39.9481 134.61 41.6126 132.025 43.647 128.886Z" fill="#92CEEA"/>
<path d="M48.8254 432.821C46.976 429.867 45.1265 427.651 44.3867 427.651C43.8319 427.836 44.5717 430.421 46.4211 433.191C48.2706 436.145 50.12 438.361 50.8598 438.176C51.5996 438.176 50.6749 435.776 48.8254 432.821Z" fill="#92CEEA"/>
<path d="M285.185 76.2608C286.295 73.3064 284.445 70.5366 281.116 69.9827C277.787 69.4287 273.903 71.0906 272.609 74.045C271.314 76.9994 273.164 79.9538 276.678 80.5078C280.191 81.0617 283.89 79.2152 285.185 76.2608Z" fill="#92CEEA"/>
<path d="M532.641 146.797C531.716 145.136 530.792 143.658 530.607 143.658C530.422 143.474 530.792 144.766 531.716 146.428C532.641 148.09 533.566 149.567 533.751 149.567C533.936 149.752 533.566 148.459 532.641 146.797Z" fill="#92CEEA"/>
<path d="M303.495 534.194C305.529 532.533 305.714 530.871 304.049 530.501C302.385 530.132 299.611 531.055 297.761 532.717C295.912 534.379 295.727 535.856 297.206 536.226C298.686 536.595 301.46 535.672 303.495 534.194Z" fill="#92CEEA"/>
<path d="M33.2901 201.454C34.3998 198.315 36.4342 196.099 37.7288 196.653C39.2083 197.207 39.5782 199.977 38.4686 203.116C37.3589 206.255 35.3245 208.471 33.8449 207.917C32.5503 207.547 32.1804 204.593 33.2901 201.454Z" fill="#92CEEA"/>
<path d="M556.314 345.481C556.869 343.45 556.869 341.419 556.314 341.234C555.759 341.05 555.019 342.527 554.465 344.558C553.91 346.589 553.91 348.62 554.465 348.805C555.019 348.99 555.759 347.513 556.314 345.481Z" fill="#92CEEA"/>
<path d="M466.801 497.449C468.28 496.156 469.39 494.864 469.205 494.679C468.835 494.495 467.356 495.418 465.876 496.71C464.397 498.003 463.287 499.295 463.657 499.48C463.842 499.665 465.321 498.741 466.801 497.449Z" fill="#92CEEA"/>
<path d="M38.2836 196.838C39.2083 193.514 38.8384 190.744 37.1739 190.56C35.6943 190.375 33.475 193.145 32.3653 196.468C31.2557 199.792 31.8105 202.562 33.475 202.747C35.1395 202.931 37.3589 200.161 38.2836 196.838Z" fill="#92CEEA"/>
<path d="M101.535 338.28C101.535 335.326 103.754 333.479 106.528 334.218C109.117 334.956 111.152 337.726 111.152 340.681C110.967 343.635 108.748 345.482 106.158 344.743C103.569 344.189 101.535 341.235 101.535 338.28Z" fill="#92CEEA"/>
<path d="M295.542 2.95443C296.836 2.76978 298.316 2.76978 298.686 2.76978C299.056 2.76978 298.131 2.95443 296.836 3.32373C295.542 3.50838 294.062 3.69303 293.692 3.50838C293.323 3.32373 294.247 3.13908 295.542 2.95443Z" fill="#92CEEA"/>
<path d="M36.4341 334.402C35.8793 331.263 34.3997 328.678 32.7352 328.494C31.2557 328.494 30.3309 330.894 30.7008 334.033C31.2557 337.172 32.9202 339.757 34.3997 339.757C35.8793 340.127 36.804 337.542 36.4341 334.402Z" fill="#92CEEA"/>
<path d="M184.205 522.008C183.465 519.792 184.945 518.499 187.534 519.053C190.123 519.607 192.713 521.823 193.267 524.039C193.822 526.07 192.343 527.362 189.938 526.808C187.534 526.255 184.945 524.039 184.205 522.008Z" fill="#92CEEA"/>
<path d="M459.218 190.006C459.033 188.159 457.739 186.497 456.074 186.128C454.41 185.759 453.3 187.051 453.485 188.713C453.67 190.56 454.964 192.406 456.629 192.591C458.293 193.145 459.403 191.852 459.218 190.006Z" fill="#92CEEA"/>
<path d="M300.165 509.082C301.09 507.236 303.864 506.128 306.084 506.497C308.488 506.866 309.413 508.713 308.488 510.375C307.378 512.221 304.789 513.329 302.57 512.96C300.35 512.59 299.241 510.929 300.165 509.082Z" fill="#92CEEA"/>
<path d="M353.06 216.226C353.245 214.01 355.464 212.533 357.868 212.902C360.273 213.272 362.122 215.487 361.752 217.703C361.567 219.919 359.348 221.396 356.944 221.027C354.539 220.658 352.69 218.442 353.06 216.226Z" fill="#92CEEA"/>
<path d="M139.263 458.672C137.969 455.349 135.01 452.394 132.236 452.025C129.646 451.656 128.537 454.241 130.016 457.565C131.311 460.888 134.455 463.658 137.044 464.027C139.448 464.397 140.373 461.996 139.263 458.672Z" fill="#92CEEA"/>
<path d="M297.021 303.75C297.576 300.796 295.357 298.026 292.213 297.288C288.884 296.734 285.74 298.396 285.185 301.35C284.63 304.304 286.849 307.074 289.993 307.628C293.323 308.367 296.467 306.52 297.021 303.75Z" fill="#92CEEA"/>
<path d="M533.196 422.665C534.86 419.711 535.97 417.126 535.785 416.941C535.6 416.572 534.121 418.788 532.456 421.558C530.792 424.327 529.682 426.912 529.867 427.282C530.052 427.651 531.531 425.62 533.196 422.665Z" fill="#92CEEA"/>
<path d="M555.759 371.333C557.054 367.455 557.979 363.947 557.609 363.577C557.424 363.208 556.129 366.162 555.019 370.04C553.725 373.918 552.985 377.241 553.17 377.611C553.355 378.165 554.65 375.21 555.759 371.333Z" fill="#92CEEA"/>
<path d="M262.622 499.665C262.992 498.742 262.437 497.818 261.512 497.634C260.587 497.449 259.478 498.003 259.108 498.926C258.738 499.849 259.293 500.773 260.217 500.957C261.142 501.142 262.252 500.588 262.622 499.665Z" fill="#92CEEA"/>
<path d="M162.012 29.7288C164.046 28.6209 165.895 27.8823 166.265 28.067C166.635 28.2516 165.341 28.9902 163.306 30.0981C161.272 31.206 159.422 31.9446 158.868 31.76C158.683 31.76 159.977 30.8367 162.012 29.7288Z" fill="#92CEEA"/>
<path d="M197.336 204.778C198.261 201.269 195.857 197.761 191.973 197.207C188.089 196.468 184.205 198.869 183.28 202.377C182.356 205.886 184.76 209.394 188.644 209.948C192.528 210.686 196.411 208.286 197.336 204.778Z" fill="#92CEEA"/>
<path d="M261.512 561.338C264.286 560.784 266.136 560.23 265.396 560.046C264.656 559.861 262.067 560.23 259.478 560.784C256.888 561.338 255.039 561.707 255.594 561.892C255.964 562.077 258.738 561.892 261.512 561.338Z" fill="#92CEEA"/>
<path d="M182.171 525.701C180.876 524.223 179.212 522.746 178.102 522.562C176.992 522.377 177.177 523.669 178.472 525.147C179.766 526.624 181.616 527.916 182.541 528.101C183.65 528.47 183.465 527.362 182.171 525.701Z" fill="#92CEEA"/>
<path d="M120.584 266.082C121.324 262.573 124.653 260.357 127.982 261.096C131.311 261.835 133.53 265.343 132.79 268.851C132.051 272.36 128.722 274.576 125.393 273.837C122.064 273.098 120.029 269.59 120.584 266.082Z" fill="#92CEEA"/>
</g>
</svg>
