<svg width="24" height="24" viewBox="0 0 24 24" fill="none" xmlns="http://www.w3.org/2000/svg">
<rect width="24" height="24" rx="12" fill="#D50060"/>
<path fill-rule="evenodd" clip-rule="evenodd" d="M9.23021 5.32234C9.94739 5.28281 10.1761 5.28281 12.0001 5.28281C13.8241 5.28281 14.0528 5.29128 14.77 5.32234C15.3278 5.33387 15.8796 5.43984 16.402 5.63575C17.3125 5.9826 18.0316 6.7017 18.3784 7.61222C18.5744 8.13461 18.6803 8.68642 18.6919 9.24422C18.7314 9.96139 18.7314 10.1901 18.7314 12.0141C18.7314 13.8381 18.7229 14.0668 18.6919 14.784C18.6803 15.3418 18.5744 15.8936 18.3784 16.416C18.0316 17.3265 17.3125 18.0456 16.402 18.3925C15.8796 18.5884 15.3278 18.6943 14.77 18.7059C14.0528 18.7454 13.8241 18.7454 12.0001 18.7454C10.1761 18.7454 9.94739 18.7369 9.23021 18.7059C8.67241 18.6943 8.1206 18.5884 7.59821 18.3925C6.68769 18.0456 5.96859 17.3265 5.62174 16.416C5.42583 15.8936 5.31986 15.3418 5.30833 14.784C5.2688 14.0668 5.2688 13.8381 5.2688 12.0141C5.2688 10.1901 5.27727 9.96139 5.30833 9.24422C5.31986 8.68642 5.42583 8.13461 5.62174 7.61222C5.96859 6.7017 6.68769 5.9826 7.59821 5.63575C8.1206 5.43984 8.67241 5.33387 9.23021 5.32234ZM14.7163 6.53359C14.0076 6.49406 13.7931 6.49406 12.0001 6.49406C10.2072 6.49406 9.99258 6.49971 9.28388 6.53359C8.85755 6.5373 8.43517 6.61566 8.03588 6.76512C7.4515 6.99206 6.98941 7.45416 6.76247 8.03853C6.61301 8.43782 6.53465 8.8602 6.53094 9.28653C6.49141 9.99524 6.49141 10.2098 6.49141 12.0028C6.49141 13.7957 6.49705 14.0103 6.53094 14.719C6.53465 15.1453 6.61301 15.5677 6.76247 15.967C6.98941 16.5514 7.4515 17.0135 8.03588 17.2404C8.43517 17.3899 8.85755 17.4682 9.28388 17.4719C9.99258 17.5115 10.2043 17.5115 12.0001 17.5115C13.7959 17.5115 14.0076 17.5058 14.7163 17.4719C15.1427 17.4682 15.5651 17.3899 15.9643 17.2404C16.5487 17.0135 17.0108 16.5514 17.2378 15.967C17.3872 15.5677 17.4656 15.1453 17.4693 14.719C17.5088 14.0103 17.5088 13.7957 17.5088 12.0028C17.5088 10.2098 17.5032 9.99524 17.4693 9.28653C17.4656 8.8602 17.3872 8.43782 17.2378 8.03853C17.0108 7.45416 16.5487 6.99206 15.9643 6.76512C15.5651 6.61566 15.1427 6.5373 14.7163 6.53359Z" fill="white"/>
<path fill-rule="evenodd" clip-rule="evenodd" d="M8.54956 12C8.54956 10.0944 10.0943 8.54965 11.9999 8.54965C13.9055 8.54965 15.4503 10.0944 15.4503 12C15.4503 13.9056 13.9055 15.4504 11.9999 15.4504C10.0943 15.4504 8.54956 13.9056 8.54956 12ZM9.76094 12C9.76094 13.2366 10.7634 14.239 12 14.239C13.2366 14.239 14.2391 13.2366 14.2391 12C14.2391 10.7634 13.2366 9.76091 12 9.76091C10.7634 9.76091 9.76094 10.7634 9.76094 12Z" fill="white"/>
<circle cx="15.5858" cy="8.41413" r="0.807529" fill="white"/>
</svg>
