<svg width="24" height="24" viewBox="0 0 24 24" fill="none" xmlns="http://www.w3.org/2000/svg">
<rect width="24" height="24" rx="12" fill="#0076B2"/>
<path fill-rule="evenodd" clip-rule="evenodd" d="M8.03017 6.41505C8.03017 5.52307 7.30708 4.79999 6.41511 4.79999C5.52314 4.79999 4.80005 5.52307 4.80005 6.41505C4.80005 7.30702 5.52314 8.03011 6.41511 8.03011C7.30708 8.03011 8.03017 7.30702 8.03017 6.41505ZM7.80714 10.6461C7.80714 9.87654 7.18328 9.25269 6.41372 9.25269C5.64416 9.25269 5.02031 9.87654 5.02031 10.6461V16.8212C5.02031 17.5907 5.64416 18.2146 6.41372 18.2146C7.18328 18.2146 7.80714 17.5907 7.80714 16.8212V10.6461Z" fill="white"/>
<path d="M9.55661 10.5877C9.55569 9.85068 10.1529 9.25273 10.8899 9.25273H11.6105C11.9488 9.25273 12.2232 9.52705 12.2232 9.86543V10.4458C12.2232 10.4637 12.2376 10.4781 12.2555 10.4781C12.2669 10.4781 12.2776 10.472 12.2834 10.4622C12.8302 9.54122 13.8371 8.99228 14.9083 9.03249C17.7319 9.03249 18.2486 10.8876 18.2486 13.2988V16.8226C18.2486 17.5914 17.6254 18.2146 16.8566 18.2146C16.0878 18.2146 15.4646 17.5914 15.4646 16.8226V13.8579C15.4646 12.8188 15.4476 11.4805 14.0189 11.4805C12.5902 11.4805 12.3474 12.6099 12.3474 13.7817V16.8231C12.3474 17.5916 11.7244 18.2146 10.9559 18.2146C10.1881 18.2146 9.56544 17.5927 9.56447 16.8249L9.55661 10.5877Z" fill="white"/>
</svg>
