<svg width="24" height="24" viewBox="0 0 24 24" fill="none" xmlns="http://www.w3.org/2000/svg">
<rect width="24" height="24" rx="12" fill="#55ACEE"/>
<path d="M18.72 7.83247C18.2162 8.0545 17.6825 8.20101 17.136 8.2673C17.7125 7.92224 18.144 7.37936 18.3501 6.73977C17.8079 7.06098 17.215 7.28729 16.5967 7.40894C15.8223 6.58482 14.6234 6.31678 13.5718 6.73269C12.5201 7.1486 11.8289 8.1642 11.8277 9.29506C11.8281 9.5069 11.8518 9.71805 11.8983 9.92471C9.68283 9.81644 7.61676 8.7752 6.21172 7.05883C5.48467 8.3147 5.85493 9.91913 7.05878 10.7294C6.6204 10.7156 6.19162 10.5975 5.80795 10.3849V10.4216C5.80896 11.7343 6.7348 12.8645 8.0216 13.1238C7.61537 13.2328 7.18984 13.2492 6.77643 13.1718C7.13648 14.2953 8.17183 15.065 9.35148 15.0861C8.3746 15.85 7.16946 16.2637 5.92937 16.2607C5.70949 16.2605 5.48981 16.2473 5.27148 16.2212C6.53399 17.0345 8.00496 17.465 9.50678 17.4607C14.5891 17.4607 17.3534 13.2593 17.3534 9.61694C17.3534 9.49553 17.3534 9.37694 17.3534 9.25836C17.8898 8.86784 18.3526 8.38503 18.72 7.83247Z" fill="white"/>
</svg>
